<?xml version="1.0" encoding="utf-8"?>
<!-- Generator: Adobe Illustrator 19.0.0, SVG Export Plug-In . SVG Version: 6.00 Build 0)  -->
<svg version="1.1" id="Layer_1" xmlns="http://www.w3.org/2000/svg" xmlns:xlink="http://www.w3.org/1999/xlink" x="0px" y="0px"
	 viewBox="0 0 612 612" style="enable-background:new 0 0 612 612;" xml:space="preserve">
<style type="text/css">
	.st0{fill:#FFFFFF;}
</style>
<path class="st0" d="M293.7,55.5h2c5.5,0,10-4.5,10-10v-10c0-5.5-4.5-10-10-10h-2c-5.5,0-10,4.5-10,10v10
	C283.7,51.1,288.2,55.5,293.7,55.5z"/>
<path class="st0" d="M324.3,95h-61c-5.3,0-9.5-4.3-9.5-9.5v-1c0-5.3,4.3-9.5,9.5-9.5h61c5.3,0,9.5,4.3,9.5,9.5v1
	C333.8,90.7,329.6,95,324.3,95z"/>
<path class="st0" d="M344,137.6H243.7c-5.4,0-9.8-4.4-9.8-9.8v-0.4c0-5.4,4.4-9.8,9.8-9.8H344c5.4,0,9.8,4.4,9.8,9.8v0.4
	C353.8,133.2,349.5,137.6,344,137.6z"/>
<path class="st0" d="M354,180.6H233.7c-5.4,0-9.8-4.4-9.8-9.8v-0.4c0-5.4,4.4-9.8,9.8-9.8H354c5.4,0,9.8,4.4,9.8,9.8v0.4
	C363.8,176.2,359.5,180.6,354,180.6z"/>
<path class="st0" d="M374.9,222.3H214.5c-5.4,0-9.8-4.4-9.8-9.8v-0.4c0-5.4,4.4-9.8,9.8-9.8h160.4c5.4,0,9.8,4.4,9.8,9.8v0.4
	C384.7,217.9,380.3,222.3,374.9,222.3z"/>
<path class="st0" d="M364.9,263.4H224.5c-5.4,0-9.8-4.4-9.8-9.8v-0.4c0-5.4,4.4-9.8,9.8-9.8h140.4c5.4,0,9.8,4.4,9.8,9.8v0.4
	C374.7,259,370.3,263.4,364.9,263.4z"/>
<path class="st0" d="M404,305.2H185.4c-5.9,0-10.7-4.4-10.7-9.8V295c0-5.4,4.8-9.8,10.7-9.8H404c5.9,0,10.7,4.4,10.7,9.8v0.4
	C414.7,300.8,409.9,305.2,404,305.2z"/>
<path class="st0" d="M399,349.6H190.5c-5.9,0-10.7-4.4-10.7-9.8v-0.4c0-5.4,4.8-9.8,10.7-9.8H399c5.9,0,10.7,4.4,10.7,9.8v0.4
	C409.7,345.2,404.9,349.6,399,349.6z"/>
<path class="st0" d="M429.2,394.2H160.2c-5.8,0-10.5-4.4-10.5-9.8l0,0c0-5.4,4.7-9.8,10.5-9.8h268.9c5.8,0,10.5,4.4,10.5,9.8l0,0
	C439.7,389.8,435,394.2,429.2,394.2z"/>
</svg>
