<?xml version="1.0" encoding="utf-8"?>
<!-- Generator: Adobe Illustrator 19.0.0, SVG Export Plug-In . SVG Version: 6.00 Build 0)  -->
<svg version="1.1" id="Layer_1" xmlns="http://www.w3.org/2000/svg" xmlns:xlink="http://www.w3.org/1999/xlink" x="0px" y="0px"
	 viewBox="124 12.3 447.5 487.7" style="enable-background:new 124 12.3 447.5 487.7;" xml:space="preserve">
<style type="text/css">
	.st0{fill:#C73D56;}
	.st1{fill:#066641;}
</style>
<g id="XMLID_14_">
	<path id="XMLID_8_" class="st0" d="M492.2,243.7h-3.9V65.1c0-5.3-4.3-9.7-9.7-9.7H209c-5.3,0-9.7,4.3-9.7,9.7V231h-3.9V65.1
		c0-7.5,6.1-13.5,13.5-13.5h269.7c7.5,0,13.5,6.1,13.5,13.5L492.2,243.7L492.2,243.7z"/>
</g>
<g id="XMLID_9_">
	<g id="XMLID_11_">
		<g id="XMLID_5_">
			<g id="XMLID_6_">
				<path id="XMLID_198_" class="st1" d="M307,336.3c-64.5-64.2-122.3-121.7-174.7-173.9c-2.3-2.3-6,1.3-3.6,3.6
					c58.2,58,116.5,115.9,174.7,173.9C305.7,342.2,309.3,338.6,307,336.3L307,336.3z"/>
			</g>
		</g>
	</g>
</g>
<g id="XMLID_7_">
	<g id="XMLID_12_">
		<g id="XMLID_3_">
			<g id="XMLID_4_">
				<path id="XMLID_193_" class="st1" d="M400.5,340.9C457.2,282.9,514,225,570.8,167c2.3-2.3-1.3-5.9-3.6-3.6
					c-56.8,57.9-113.5,115.9-170.3,173.8C394.6,339.6,398.2,343.2,400.5,340.9L400.5,340.9z"/>
			</g>
		</g>
	</g>
</g>
<g id="XMLID_10_">
	<path id="XMLID_2_" class="st0" d="M555.7,500H139.5c-8.5,0-15.5-6.9-15.5-15.5V162.6c0-8.5,6.9-15.5,15.5-15.5h57.8v7.7h-57.8
		c-4.3,0-7.7,3.5-7.7,7.7v321.9c0,4.3,3.5,7.7,7.7,7.7h416.3c4.3,0,7.7-3.5,7.7-7.7V162.6c0-4.3-3.5-7.7-7.7-7.7h-65.6v-7.7h65.6
		c8.5,0,15.5,6.9,15.5,15.5v321.9C571.2,493.1,564.3,500,555.7,500z"/>
</g>
<g id="XMLID_40_">
	<g id="XMLID_92_">
		<g id="XMLID_93_">
			<g id="XMLID_169_">
				<g id="XMLID_170_">
					<path id="XMLID_186_" class="st1" d="M442.1,183.1l-4.7-4.8l-1.6,1.6l6.3,6.4l13.4-13.8L454,171L442.1,183.1z"/>
				</g>
			</g>
		</g>
	</g>
	<g id="XMLID_89_">
		<g id="XMLID_90_">
			<g id="XMLID_165_">
				<g id="XMLID_166_">
					<path id="XMLID_181_" class="st0" d="M365.2,186.1h-72.1c-0.9,0-1.7-0.8-1.7-1.7v-0.2c0-0.9,0.8-1.7,1.7-1.7h72.1
						c0.9,0,1.7,0.8,1.7,1.7v0.2C366.9,185.3,366.2,186.1,365.2,186.1z"/>
				</g>
			</g>
		</g>
	</g>
	<g id="XMLID_86_">
		<g id="XMLID_88_">
			<g id="XMLID_161_">
				<g id="XMLID_162_">
					<path id="XMLID_176_" class="st0" d="M402.8,176.5H293.1c-0.9,0-1.7-0.8-1.7-1.7v-0.2c0-0.9,0.8-1.7,1.7-1.7h109.6
						c0.9,0,1.7,0.8,1.7,1.7v0.2C404.5,175.7,403.7,176.5,402.8,176.5z"/>
				</g>
			</g>
		</g>
	</g>
	<g id="XMLID_84_">
		<g id="XMLID_85_">
			<g id="XMLID_157_">
				<g id="XMLID_158_">
					<path id="XMLID_171_" class="st1" d="M442.1,248.1l-4.7-4.8l-1.6,1.6l6.3,6.4l13.4-13.8L454,236L442.1,248.1z"/>
				</g>
			</g>
		</g>
	</g>
	<g id="XMLID_82_">
		<g id="XMLID_83_">
			<g id="XMLID_153_">
				<g id="XMLID_154_">
					<path id="XMLID_160_" class="st0" d="M365.2,251.1h-72.1c-0.9,0-1.7-0.8-1.7-1.7v-0.2c0-0.9,0.8-1.7,1.7-1.7h72.1
						c0.9,0,1.7,0.8,1.7,1.7v0.2C366.9,250.3,366.2,251.1,365.2,251.1z"/>
				</g>
			</g>
		</g>
	</g>
	<g id="XMLID_68_">
		<g id="XMLID_69_">
			<g id="XMLID_149_">
				<g id="XMLID_150_">
					<path id="XMLID_151_" class="st0" d="M402.8,241.5H293.1c-0.9,0-1.7-0.8-1.7-1.7v-0.2c0-0.9,0.8-1.7,1.7-1.7h109.6
						c0.9,0,1.7,0.8,1.7,1.7v0.2C404.5,240.7,403.7,241.5,402.8,241.5z"/>
				</g>
			</g>
		</g>
	</g>
	<g id="XMLID_57_">
		<g id="XMLID_63_">
			<g id="XMLID_141_">
				<g id="XMLID_142_">
					<path id="XMLID_144_" class="st0" d="M330.1,311.5h-34.5c-0.9,0-1.7-0.7-1.7-1.7l0,0c0-0.9,0.7-1.7,1.7-1.7h34.5
						c0.9,0,1.7,0.7,1.7,1.7l0,0C331.7,310.7,331,311.5,330.1,311.5z"/>
				</g>
			</g>
		</g>
	</g>
	<g id="XMLID_55_">
		<g id="XMLID_56_">
			<g id="XMLID_137_">
				<g id="XMLID_138_">
					<path id="XMLID_135_" class="st0" d="M402.8,301.8H293.1c-0.9,0-1.7-0.8-1.7-1.7v-0.2c0-0.9,0.8-1.7,1.7-1.7h109.6
						c0.9,0,1.7,0.8,1.7,1.7v0.2C404.5,301,403.7,301.8,402.8,301.8z"/>
				</g>
			</g>
		</g>
	</g>
</g>
<g id="XMLID_42_">
	<g id="XMLID_43_">
		<g id="XMLID_44_">
			<path id="XMLID_129_" class="st0" d="M348.7,298.7c-3.7,0-7.4,1.3-10.2,3.9L130,495.4l4.1,3.8l208.4-192.8
				c3.4-3.1,8.9-3.1,12.3,0L563.2,498l4.1-3.8L358.9,302.6C356.1,300,352.4,298.7,348.7,298.7z"/>
		</g>
	</g>
</g>
<g id="XMLID_18_">
	<g id="Gift">
		<g id="XMLID_19_">
			<g id="XMLID_20_">
				<g id="XMLID_75_">
					<g id="XMLID_124_">
						<path id="XMLID_115_" class="st1" d="M271.2,168.3h-9l2-1.1c0.1-0.1,0.2-0.2,0.3-0.3c0.8-0.8,1.2-1.9,1.2-3.1
							c0-1.2-0.4-2.3-1.2-3.1c-1.6-1.7-4.1-1.7-5.6,0c-0.1,0.1-0.2,0.2-0.2,0.3l-2.9,5.8l-2.9-5.8c-0.1-0.1-0.1-0.2-0.2-0.3
							c-1.6-1.7-4.1-1.7-5.6,0c-1.6,1.7-1.6,4.5,0,6.2c0.1,0.1,0.2,0.2,0.3,0.3l2,1.1h-8.5c-0.7,0-1.2,0.6-1.2,1.4v8
							c0,0.7,0.6,1.4,1.2,1.4h1.4v14.4c0,0.7,0.6,1.4,1.2,1.4h24.9c0.7,0,1.2-0.6,1.2-1.4V179h1.3c0.7,0,1.2-0.6,1.2-1.4v-8
							C272.5,168.9,271.9,168.3,271.2,168.3z M254.8,192.1V179h2.7v13.1H254.8L254.8,192.1z M257.5,176.3h-2.7V171h2.7V176.3z
							 M260.9,162.5c0.6-0.5,1.5-0.5,2,0.1c0.3,0.3,0.4,0.7,0.4,1.2c0,0.4-0.1,0.7-0.3,1l-4.5,2.5L260.9,162.5z M249,162.6
							c0.5-0.6,1.5-0.6,2-0.1l2.4,4.8l-4.5-2.5C248.4,164.2,248.4,163.2,249,162.6z M242.3,171h10.1v5.3h-10.1V171z M244.9,179h8.6
							v13.1h-8.6V179z M267.4,192.1h-8.7V179h8.7V192.1z M270,176.3h-10V171h10V176.3L270,176.3z"/>
					</g>
				</g>
			</g>
		</g>
	</g>
</g>
<g id="XMLID_45_">
	<g id="Gift_2_">
		<g id="XMLID_46_">
			<g id="XMLID_47_">
				<g id="XMLID_73_">
					<g id="XMLID_96_">
						<path id="XMLID_100_" class="st1" d="M271.2,228.2h-9l2-1.1c0.1-0.1,0.2-0.2,0.3-0.3c0.8-0.8,1.2-1.9,1.2-3.1
							c0-1.2-0.4-2.3-1.2-3.1c-1.6-1.7-4.1-1.7-5.6,0c-0.1,0.1-0.2,0.2-0.2,0.3l-2.9,5.8l-2.9-5.8c-0.1-0.1-0.1-0.2-0.2-0.3
							c-1.6-1.7-4.1-1.7-5.6,0c-1.6,1.7-1.6,4.5,0,6.2c0.1,0.1,0.2,0.2,0.3,0.3l2,1.1h-8.5c-0.7,0-1.2,0.6-1.2,1.4v8
							c0,0.7,0.6,1.4,1.2,1.4h1.4v14.4c0,0.7,0.6,1.4,1.2,1.4h24.9c0.7,0,1.2-0.6,1.2-1.4V239h1.3c0.7,0,1.2-0.6,1.2-1.4v-8
							C272.5,228.8,271.9,228.2,271.2,228.2z M254.8,252v-13h2.7v13H254.8L254.8,252z M257.5,236.3h-2.7V231h2.7V236.3z
							 M260.9,222.5c0.6-0.5,1.5-0.5,2,0.1c0.3,0.3,0.4,0.7,0.4,1.2c0,0.4-0.1,0.7-0.3,1l-4.5,2.5L260.9,222.5z M249,222.6
							c0.5-0.6,1.5-0.6,2-0.1l2.4,4.8l-4.5-2.5C248.4,224.1,248.4,223.2,249,222.6z M242.3,230.9h10.1v5.3h-10.1V230.9z M244.9,239
							h8.6v13h-8.6V239z M267.4,252h-8.7v-13h8.7V252z M270,236.3h-10V231h10V236.3L270,236.3z"/>
					</g>
				</g>
			</g>
		</g>
	</g>
</g>
<g id="XMLID_64_">
	<g id="XMLID_61_">
		<g id="XMLID_91_">
			<path id="XMLID_74_" class="st0" d="M408,33.2h-41.4c0.3,1.3,0.4,2.6,0.4,4c0,10.4-8.5,18.9-18.9,18.9s-18.9-8.5-18.9-18.9
				c0-1.4,0.1-2.7,0.4-4h-47.3c-2,0-3.7,1.7-3.7,3.7V68c0,2,1.7,3.7,3.7,3.7H408c2,0,3.7-1.7,3.7-3.7V36.8
				C411.6,34.8,410,33.2,408,33.2z"/>
		</g>
	</g>
	<g id="XMLID_70_">
		<g id="XMLID_87_">
			<path id="XMLID_35_" class="st0" d="M408,72H282.3c-2.3,0-4.1-1.8-4.1-4.1V36.8c0-2.3,1.8-4.1,4.1-4.1h47.8l-0.1,0.5
				c-0.3,1.3-0.4,2.6-0.4,3.9c0,10.2,8.3,18.5,18.5,18.5s18.5-8.3,18.5-18.5c0-1.3-0.1-2.6-0.4-3.9l-0.1-0.5h42
				c2.3,0,4.1,1.8,4.1,4.1v31.1C412,70.2,410.2,72,408,72z M282.3,33.6c-1.8,0-3.3,1.5-3.3,3.3V68c0,1.8,1.5,3.3,3.3,3.3H408
				c1.8,0,3.3-1.5,3.3-3.3V36.8c0-1.8-1.5-3.3-3.3-3.3h-41c0.2,1.2,0.3,2.4,0.3,3.5c0,10.6-8.7,19.3-19.3,19.3s-19.3-8.7-19.3-19.3
				c0-1.2,0.1-2.4,0.3-3.5L282.3,33.6L282.3,33.6z"/>
		</g>
	</g>
</g>
<g id="XMLID_60_">
	<g id="XMLID_62_">
		<g id="XMLID_76_">
			<path id="XMLID_29_" class="st0" d="M348.1,58.6c-11.8,0-21.4-9.6-21.4-21.4s9.6-21.4,21.4-21.4s21.4,9.6,21.4,21.4
				S359.9,58.6,348.1,58.6z M348.1,20.8c-9,0-16.4,7.3-16.4,16.4c0,9,7.3,16.4,16.4,16.4s16.4-7.3,16.4-16.4
				C364.4,28.1,357.1,20.8,348.1,20.8z"/>
		</g>
		<g id="XMLID_79_">
			<path id="XMLID_17_" class="st0" d="M348.1,61.9c-13.7,0-24.8-11.1-24.8-24.8s11.1-24.8,24.8-24.8s24.8,11.1,24.8,24.8
				S361.7,61.9,348.1,61.9z M348.1,24.2c-7.2,0-13,5.8-13,13s5.8,13,13,13s13-5.8,13-13C361,30,355.2,24.2,348.1,24.2z"/>
		</g>
	</g>
</g>
</svg>
