<?xml version="1.0" encoding="utf-8"?>
<!-- Generator: Adobe Illustrator 19.0.0, SVG Export Plug-In . SVG Version: 6.00 Build 0)  -->
<svg version="1.1" id="Layer_1" xmlns="http://www.w3.org/2000/svg" xmlns:xlink="http://www.w3.org/1999/xlink" x="0px" y="0px"
	 viewBox="0 0 390.5 484" style="enable-background:new 0 0 390.5 484;" xml:space="preserve">
<style type="text/css">
	.st0{fill:none;stroke:#C73D56;stroke-width:10;stroke-miterlimit:10;}
	.st1{fill:#066641;}
	.st2{fill:#C73D56;}
	.st3{fill:#9D2B45;}
</style>
<g id="XMLID_1_">
	<path id="XMLID_67_" class="st0" d="M371.8,479H63.2c-7.2,0-13-5.8-13-13V59.5c0-7.2,5.8-13,13-13h308.6c7.2,0,13,5.8,13,13V466
		C384.8,473.2,379,479,371.8,479z"/>
</g>
<g id="XMLID_2_">
	<path id="XMLID_65_" class="st1" d="M81.3,391.1v16.8H64.4l-49.9-49.7l16.9-16.8L81.3,391.1z M1.3,345.3c-1.8-1.8-1.8-4.6,0-6.3
		l10.6-10.5c1.8-1.8,4.6-1.8,6.4,0l8.3,8.2L9.6,353.5L1.3,345.3z"/>
</g>
<g id="XMLID_3_">
	<g id="XMLID_102_">
		<path id="XMLID_64_" class="st1" d="M123.8,129.5c2,0,3.7,1.7,3.7,3.8s-1.6,3.8-3.7,3.8s-3.7-1.7-3.7-3.8S121.7,129.5,123.8,129.5
			 M123.8,145.6c5.2,0,10.6,2.6,10.6,3.8v2h-21.2v-2C113.1,148.2,118.6,145.6,123.8,145.6 M123.8,126.1c-3.8,0-7,3.2-7,7.2
			s3.1,7.2,7,7.2s7-3.2,7-7.2S127.6,126.1,123.8,126.1z M123.8,142.2c-4.7,0-13.9,2.4-13.9,7.2v5.4h27.9v-5.4
			C137.7,144.6,128.4,142.2,123.8,142.2z"/>
	</g>
	<g id="XMLID_6_">
		<path id="XMLID_63_" class="st1" d="M123.8,186.7c2,0,3.7,1.7,3.7,3.8s-1.6,3.8-3.7,3.8s-3.7-1.7-3.7-3.8S121.7,186.7,123.8,186.7
			 M123.8,202.7c5.2,0,10.6,2.6,10.6,3.8v2h-21.2v-2C113.1,205.3,118.6,202.7,123.8,202.7 M123.8,183.3c-3.8,0-7,3.2-7,7.2
			c0,4,3.1,7.2,7,7.2s7-3.2,7-7.2C130.7,186.5,127.6,183.3,123.8,183.3z M123.8,199.3c-4.7,0-13.9,2.4-13.9,7.2v5.4h27.9v-5.4
			C137.7,201.7,128.4,199.3,123.8,199.3z"/>
	</g>
	<g id="XMLID_7_">
		<path id="XMLID_62_" class="st1" d="M123.8,243.8c2,0,3.7,1.7,3.7,3.8s-1.6,3.8-3.7,3.8s-3.7-1.7-3.7-3.8S121.7,243.8,123.8,243.8
			 M123.8,259.9c5.2,0,10.6,2.6,10.6,3.8v2h-21.2v-2C113.1,262.5,118.6,259.9,123.8,259.9 M123.8,240.4c-3.8,0-7,3.2-7,7.2
			c0,4,3.1,7.2,7,7.2s7-3.2,7-7.2C130.7,243.6,127.6,240.4,123.8,240.4z M123.8,256.5c-4.7,0-13.9,2.4-13.9,7.2v5.4h27.9v-5.4
			C137.7,258.9,128.4,256.5,123.8,256.5z"/>
	</g>
	<g id="XMLID_13_">
		<path id="XMLID_61_" class="st1" d="M123.8,301c2,0,3.7,1.7,3.7,3.8c0,2.1-1.6,3.8-3.7,3.8s-3.7-1.7-3.7-3.8
			C120.1,302.7,121.7,301,123.8,301 M123.8,317.1c5.2,0,10.6,2.6,10.6,3.8v2h-21.2v-2C113.1,319.7,118.6,317.1,123.8,317.1
			 M123.8,297.6c-3.8,0-7,3.2-7,7.2c0,4,3.1,7.2,7,7.2s7-3.2,7-7.2C130.7,300.8,127.6,297.6,123.8,297.6z M123.8,313.7
			c-4.7,0-13.9,2.4-13.9,7.2v5.4h27.9v-5.4C137.7,316.1,128.4,313.7,123.8,313.7z"/>
	</g>
	<g id="XMLID_18_">
		<path id="XMLID_60_" class="st1" d="M123.8,358.2c2,0,3.7,1.7,3.7,3.8c0,2.1-1.6,3.8-3.7,3.8s-3.7-1.7-3.7-3.8
			C120.1,359.9,121.7,358.2,123.8,358.2 M123.8,374.3c5.2,0,10.6,2.6,10.6,3.8v2h-21.2v-2C113.1,376.9,118.6,374.3,123.8,374.3
			 M123.8,354.8c-3.8,0-7,3.2-7,7.2c0,4,3.1,7.2,7,7.2s7-3.2,7-7.2C130.7,358,127.6,354.8,123.8,354.8z M123.8,370.9
			c-4.7,0-13.9,2.4-13.9,7.2v5.4h27.9V378C137.7,373.3,128.4,370.9,123.8,370.9z"/>
	</g>
	<g id="XMLID_28_">
		<path id="XMLID_57_" class="st1" d="M324.5,145.3l-5.2-5.3l-1.7,1.8l6.9,7.1l14.8-15.2l-1.7-1.8L324.5,145.3z"/>
	</g>
	<g id="XMLID_37_">
		<path id="XMLID_105_" class="st2" d="M239.6,148.6h-79.3c-1.1,0-2-0.9-2-2l0,0c0-1.1,0.9-2,2-2h79.3c1.1,0,2,0.9,2,2l0,0
			C241.6,147.7,240.7,148.6,239.6,148.6z"/>
	</g>
	<g id="XMLID_38_">
		<path id="XMLID_103_" class="st2" d="M281,137.9H160.3c-1.1,0-2-0.9-2-2v0c0-1.1,0.9-2,2-2H281c1.1,0,2,0.9,2,2v0
			C283,137,282.1,137.9,281,137.9z"/>
	</g>
	<g id="XMLID_35_">
		<path id="XMLID_56_" class="st1" d="M324.5,207.7l-5.2-5.3l-1.7,1.8l6.9,7.1l14.8-15.2l-1.7-1.8L324.5,207.7z"/>
	</g>
	<g id="XMLID_34_">
		<path id="XMLID_98_" class="st2" d="M239.6,211h-79.3c-1.1,0-2-0.9-2-2v0c0-1.1,0.9-2,2-2h79.3c1.1,0,2,0.9,2,2v0
			C241.6,210.1,240.7,211,239.6,211z"/>
	</g>
	<g id="XMLID_33_">
		<path id="XMLID_96_" class="st2" d="M281,200.3H160.3c-1.1,0-2-0.9-2-2l0,0c0-1.1,0.9-2,2-2H281c1.1,0,2,0.9,2,2l0,0
			C283,199.4,282.1,200.3,281,200.3z"/>
	</g>
	<g id="XMLID_40_">
		<path id="XMLID_55_" class="st1" d="M324.5,264.9l-5.2-5.3l-1.7,1.8l6.9,7.1l14.8-15.2l-1.7-1.8L324.5,264.9z"/>
	</g>
	<g id="XMLID_39_">
		<path id="XMLID_92_" class="st2" d="M239.6,268.1h-79.3c-1.1,0-2-0.9-2-2v0c0-1.1,0.9-2,2-2h79.3c1.1,0,2,0.9,2,2v0
			C241.6,267.2,240.7,268.1,239.6,268.1z"/>
	</g>
	<g id="XMLID_36_">
		<path id="XMLID_90_" class="st2" d="M281,257.5H160.3c-1.1,0-2-0.9-2-2v0c0-1.1,0.9-2,2-2H281c1.1,0,2,0.9,2,2v0
			C283,256.6,282.1,257.5,281,257.5z"/>
	</g>
	<g id="XMLID_43_">
		<path id="XMLID_54_" class="st1" d="M324.5,322l-5.2-5.3l-1.7,1.8l6.9,7.1l14.8-15.2l-1.7-1.8L324.5,322z"/>
	</g>
	<g id="XMLID_42_">
		<path id="XMLID_86_" class="st2" d="M239.6,325.3h-79.3c-1.1,0-2-0.9-2-2l0,0c0-1.1,0.9-2,2-2h79.3c1.1,0,2,0.9,2,2l0,0
			C241.6,324.4,240.7,325.3,239.6,325.3z"/>
	</g>
	<g id="XMLID_41_">
		<path id="XMLID_84_" class="st2" d="M281,314.7H160.3c-1.1,0-2-0.9-2-2l0,0c0-1.1,0.9-2,2-2H281c1.1,0,2,0.9,2,2l0,0
			C283,313.8,282.1,314.7,281,314.7z"/>
	</g>
	<g id="XMLID_46_">
		<path id="XMLID_53_" class="st1" d="M324.5,379.2l-5.2-5.3l-1.7,1.8l6.9,7.1l14.8-15.2l-1.7-1.8L324.5,379.2z"/>
	</g>
	<g id="XMLID_45_">
		<path id="XMLID_80_" class="st2" d="M239.6,382.5h-79.3c-1.1,0-2-0.9-2-2l0,0c0-1.1,0.9-2,2-2h79.3c1.1,0,2,0.9,2,2l0,0
			C241.6,381.6,240.7,382.5,239.6,382.5z"/>
	</g>
	<g id="XMLID_44_">
		<path id="XMLID_78_" class="st2" d="M281,371.9H160.3c-1.1,0-2-0.9-2-2l0,0c0-1.1,0.9-2,2-2H281c1.1,0,2,0.9,2,2l0,0
			C283,371,282.1,371.9,281,371.9z"/>
	</g>
</g>
<g id="XMLID_29_">
	<g id="XMLID_31_">
		<path id="XMLID_32_" class="st2" d="M285.9,21.5h-45.7c0.3,1.4,0.5,2.9,0.5,4.4c0,11.5-9.3,20.8-20.8,20.8
			c-11.5,0-20.8-9.3-20.8-20.8c0-1.5,0.2-3,0.5-4.4h-52.1c-2.2,0-4.1,1.8-4.1,4.1v34.2c0,2.2,1.8,4.1,4.1,4.1h138.5
			c2.2,0,4.1-1.8,4.1-4.1V25.6C290,23.3,288.1,21.5,285.9,21.5z"/>
	</g>
	<g id="XMLID_70_">
		<path id="XMLID_30_" class="st3" d="M285.9,64.3H147.4c-2.5,0-4.5-2-4.5-4.5V25.6c0-2.5,2-4.5,4.5-4.5h52.7l-0.1,0.6
			c-0.3,1.4-0.5,2.8-0.5,4.3c0,11.2,9.1,20.4,20.4,20.4s20.4-9.1,20.4-20.4c0-1.4-0.2-2.9-0.5-4.3l-0.1-0.6h46.3
			c2.5,0,4.5,2,4.5,4.5v34.2C290.4,62.3,288.4,64.3,285.9,64.3z M147.4,22c-2,0-3.6,1.6-3.6,3.6v34.2c0,2,1.6,3.6,3.6,3.6h138.5
			c2,0,3.6-1.6,3.6-3.6V25.6c0-2-1.6-3.6-3.6-3.6h-45.1c0.2,1.3,0.4,2.6,0.4,3.9c0,11.7-9.6,21.3-21.3,21.3s-21.3-9.6-21.3-21.3
			c0-1.3,0.1-2.6,0.4-3.9H147.4z"/>
	</g>
</g>
<path id="XMLID_79_" class="st2" d="M219.9,53.2c-15.1,0-27.3-12.3-27.3-27.3c0-15.1,12.3-27.3,27.3-27.3s27.3,12.3,27.3,27.3
	C247.2,41,234.9,53.2,219.9,53.2z M219.9,11.6c-7.9,0-14.3,6.4-14.3,14.3c0,7.9,6.4,14.3,14.3,14.3c7.9,0,14.3-6.4,14.3-14.3
	C234.2,18,227.7,11.6,219.9,11.6z"/>
</svg>
