<?xml version="1.0" encoding="utf-8"?>
<!-- Generator: Adobe Illustrator 19.0.0, SVG Export Plug-In . SVG Version: 6.00 Build 0)  -->
<svg version="1.1" id="Card" xmlns="http://www.w3.org/2000/svg" xmlns:xlink="http://www.w3.org/1999/xlink" x="0px" y="0px"
	 viewBox="0 0 419.5 595.3" style="enable-background:new 0 0 419.5 595.3;" xml:space="preserve">
<style type="text/css">
	.st0{fill:#FFFFFF;}
	.st1{fill:#F0555A;}
	.st2{fill:#2BB994;}
	.st3{fill:#602A31;}
	.st4{fill:#77494A;}
	.st5{fill:#F9AE94;}
	.st6{fill:#EB3D47;}
	.st7{fill:#1B5047;}
	.st8{clip-path:url(#XMLID_75_);}
	.st9{opacity:0.2;}
	.st10{fill:#345F52;}
	.st11{fill-rule:evenodd;clip-rule:evenodd;fill:#B4DFCF;}
</style>
<g id="XMLID_1_">
	<g id="XMLID_2_">
		<g id="XMLID_270_">
			<path id="XMLID_790_" class="st0" d="M273.1,110.8c-23.5-0.9-71.9-1.8-77.8,3.2c-14,11.8-7.4,36-7.4,36l-2.9-2.6
				c-0.7-6.8-1.1-8.6-2.3-16.1c-1-6.8-1.6-13-5.4-18.9"/>
			<path id="XMLID_788_" class="st0" d="M169.3,69.5"/>
		</g>
		<g id="XMLID_3_">
			<g id="XMLID_128_">
				<g id="XMLID_85_">
					<g id="XMLID_7_">
						<g id="XMLID_68_">
							<polygon id="XMLID_9_" class="st1" points="102.7,252.7 73.5,311.3 75.2,323.8 92.3,320.3 127.1,250.7 							"/>
						</g>
						<g id="XMLID_70_">
							<polygon id="XMLID_10_" class="st0" points="139.3,249.7 127.1,250.7 92.3,320.3 105.4,317.6 							"/>
						</g>
					</g>
					<g id="XMLID_87_">
						<polygon id="XMLID_11_" class="st2" points="164.6,247.6 132.4,312 145.5,309.3 176.8,246.6 						"/>
					</g>
					<g id="XMLID_88_">
						<polygon id="XMLID_12_" class="st2" points="90.5,253.7 70.9,292.9 73.5,311.3 102.7,252.7 						"/>
					</g>
					<g id="XMLID_89_">
						<polygon id="XMLID_13_" class="st1" points="65.8,255.8 70.9,292.9 90.5,253.7 						"/>
					</g>
					<g id="XMLID_90_">
						<polygon id="XMLID_14_" class="st1" points="139.3,249.7 105.4,317.6 132.4,312 164.6,247.6 						"/>
					</g>
					<g id="XMLID_91_">
						<polygon id="XMLID_15_" class="st1" points="176.8,246.6 145.5,309.3 185.5,301.1 214.2,243.5 						"/>
					</g>
					<g id="XMLID_92_">
						<polygon id="XMLID_16_" class="st1" points="266.6,256.6 251.1,287.7 271.3,283.5 						"/>
					</g>
					<g id="XMLID_93_">
						<polygon id="XMLID_17_" class="st2" points="263.7,239.5 263.5,239.5 238.1,290.3 251.1,287.7 266.6,256.6 						"/>
					</g>
					<g id="XMLID_94_">
						<polygon id="XMLID_18_" class="st1" points="226.4,242.5 198.5,298.5 238.1,290.3 263.5,239.5 						"/>
					</g>
					<g id="XMLID_95_">
						<polygon id="XMLID_19_" class="st0" points="214.2,243.5 185.5,301.1 198.5,298.5 226.4,242.5 						"/>
					</g>
				</g>
				<g id="XMLID_6_">
					<polygon id="XMLID_8_" class="st3" points="66.9,281.6 274.9,254.2 274.9,262.3 70.6,305.4 					"/>
				</g>
				<g id="XMLID_20_">
					<polygon id="XMLID_1563_" class="st3" points="268.4,254.7 292.8,229.2 299.7,240 273.7,257 					"/>
				</g>
				<g id="XMLID_21_">
					<polygon id="XMLID_1561_" class="st3" points="269.4,263.2 276.5,259.6 320,267.8 310.4,281.4 					"/>
				</g>
				<g id="XMLID_22_">
					<polygon id="XMLID_1559_" class="st4" points="268.4,254.7 278.9,253.6 280,262.7 269.4,263.2 					"/>
				</g>
			</g>
			<g id="XMLID_129_">
				<g id="XMLID_36_">
					<g id="XMLID_39_">
						<path id="XMLID_1550_" class="st2" d="M271.9,401.5c1.7,0,3.3,0.4,4.7,1.1l-3.8-23.7c-0.6,0.1-1.2,0.1-1.9,0.1
							c-6.4-0.2-11.5-5.1-11.3-11c0.2-5.2,4.4-9.5,9.8-10.3l-3.8-23.8l-83,12.5l1.9,13c1.2-0.5,2.5-0.8,3.9-0.7
							c4.9,0.1,8.7,3.9,8.6,8.4c-0.1,4.5-4.2,8.1-9.1,7.9c-0.4,0-0.8,0-1.1-0.1l2.8,19.7c0.9-0.6,2.1-1,3.3-1c3,0.1,5.3,2.4,5.3,5.1
							c-0.1,2.8-2.6,4.9-5.6,4.8c-0.6,0-1.2-0.2-1.8-0.4l3.1,21.1l26-3.3c-0.2-0.7-0.3-1.4-0.3-2.2c0.1-4.6,4.3-8.1,9.2-8
							c4.8,0.1,8.6,3.7,8.7,8L261,416c-0.6-1.3-0.9-2.8-0.9-4.3C260.3,405.9,265.6,401.3,271.9,401.5z M214.6,356.4
							c3.4,0.1,6.1,2.7,6,5.9c-0.1,3.2-2.9,5.6-6.4,5.6c-3.4-0.1-6.1-2.7-6-5.9S211.2,356.3,214.6,356.4z M206.5,417.1
							c-2.8-0.1-5-2.2-4.9-4.7c0.1-2.6,2.4-4.6,5.2-4.5c2.8,0.1,5,2.2,4.9,4.7C211.6,415.2,209.3,417.2,206.5,417.1z M219.6,398.2
							c-5.8-0.1-10.3-4.6-10.1-9.9s5-9.5,10.7-9.3c5.8,0.1,10.3,4.6,10.1,9.9C230.1,394.1,225.3,398.3,219.6,398.2z M240.2,376.4
							c-1.3,0-2.2-1-2.2-2.1c0-1.2,1.1-2.1,2.3-2c1.3,0,2.2,1,2.2,2.1C242.5,375.6,241.4,376.5,240.2,376.4z M249.6,400.9
							c-3.5-0.1-6.2-2.8-6.1-6c0.1-3.2,3-5.7,6.5-5.6c3.5,0.1,6.2,2.8,6.1,6C256,398.5,253.1,401,249.6,400.9z"/>
					</g>
					<g id="XMLID_44_">
						<path id="XMLID_1548_" class="st3" d="M220.1,379c-5.8-0.1-10.6,4-10.7,9.3s4.4,9.7,10.1,9.9c5.8,0.1,10.6-4,10.7-9.3
							C230.4,383.5,225.9,379.1,220.1,379z"/>
					</g>
					<g id="XMLID_45_">
						<path id="XMLID_1546_" class="st1" d="M214.3,367.8c3.4,0.1,6.3-2.4,6.4-5.6c0.1-3.2-2.6-5.8-6-5.9c-3.4-0.1-6.3,2.4-6.4,5.6
							S210.8,367.7,214.3,367.8z"/>
					</g>
					<g id="XMLID_46_">
						<path id="XMLID_1544_" class="st1" d="M240.3,372.3c-1.3,0-2.3,0.9-2.3,2c0,1.2,1,2.1,2.2,2.1c1.3,0,2.3-0.9,2.3-2
							C242.6,373.3,241.6,372.3,240.3,372.3z"/>
					</g>
					<g id="XMLID_47_">
						<path id="XMLID_1542_" class="st0" d="M250,389.3c-3.5-0.1-6.4,2.4-6.5,5.6c-0.1,3.2,2.6,5.9,6.1,6c3.5,0.1,6.4-2.4,6.5-5.6
							C256.2,392.1,253.4,389.4,250,389.3z"/>
					</g>
					<g id="XMLID_49_">
						<path id="XMLID_1540_" class="st3" d="M259.7,368c-0.2,5.9,4.9,10.8,11.3,11c0.6,0,1.3,0,1.9-0.1l-3.4-21.1
							C264,358.6,259.8,362.8,259.7,368z"/>
					</g>
					<g id="XMLID_51_">
						<path id="XMLID_1538_" class="st1" d="M276.6,402.6c-1.4-0.7-3-1-4.7-1.1c-6.3-0.2-11.6,4.4-11.7,10.2c0,1.5,0.3,3,0.9,4.3
							l17.4-2.2L276.6,402.6z"/>
					</g>
					<g id="XMLID_53_">
						<path id="XMLID_1536_" class="st3" d="M228.9,410.9c-4.9-0.1-9.1,3.5-9.2,8c0,0.8,0.1,1.5,0.3,2.2l17.6-2.2
							C237.5,414.6,233.7,411,228.9,410.9z"/>
					</g>
					<g id="XMLID_54_">
						<path id="XMLID_1534_" class="st0" d="M206.8,407.9c-2.8-0.1-5.1,1.9-5.2,4.5c-0.1,2.6,2.1,4.7,4.9,4.7
							c2.8,0.1,5.1-1.9,5.2-4.5C211.7,410.1,209.5,407.9,206.8,407.9z"/>
					</g>
					<g id="XMLID_56_">
						<path id="XMLID_1532_" class="st1" d="M198.3,398.8c0.1-2.8-2.3-5-5.3-5.1c-1.3,0-2.4,0.3-3.3,1l1.2,8.6
							c0.6,0.2,1.2,0.3,1.8,0.4C195.7,403.7,198.2,401.6,198.3,398.8z"/>
					</g>
					<g id="XMLID_58_">
						<path id="XMLID_1530_" class="st3" d="M197,367.2c0.1-4.5-3.7-8.3-8.6-8.4c-1.4,0-2.7,0.2-3.9,0.7l2.2,15.5
							c0.4,0.1,0.7,0.1,1.1,0.1C192.8,375.2,196.9,371.7,197,367.2z"/>
					</g>
					<g id="XMLID_27_">
						<path id="XMLID_1528_" class="st0" d="M252.9,357.2c-0.1,2.5-2.3,4.5-5.1,4.4c-2.7-0.1-4.9-2.2-4.8-4.7
							c0.1-2.5,2.3-4.5,5.1-4.4C250.8,352.6,253,354.7,252.9,357.2z"/>
					</g>
				</g>
				<g id="XMLID_23_">
					<path id="XMLID_1525_" class="st1" d="M270.8,304.7l5.1,28.8c0,0-29.6,8.3-54.1,11.7c-24.5,3.4-50.1,4-50.1,4l-4.2-27.9
						L270.8,304.7z"/>
				</g>
				<g id="XMLID_24_">
					<path id="XMLID_485_" class="st3" d="M221.8,321.9c19.4-3,49.3-8.2,49-17.3c-0.3-9.1-29.9-7.1-53.7-3.2s-49.4,10.9-49.6,19.8
						C167.2,330.2,202.4,324.9,221.8,321.9z"/>
					<path id="XMLID_487_" class="st5" d="M181.7,327.3c-6.4,0-11.4-0.7-13.8-2.6c-1.1-0.9-1.7-2.1-1.7-3.4
						c0.3-10.9,31.8-17.7,50.6-20.8c10.1-1.7,43.7-6.6,52.7,0.1c1.5,1.1,2.3,2.5,2.3,4.1c0.3,9.4-25.1,14.6-50,18.4
						C207.7,325.2,192.6,327.3,181.7,327.3z M251.1,299.3c-9,0-20.6,1.1-33.7,3.3c-29.8,4.9-48.5,12.1-48.7,18.7
						c0,0.7,0.2,1.2,0.8,1.7c6.1,4.9,37.2,0.1,52.1-2.1c11.9-1.8,48.3-7.4,48-16.2c0-1-0.5-1.8-1.5-2.5
						C265.5,300.3,259.5,299.3,251.1,299.3z"/>
				</g>
				<g id="XMLID_25_">
					<path id="XMLID_26_" class="st2" d="M211.5,313.8c0,0-0.7-0.1-2-0.2c-1.3-0.2-3.2-0.4-5.6-0.9c-1.2-0.3-2.5-0.6-3.9-1.1
						c-0.7-0.3-1.4-0.6-2.1-1c-0.7-0.4-1.4-1-1.6-2c-0.1-0.5,0.1-1,0.3-1.4c0.3-0.5,0.7-0.8,1.1-1c0.9-0.5,1.9-0.6,2.9-0.7
						c2-0.2,4,0.1,6.1,0.5c1,0.2,2.1,0.5,3.2,0.9c0.5,0.2,1.1,0.4,1.6,0.8c0.3,0.2,0.6,0.3,0.8,0.8c0.1,0.1,0.1,0.2,0.1,0.4
						c0,0.2,0,0.3-0.1,0.5l-0.1,0.1c0.1-0.1-0.2,0.2-0.1,0.2l-0.1,0.1c0,0-0.2,0.2-0.4,0.3c-0.2,0.1-0.3,0.1-0.5,0.1
						c-0.1,0-0.2,0-0.3,0c-0.2,0-0.4,0-0.6-0.1c-0.3-0.1-0.6-0.2-0.9-0.3c-0.6-0.2-1.1-0.5-1.6-0.8c-1-0.6-2-1.2-3-1.9
						c-1-0.7-1.9-1.4-2.8-2.2c-0.9-0.8-1.8-1.6-2.6-2.7c-0.2-0.3-0.4-0.6-0.5-1l-0.1-0.3c0-0.1,0-0.3,0-0.4c0-0.1,0-0.3,0.1-0.5
						c-0.1,0.1,0.2-0.3,0.1-0.3l0,0l0.1-0.1c0.1-0.1,0.3-0.3,0.5-0.4c0.1-0.1,0.2-0.1,0.3-0.1l0.2,0c0.3-0.1,0.5-0.1,0.7-0.1
						c0.4,0,0.8,0,1.1,0.1c1.4,0.2,2.6,0.6,3.9,1c2.5,0.8,5,1.8,7.4,3c1.2,0.6,2.4,1.2,3.6,2.1c0.3,0.2,0.6,0.4,0.9,0.8
						c0.1,0.1,0.3,0.4,0.4,0.6c0.1,0.2,0.1,0.4,0.1,0.6c0,0.3-0.1,0.6-0.3,0.8c0.1-0.1-0.3,0.3-0.5,0.4c-0.1,0-0.3,0.1-0.4,0.1
						c-0.1,0-0.2,0-0.3,0c-0.4-0.1-0.6-0.2-0.7-0.3c-0.3-0.2-0.4-0.3-0.6-0.5c-0.3-0.3-0.5-0.6-0.7-0.9c-1.5-2.3-2.5-4.7-3.4-7.2
						c-0.4-1.3-0.8-2.5-1-3.9c-0.2-1.3-0.4-2.7,0.2-4.4c0.3-0.8,1.2-1.7,2.4-1.9c0.2,0,0.3-0.1,0.6-0.1c0.3,0,0.6,0,0.8,0.1
						c0.5,0.1,0.9,0.3,1.3,0.4c1.5,0.8,2.4,1.9,3.3,2.9c1.7,2.2,3,4.5,4,6.9c0.5,1.2,0.9,2.4,1.3,3.7c0.1,0.7,0.3,1.3,0.3,2.1
						c0,0.4,0,0.8-0.3,1.3c-0.1,0.3-0.4,0.6-0.9,0.8c-0.2,0.1-0.5,0.1-0.8,0c-0.1,0-0.3-0.1-0.4-0.2c-0.1-0.1-0.2-0.1-0.2-0.2
						c-0.2-0.2-0.3-0.4-0.3-0.5c-0.2-0.5-0.2-0.8-0.2-1.2c0-0.3,0-0.7,0-1c0-0.6,0.1-1.3,0.2-1.9c0.2-1.2,0.4-2.5,0.7-3.7
						c0.6-2.4,1.2-4.7,2.5-6.9c0.3-0.5,0.7-1.1,1.3-1.6c0.3-0.2,0.7-0.5,1.1-0.6c0.5-0.1,1.1-0.1,1.5,0.1c0.2,0.1,0.1,0,0.1,0.1l0,0
						l0.1,0.1c0.1,0,0.1,0.1,0.2,0.1c0.2,0.1,0.4,0.3,0.5,0.4c0.3,0.3,0.5,0.6,0.7,0.9c0.3,0.6,0.5,1.2,0.7,1.8
						c0.5,2.3,0.4,4.5,0.1,6.6c-0.2,1.1-0.4,2.1-0.7,3.1c-0.2,0.5-0.3,1-0.6,1.5c-0.1,0.2-0.3,0.5-0.4,0.7c-0.2,0.2-0.4,0.5-0.9,0.7
						c-0.2,0.1-0.6,0.1-0.8,0l-0.2-0.1c0,0-0.2-0.1-0.1-0.1l0,0c-0.1-0.1-0.1,0-0.2-0.2c-0.4-0.5-0.4-0.9-0.3-1.2
						c0.2-0.6,0.6-1,0.9-1.4c0.7-0.7,1.5-1.3,2.4-1.8c1.7-0.9,3.4-1.7,5.3-1.7c0.5,0,1,0.1,1.4,0.3c0.2,0.1,0.4,0.2,0.6,0.4l0.4,0.4
						c0.6,0.8,0.4,1.6,0.2,2.3c-0.4,1.4-1.3,2.4-2.1,3.3c-1.6,1.7-3.1,2.8-4.2,3.5c-0.5,0.4-0.9,0.6-1.2,0.8
						c-0.3,0.2-0.4,0.3-0.4,0.3s0.1-0.1,0.4-0.3c0.3-0.2,0.7-0.5,1.2-0.8c1-0.8,2.4-1.9,3.9-3.7c0.7-0.9,1.5-1.9,1.8-3.1
						c0.2-0.6,0.1-1.3-0.2-1.7c-0.1-0.1-0.3-0.3-0.4-0.4c-0.1,0-0.2-0.2-0.4-0.2c-0.3-0.1-0.7-0.2-1-0.2c-1.5,0.1-3.2,0.8-4.7,1.8
						c-0.7,0.5-1.5,1-2.1,1.7c-0.3,0.3-0.6,0.7-0.6,0.9c-0.1,0.1,0,0.2-0.1,0.1c0,0,0.1,0.1,0.1,0.1l0,0c0,0-0.1-0.1-0.1,0
						c0,0,0,0,0,0c0,0,0,0-0.1,0c0,0,0,0,0,0c0,0,0.1-0.1,0.2-0.3c0.1-0.2,0.2-0.4,0.3-0.6c0.2-0.4,0.3-0.9,0.5-1.3
						c0.3-0.9,0.4-1.9,0.5-2.9c0.2-2,0.2-4.1-0.3-6.1c-0.3-1-0.8-1.9-1.4-2.1c-0.1,0-0.2,0-0.3,0c-0.1,0-0.3,0.1-0.4,0.3
						c-0.3,0.3-0.6,0.7-0.9,1.2c-1,1.9-1.7,4.2-2.2,6.5c-0.2,1.1-0.5,2.3-0.6,3.5c-0.1,0.6-0.1,1.2-0.1,1.8c0,0.3,0,0.6,0,0.8
						c0,0.3,0.1,0.6,0.1,0.6c0,0,0,0-0.1-0.1c0,0-0.1-0.1-0.1-0.1c-0.1,0-0.2-0.1-0.3-0.1c-0.2-0.1-0.4,0-0.5,0
						c-0.2,0.1-0.3,0.2-0.3,0.2c0,0,0.1-0.3,0.1-0.5c0-0.5-0.1-1.1-0.3-1.6c-0.3-1.1-0.7-2.3-1.2-3.4c-1-2.3-2.2-4.5-3.8-6.4
						c-0.8-0.9-1.7-1.9-2.6-2.3c-0.2-0.1-0.5-0.2-0.7-0.2c-0.1,0-0.2,0-0.2,0c0,0-0.2,0-0.4,0c-0.2,0-0.4,0.2-0.6,0.6
						c-0.4,0.8-0.3,2.1-0.1,3.2c0.2,1.2,0.5,2.4,0.9,3.6c0.8,2.3,1.8,4.7,3.1,6.8c0.2,0.2,0.3,0.5,0.5,0.7c0.1,0.1,0.2,0.2,0.2,0.2
						s0,0,0,0c-0.1,0-0.1,0-0.2-0.1c-0.1,0-0.1,0-0.2,0c-0.1,0-0.2,0-0.3,0.1c-0.2,0-0.5,0.4-0.3,0.3c-0.1,0.1-0.2,0.2-0.1,0.4
						c0,0.1,0,0.1,0,0.2c0,0,0-0.1-0.1-0.1c-0.1-0.2-0.4-0.3-0.6-0.5c-0.9-0.7-2.1-1.3-3.2-1.9c-2.3-1.2-4.7-2.2-7.1-3
						c-1.2-0.4-2.4-0.8-3.5-0.9c-0.3,0-0.5-0.1-0.8-0.1c-0.1,0-0.2,0-0.2,0l0,0c0,0,0,0,0,0c0,0,0.1-0.1,0.1-0.1c0,0,0.1-0.1,0-0.1
						l-0.1,0.1l0,0c0,0.1,0.2-0.4,0.1-0.2c0,0,0-0.1,0,0c0,0,0,0,0,0l0,0.1c0,0.2,0.2,0.4,0.3,0.6c0.6,0.9,1.4,1.7,2.2,2.5
						c0.8,0.8,1.7,1.5,2.6,2.2c0.9,0.7,1.8,1.3,2.8,1.9c0.5,0.3,0.9,0.5,1.4,0.7c0.2,0.1,0.5,0.2,0.7,0.2c0.1,0,0.2,0,0.3,0.1
						c0,0,0.1,0,0.1,0c0,0,0.1,0,0,0c-0.1,0-0.1,0.2,0,0.1l0.1-0.1c0,0-0.2,0.2-0.1,0.1l0,0c0,0,0,0.1,0,0.1c0,0,0,0,0,0l0,0
						c0,0-0.2-0.2-0.3-0.3c-0.4-0.2-0.8-0.5-1.3-0.7c-0.9-0.4-1.9-0.7-2.9-0.9c-2-0.5-3.9-0.7-5.7-0.6c-1.8,0-3.6,0.6-3.5,2
						c0.1,0.6,0.6,1.1,1.2,1.5c0.6,0.4,1.3,0.7,1.9,1c1.3,0.5,2.6,0.9,3.7,1.2c2.3,0.6,4.2,1,5.5,1.2
						C210.9,313.7,211.5,313.8,211.5,313.8z"/>
				</g>
				<g id="XMLID_28_">
					<g id="XMLID_29_">
						<polygon id="XMLID_1516_" class="st5" points="279.3,321.5 289.8,304.6 321.5,317.5 309.3,336.7 						"/>
					</g>
					<g id="XMLID_30_">
						<path id="XMLID_486_" class="st6" d="M290,315.6c-11.6-9.5-21.5-11.5-27.8-11.5c0,0,0,0-0.1,0c-6.8,0-10.8,2.2-10.9,2.3
							l-0.6-0.9c0.2-0.1,17.3-9.4,40.1,9.4L290,315.6z"/>
					</g>
					<g id="XMLID_31_">
						<path id="XMLID_477_" class="st0" d="M294.1,316.8c0,1-0.9,1.7-1.9,1.7s-1.8-0.8-1.8-1.8c0-1,0.9-1.7,1.9-1.7
							C293.3,315,294.1,315.8,294.1,316.8z"/>
						<path id="XMLID_482_" class="st6" d="M292.2,319C292.2,319,292.2,319,292.2,319c-0.7,0-1.3-0.3-1.8-0.7
							c-0.5-0.4-0.7-1-0.7-1.6c0-0.6,0.3-1.2,0.8-1.6c0.5-0.4,1.1-0.6,1.8-0.6c0.7,0,1.3,0.3,1.7,0.7c0.5,0.4,0.7,1,0.7,1.6
							c0,0.6-0.3,1.2-0.8,1.6C293.4,318.8,292.8,319,292.2,319z M292.2,315.5c-0.7,0-1.3,0.5-1.3,1.1c0,0.3,0.1,0.6,0.3,0.8
							c0.2,0.2,0.6,0.4,0.9,0.4c0.3,0,0.7-0.1,0.9-0.3c0.2-0.2,0.4-0.5,0.4-0.8l0,0c0-0.3-0.1-0.6-0.3-0.8
							C292.9,315.7,292.6,315.6,292.2,315.5C292.2,315.5,292.2,315.5,292.2,315.5z"/>
					</g>
				</g>
			</g>
			<g id="XMLID_5_">
				<polygon id="XMLID_32_" class="st2" points="47.4,314 29.1,307.5 27.4,312.3 				"/>
			</g>
			<g id="XMLID_33_">
				<polygon id="XMLID_34_" class="st2" points="48.5,338.7 33,348.3 37.4,353.4 				"/>
			</g>
			<g id="XMLID_143_">
				<g id="XMLID_48_">
					<polygon id="XMLID_50_" class="st2" points="27.4,330.5 30,336.1 50.7,323.8 					"/>
				</g>
				<g id="XMLID_114_">
					<g id="XMLID_55_">
						<polygon id="XMLID_57_" class="st6" points="316.5,211.9 326.9,215.9 328.6,213.9 						"/>
					</g>
					<g id="XMLID_59_">
						<polygon id="XMLID_60_" class="st6" points="311.2,201.3 333.1,201.3 333.1,196.6 						"/>
					</g>
					<g id="XMLID_61_">
						<polygon id="XMLID_62_" class="st6" points="314.2,188.7 328.6,183 326,179.2 						"/>
					</g>
				</g>
			</g>
			<g id="XMLID_134_">
				<g id="XMLID_52_">
					<g id="XMLID_63_">
						<polygon id="XMLID_64_" class="st3" points="49.7,144.8 63.8,246 140,238.4 140,136.1 						"/>
					</g>
					<g id="XMLID_65_">
						<path id="XMLID_66_" class="st2" d="M75.6,139.4c-8.5-3.7-17-7.6-25.1-12c-4.1-2.2-8.1-4.5-11.9-7.1c-1.9-1.3-3.8-2.7-5.4-4.4
							c-0.8-0.9-1.6-1.8-1.9-3.2c-0.1-0.7,0-1.5,0.5-2.1c0.1-0.1,0.1-0.2,0.3-0.3c0.1-0.1,0.3-0.3,0.4-0.4c0.3-0.2,0.6-0.4,0.9-0.5
							c1.2-0.6,2.5-0.9,3.7-1c1.2-0.2,2.4-0.2,3.7-0.2c2.4,0,4.8,0.2,7.2,0.6c4.7,0.7,9.4,1.7,13.9,2.9c4.5,1.3,9,2.8,13.3,4.9
							c2.1,1.1,4.3,2.2,6.1,3.9c0.5,0.4,0.9,0.9,1.3,1.5c0.4,0.6,0.7,1.3,0.7,2.2c0,0.9-0.4,1.7-0.9,2.3c-0.1,0.1-0.1,0.1-0.2,0.2
							c-0.1,0.1-0.2,0.2-0.3,0.3c-0.2,0.2-0.5,0.3-0.7,0.4c-0.6,0.2-1.3,0.2-1.7,0.1c-1-0.3-1.6-0.8-2-1.3c-0.5-0.5-0.9-1-1.2-1.5
							c-0.7-1-1.3-2-1.8-3c-1.1-2-1.9-4.1-2.7-6.1c-1.6-4.2-2.9-8.4-4-12.6c-1.1-4.3-2-8.6-2.5-13c-0.3-2.2-0.4-4.4-0.3-6.7
							c0.1-1.2,0.2-2.3,0.6-3.6c0.2-0.6,0.5-1.3,1.2-2c0.3-0.3,0.8-0.6,1.4-0.8c0,0,0.4-0.1,0.2-0.1l0.1,0l0.1,0c0.1,0,0.1,0,0.3,0
							c0.3,0,0.7,0,0.9,0c1,0.2,1.7,0.6,2.3,0.9c0.6,0.4,1.1,0.8,1.5,1.3c0.9,0.9,1.7,1.8,2.4,2.7c1.4,1.9,2.6,3.8,3.8,5.7
							c2.3,3.9,4.3,7.8,6.3,11.8c1.9,4,3.8,8,5.5,12c1.8,4,3.5,8.1,5.1,12.2l-3.4,0.3c0.9-4.3,1.9-8.4,3-12.6
							c1.1-4.2,2.3-8.4,3.6-12.5c1.4-4.1,2.9-8.2,4.8-12.3c1-2,2.1-4,3.5-5.9c0.8-0.9,1.6-1.9,2.8-2.7c0.6-0.4,1.3-0.7,2.1-0.9
							c0.8-0.2,1.9-0.2,2.9,0.4c0.9,0.5,1.3,1.1,1.7,1.7c0.4,0.6,0.6,1.1,0.8,1.7c0.4,1.1,0.7,2.2,0.9,3.3c0.4,2.2,0.7,4.4,0.8,6.6
							c0.3,4.4,0.2,8.7,0,13c-0.3,4.3-0.7,8.6-1.4,12.9c-0.4,2.1-0.8,4.3-1.5,6.4c-0.3,1.1-0.7,2.1-1.1,3.2c-0.5,1.1-1,2.1-2.1,3.2
							c-0.3,0.3-0.7,0.5-1.2,0.7c-0.5,0.2-1.1,0.2-1.7,0.1l-0.1,0l-0.1,0l-0.1-0.1c-0.2-0.1-0.4-0.2-0.5-0.3
							c-0.3-0.2-0.5-0.4-0.6-0.7c-0.3-0.5-0.3-1-0.4-1.3c0-1.5,0.6-2.5,1-3.6c1-2.1,2.2-3.9,3.5-5.8c2.6-3.7,5.4-7.1,8.5-10.4
							c3-3.3,6.3-6.4,9.8-9.3c1.8-1.4,3.6-2.8,5.7-3.9c1-0.6,2.1-1.1,3.3-1.4c1.2-0.4,2.6-0.6,4-0.1c0.2,0.1,0.3,0.2,0.5,0.2l0.1,0
							c0,0,0.2,0.1,0.1,0.1l0.1,0.1l0.2,0.1c0.2,0.2,0.4,0.3,0.7,0.6c0.5,0.5,0.8,1.1,1.1,1.7c0.5,1.2,0.4,2.4,0.3,3.5
							c-0.3,2.3-1.1,4.3-2,6.3c-1.9,4-4.3,7.7-6.9,11.3c-2.6,3.6-5.4,7-8.5,10.3c-3,3.3-6.2,6.4-9.7,9.2c3.4-3,6.4-6.2,9.3-9.5
							c2.9-3.3,5.6-6.8,8.1-10.4c2.5-3.6,4.8-7.3,6.5-11.3c0.8-2,1.5-4,1.7-6c0.1-1,0.1-2-0.3-2.9c-0.2-0.4-0.4-0.8-0.7-1.1
							c-0.1-0.1-0.4-0.3-0.6-0.5l-0.2-0.1l-0.1-0.1c-0.1-0.1,0.1,0,0,0l0,0l-0.3-0.1c-0.8-0.3-1.8-0.1-2.8,0.2c-1,0.3-2,0.8-2.9,1.3
							c-1.9,1.1-3.7,2.4-5.4,3.8c-3.4,2.8-6.5,6-9.4,9.3c-2.9,3.3-5.7,6.7-8.1,10.3c-1.2,1.8-2.3,3.6-3.2,5.5
							c-0.4,0.9-0.8,1.9-0.8,2.6c0,0.1,0,0.2,0,0.2c0,0,0-0.1-0.1-0.1c0,0-0.1-0.1-0.1-0.1l0,0l0,0l0.1,0c0,0,0,0,0,0
							c0,0,0.1-0.1,0.3-0.2c0.5-0.5,1-1.4,1.4-2.3c0.4-0.9,0.7-1.9,1-2.9c0.5-2,1-4.1,1.3-6.2c0.7-4.2,1.1-8.4,1.3-12.6
							c0.2-4.2,0.2-8.5-0.1-12.7c-0.2-2.1-0.4-4.2-0.8-6.2c-0.2-1-0.5-2-0.8-2.9c-0.2-0.4-0.4-0.9-0.6-1.2c-0.2-0.3-0.5-0.6-0.6-0.7
							c0,0-0.1-0.1-0.5,0c-0.3,0.1-0.6,0.2-1,0.4c-0.7,0.5-1.4,1.2-2,2c-1.2,1.6-2.3,3.5-3.2,5.4c-1.8,3.8-3.3,7.9-4.6,11.9
							c-1.3,4.1-2.5,8.2-3.5,12.3c-1.1,4.1-2,8.3-2.9,12.5l-1.2,5.9l-2.2-5.6c-3.2-8.1-6.6-16.2-10.4-24.1
							c-1.9-3.9-3.9-7.8-6.1-11.6c-1.1-1.9-2.3-3.7-3.5-5.4c-0.6-0.8-1.3-1.7-2-2.4c-0.4-0.3-0.7-0.7-1.1-0.9
							c-0.4-0.2-0.7-0.4-0.9-0.4c-0.1,0,0,0,0.1,0c0,0-0.1,0-0.2,0l-0.1,0l-0.1,0c-0.2,0,0.2,0,0.1,0c0,0,0,0-0.1,0.1
							c-0.1,0.1-0.3,0.4-0.5,0.8c-0.3,0.8-0.4,1.8-0.5,2.8c-0.1,2,0,4.2,0.3,6.3c0.5,4.2,1.3,8.5,2.4,12.6c1,4.2,2.3,8.3,3.8,12.4
							c0.7,2,1.6,4,2.5,5.9c0.5,0.9,1,1.9,1.6,2.7c0.3,0.4,0.6,0.8,0.9,1.1c0.3,0.3,0.7,0.6,0.8,0.6c0.1,0,0,0,0,0c0,0,0,0,0,0l0,0
							c0,0,0.1-0.1,0.1-0.1c0.2-0.2,0.3-0.5,0.3-0.7c0-0.5-0.5-1.3-1.2-2c-1.5-1.4-3.4-2.5-5.4-3.5c-4-2-8.4-3.6-12.8-4.9
							c-4.4-1.3-9-2.4-13.6-3.1c-2.3-0.3-4.6-0.6-6.9-0.7c-2.3,0-4.7,0.1-6.5,0.9c-0.2,0.1-0.4,0.2-0.6,0.4l-0.2,0.2
							c-0.1,0-0.2,0.2-0.3,0.3c-0.2,0.2-0.3,0.6-0.2,1c0.1,0.8,0.7,1.7,1.4,2.5c1.4,1.6,3.2,3,5,4.4c3.7,2.7,7.6,5.1,11.6,7.3
							c4,2.3,8.1,4.5,12.2,6.6C67.3,135.4,71.5,137.4,75.6,139.4z"/>
					</g>
					<g id="XMLID_126_">
						<g id="XMLID_76_">
							<path id="XMLID_481_" class="st2" d="M76.2,179C76.2,179,76.2,179,76.2,179c-0.3,0-0.5-0.2-0.6-0.4c-1.4-6.7-3.1-13.4-5.2-20
								c-2.6,6.2-4.3,12.6-4.9,19.2c0,0.2-0.2,0.4-0.5,0.5c-0.3,0-0.5-0.1-0.6-0.3c-3.3-6.9-5.8-14.1-7.4-21.4
								c-0.1-0.3,0.1-0.6,0.5-0.6c0.3-0.1,0.6,0.1,0.7,0.4c1.5,6.6,3.6,13.1,6.4,19.3c0.9-6.5,2.7-12.8,5.4-18.8
								c0.1-0.2,0.3-0.3,0.6-0.3c0.2,0,0.5,0.2,0.5,0.4c2.1,6.4,3.9,12.9,5.3,19.5l5.9-17.9c0.2-0.5,0.9-2.3,2.2-2.9
								c0.5-0.2,1.1-0.3,1.7-0.1c0.2,0.1,0.3,0.2,0.4,0.4c1.7,6.1,3.8,12.2,6.4,18.1c2-2.5,2.4-5.9,2.8-9.4
								c0.4-3.9,0.9-7.9,3.8-10.8c0.1-0.1,0.3-0.2,0.5-0.2c0.2,0,0.3,0.1,0.4,0.2c3.7,5.1,6.4,10.7,8.2,16.6
								c1.2-5.8,2.2-11.6,3.1-17.5c0-0.3,0.3-0.5,0.6-0.5c2,0,2.8,2.2,3.1,2.9l5.3,13.6l2.8-20.8c0-0.2,0.2-0.4,0.5-0.5
								c0.2,0,0.5,0,0.6,0.2l6.9,9.7c0.2,0.3,0.1,0.6-0.2,0.8c-0.3,0.2-0.6,0.1-0.8-0.2l-6-8.5l-2.9,21.6c0,0.2-0.2,0.4-0.5,0.5
								c-0.3,0-0.5-0.1-0.6-0.4l-6.2-15.7c-0.4-1.1-0.9-1.8-1.5-2.1c-0.9,6.5-2.1,13-3.5,19.3c-0.1,0.3-0.3,0.4-0.6,0.4
								c-0.3,0-0.5-0.2-0.6-0.4c-1.6-6.4-4.4-12.4-8.2-18c-2.2,2.5-2.6,6-3,9.6c-0.4,3.8-0.9,7.8-3.7,10.7c-0.1,0.1-0.3,0.2-0.5,0.2
								c-0.2,0-0.4-0.2-0.4-0.3c-2.7-6.1-4.9-12.4-6.7-18.7c-0.2,0-0.3,0-0.5,0.1c-0.6,0.3-1.3,1.2-1.6,2.3l-6.6,20
								C76.7,178.9,76.5,179,76.2,179z"/>
						</g>
						<g id="XMLID_77_">
							<path id="XMLID_480_" class="st2" d="M69.7,218.9c-0.2,0-0.4-0.1-0.5-0.3c-4.3-8.7-6.8-18.4-7.2-28c0-0.3,0.2-0.6,0.6-0.6
								c0.4,0,0.6,0.2,0.6,0.5c0.4,8.9,2.6,17.8,6.4,26l6-26.2c0.1-0.3,0.3-0.4,0.6-0.4c0,0,0,0,0,0c0.3,0,0.5,0.2,0.6,0.4l5.7,23.7
								c0.9-9.2,3.1-18.3,6.4-27c0.1-0.2,0.3-0.4,0.5-0.4c0.2,0,0.5,0.1,0.6,0.3c3.1,6.6,5.9,13.4,8.3,20.2l2.9-20.5
								c0-0.2,0.1-0.3,0.3-0.4c0.2-0.1,0.4-0.1,0.5,0c4.2,1.9,5.5,6.2,6.7,10.3c0.8,2.8,1.7,5.6,3.4,7.8l0.7-20.3
								c0-0.2,0.2-0.5,0.5-0.5c0.3-0.1,0.5,0,0.7,0.3c3.4,5.6,5.3,11.7,7,17.8l0.5-18.5c0-1,0.5-2.4,1.4-3c0.5-0.3,1-0.3,1.5-0.1
								c0.9,0.3,1.2,1.2,1.4,1.7l6.5,16.9c0.2-4.8,0.3-9.7,0.1-14.5c0-0.3,0.2-0.6,0.6-0.6c0.3,0,0.6,0.2,0.6,0.5
								c0.2,5.7,0.1,11.6-0.3,17.3c0,0.3-0.2,0.5-0.5,0.5c-0.3,0-0.5-0.1-0.6-0.4l-7.5-19.4c-0.2-0.4-0.4-0.9-0.7-1
								c-0.2-0.1-0.3-0.1-0.5,0c-0.5,0.3-0.9,1.2-0.9,2.1l-0.6,22.6c0,0.3-0.2,0.5-0.5,0.5c-0.3,0-0.6-0.1-0.6-0.4
								c-1.7-6.6-3.5-13.5-6.9-19.7l-0.7,19.7c0,0.2-0.2,0.4-0.4,0.5c-0.2,0.1-0.5,0-0.6-0.1c-2.6-2.4-3.7-5.9-4.7-9.3
								c-1.2-3.8-2.2-7.4-5.4-9.2l-3.1,22.2c0,0.3-0.3,0.4-0.5,0.5c-0.3,0-0.5-0.1-0.6-0.4c-2.4-7.1-5.3-14.2-8.4-21.1
								c-3.4,9.4-5.5,19.1-6.2,29c0,0.3-0.3,0.5-0.5,0.5c-0.3,0-0.6-0.2-0.6-0.4l-6-24.8l-5.8,25.4
								C70.3,218.7,70.1,218.8,69.7,218.9C69.8,218.9,69.8,218.9,69.7,218.9z"/>
						</g>
						<g id="XMLID_78_">
							<path id="XMLID_479_" class="st2" d="M76.2,240.2c-0.2,0-0.4-0.1-0.5-0.3l-8.4-14.5c-0.2-0.3,0-0.6,0.2-0.7
								c0.3-0.1,0.6,0,0.8,0.2l7.7,13.2l4-15.7c0.5-1.9,1.4-4.5,3.9-4.9c0.3-0.1,0.6,0.1,0.7,0.3l6.5,14.2c0.4,0.8,1.1,1.7,1.8,2
								c0.2,0.1,0.4,0.1,0.7,0c0.4-0.2,0.7-0.8,0.8-1.3c0.5-1.9,0.7-4,0.9-6c0.4-4,0.8-8,3.3-11.3c0.2-0.2,0.5-0.3,0.7-0.2
								c3.8,1.5,5.2,5.2,6.5,8.7c0.8,2.2,1.7,4.6,3.2,6.3c0.5-5.4,0.8-10.8,1.1-16.2c0-0.2,0.2-0.4,0.4-0.5c0.2-0.1,0.5,0,0.6,0.2
								c3.7,4.6,6,10,8.1,15.3l0.8-16.5c0-0.2,0.2-0.4,0.4-0.5c0.3-0.1,0.5,0,0.7,0.2c2.6,3.9,4.5,8.2,6.2,12.5l1.1-16.1
								c0-0.2,0.2-0.4,0.5-0.5c0.3,0,0.5,0.1,0.6,0.3l5.9,10.8c0.1,0.3,0,0.6-0.3,0.7c-0.3,0.1-0.6,0-0.8-0.2l-4.9-9l-1.2,16.7
								c0,0.3-0.2,0.5-0.5,0.5c-0.3,0-0.5-0.1-0.6-0.4c-1.7-4.4-3.5-9-6.1-13.1l-0.9,17.4c0,0.3-0.2,0.5-0.5,0.5
								c-0.3,0-0.6-0.1-0.6-0.4c-2.1-5.6-4.3-11.3-7.9-16.3c-0.3,5.3-0.6,10.7-1.1,15.9c0,0.2-0.2,0.4-0.4,0.5
								c-0.2,0.1-0.5,0-0.6-0.1c-2.2-2-3.3-4.9-4.4-7.7c-1.2-3.3-2.4-6.5-5.5-7.9c-2.1,3-2.5,6.6-2.8,10.4c-0.2,2.1-0.4,4.2-0.9,6.2
								c-0.2,0.7-0.5,1.6-1.4,2.1c-0.5,0.2-1.1,0.3-1.6,0.1c-1.1-0.4-2-1.6-2.4-2.6l-6.3-13.7c-1.5,0.6-2.1,2.5-2.5,4l-4.4,17.1
								C76.7,240,76.5,240.2,76.2,240.2C76.2,240.2,76.2,240.2,76.2,240.2z"/>
						</g>
					</g>
					<g id="XMLID_67_">
						<polygon id="XMLID_69_" class="st1" points="48.8,191.1 147.5,166.3 148.6,179.1 49.7,201.1 						"/>
					</g>
					<g id="XMLID_71_">
						<polygon id="XMLID_72_" class="st6" points="96.6,248.2 81.6,132.3 101.1,128.5 111.7,246 						"/>
					</g>
				</g>
				<g id="XMLID_73_">
					<g id="XMLID_74_">
						<polygon id="XMLID_1475_" class="st5" points="25.2,195.3 43.1,213.2 45.5,244.7 14.8,247 10.6,213.3 						"/>
					</g>
					<g id="XMLID_79_">
						<path id="XMLID_478_" class="st3" d="M24.7,210.5c-0.7-16.3,3.6-29.8,12.8-40.2c8.8-10,19.4-13.8,22.5-14.7
							c1.9-0.6,5.1-1.4,5.7-0.5l-1,0.6c0.1,0.1,0.1,0.1,0.1,0.1c-0.8-0.3-8.1,1-16.4,6.4c-11,7.2-23.8,21.3-22.6,48.2L24.7,210.5z"
							/>
					</g>
					<g id="XMLID_80_">
						
							<ellipse id="XMLID_473_" transform="matrix(1 -3.443145e-03 3.443145e-03 1 -0.734 8.646718e-02)" class="st0" cx="24.7" cy="213.2" rx="3" ry="2.7"/>
						<path id="XMLID_474_" class="st3" d="M24.7,216.5c-1.9,0-3.5-1.5-3.5-3.3c0-0.9,0.4-1.7,1-2.3c0.7-0.6,1.6-1,2.5-1
							c0,0,0,0,0,0c1.9,0,3.5,1.5,3.5,3.3l0,0C28.3,215,26.7,216.5,24.7,216.5C24.8,216.5,24.8,216.5,24.7,216.5z M24.7,211
							C24.7,211,24.7,211,24.7,211c-0.6,0-1.2,0.2-1.7,0.6c-0.4,0.4-0.7,1-0.7,1.5c0,1.2,1,2.1,2.4,2.2c1.3,0,2.4-1,2.4-2.2l0,0
							C27.1,212,26,211,24.7,211z"/>
					</g>
				</g>
			</g>
			<g id="XMLID_35_">
				<g id="XMLID_81_">
					<g id="XMLID_82_">
						<polygon id="XMLID_83_" class="st7" points="159.9,230.4 160.3,236.2 299.4,218.3 298.6,205.3 						"/>
					</g>
					<g id="XMLID_121_">
						<polygon id="XMLID_86_" class="st2" points="296.4,172.6 156.9,186.3 159.9,230.4 298.6,205.3 						"/>
					</g>
				</g>
				<g id="XMLID_84_">
					<path id="XMLID_96_" class="st6" d="M297,180.9l-0.8-13.3l-139.4,15.4l0.9,16.5c0,0,18.7,11,71,5
						C280.9,198.4,297,180.9,297,180.9z"/>
				</g>
				<g id="XMLID_97_">
					<path id="XMLID_468_" class="st1" d="M219.6,159c29.3-2,76.5-0.8,76.5,8.6c0,8.8-35.7,25.2-76.5,28.1
						c-40.8,3-61.7-3.5-62.9-12.8C155.5,173.7,183,161.4,219.6,159z"/>
					<path id="XMLID_470_" class="st3" d="M200.9,197.5c-11,0-20.5-0.9-27.9-2.6c-13.6-3.1-17-8.2-17.5-11.9c-0.3-2,0.6-4.1,2.5-6.3
						c9.3-10.3,37.9-17.3,61.5-18.9l0.1,1.1l-0.1-1.1c26.5-1.8,67.6-1,76,6.2c1.2,1,1.8,2.2,1.8,3.4c0,10.3-37.7,26.3-77.6,29.2
						C213.1,197.3,206.8,197.5,200.9,197.5z M245,159.2c-8.5,0-17.1,0.3-25.3,0.8c-30.5,2-53.2,10.6-59.8,18.1
						c-1.5,1.7-2.2,3.2-2,4.6c1,8.1,20.5,14.8,61.6,11.8c42.8-3.1,75.4-19.9,75.4-27.1c0-0.6-0.3-1.2-1-1.8
						C288.8,161.3,267.7,159.2,245,159.2z"/>
				</g>
				<g id="XMLID_98_">
					<g id="XMLID_99_">
						<path id="XMLID_100_" class="st2" d="M220.6,169.9c0,0-0.6-0.5-1.7-1.5c-1.1-1-2.8-2.4-4.8-4.3c-2-1.9-4.5-4.2-7.2-6.9
							c-2.7-2.7-5.7-5.9-8.8-9.5c-1.5-1.8-3-3.8-4.5-5.9c-1.4-2.1-2.8-4.4-3.8-7.1c-0.4-1.3-0.8-2.8-0.7-4.4
							c0.1-0.8,0.3-1.7,0.8-2.4c0.2-0.4,0.5-0.7,0.9-1.1l0.3-0.2l0.1-0.1l0.1-0.1c0,0,0.2-0.1,0.1-0.1l0.5-0.3
							c0.2-0.1,0.5-0.3,0.7-0.4c0.2-0.1,0.5-0.2,0.7-0.2c0.5-0.1,1-0.2,1.5-0.2c1,0,2,0.3,2.8,0.7c1.6,0.7,2.9,1.7,4.1,2.8
							c2.3,2.1,4.2,4.6,6,7.1c1.8,2.5,3.4,5.1,4.9,7.8c3,5.4,5.6,11,7.8,16.9c0.5,1.5,1,2.9,1.4,4.5c0.2,0.8,0.4,1.5,0.5,2.4
							c0.1,0.4,0.1,0.8,0.2,1.3c0,0.2,0,0.5,0,0.8c0,0.2,0,0.3-0.1,0.5c0,0.2-0.1,0.3-0.2,0.6c-0.2,0.3-0.2,0.3-0.2,0.4l-0.2,0.2
							l-0.3,0.5l-0.6,1c-0.4,0.7-0.9,1.3-1.3,1.9c-0.9,1.3-1.9,2.5-2.9,3.8c-2,2.4-4.3,4.7-6.9,6.6c-2.6,1.9-5.5,3.5-8.7,4.4
							c-3.2,0.9-6.6,1.1-9.7,0.6c-3.1-0.5-6-1.6-8.6-3.1c-2.5-1.6-4.6-3.7-5.8-6.1c-1.3-2.4-1.7-5-1.5-7.4c0.3-2.4,1.4-4.8,3.2-6.3
							c0.9-0.8,2-1.3,3.1-1.7c0.2,0,0.2-0.1,0.5-0.1l0.4-0.1l0.8-0.1c0.5-0.1,1.1-0.1,1.6-0.2c4.2-0.4,7.9,1,10,3
							c1,1,1.7,2.1,2.1,3.1c0.3,1,0.5,1.9,0.5,2.6c0,0.4,0,0.7,0,0.9c0,0.3-0.1,0.5-0.1,0.7c-0.1,0.4-0.1,0.6-0.1,0.6s0-0.2,0-0.6
							c0-0.2,0-0.4,0-0.7c0-0.3,0-0.6-0.1-0.9c-0.1-0.7-0.3-1.6-0.7-2.5c-0.5-0.9-1.1-1.9-2.2-2.8c-2-1.7-5.5-2.8-9.3-2.3
							c-0.5,0.1-0.9,0.1-1.4,0.3l-0.8,0.2l-0.4,0.1l-0.3,0.1c-0.9,0.3-1.7,0.8-2.4,1.5c-1.4,1.3-2.2,3.3-2.4,5.4
							c-0.1,2.1,0.4,4.3,1.5,6.3c1.2,2,2.9,3.7,5.2,5c2.2,1.3,4.8,2.1,7.6,2.5c2.7,0.4,5.6,0.2,8.3-0.7c5.5-1.7,10.1-5.7,13.9-10.3
							c1-1.1,1.9-2.3,2.7-3.6c0.4-0.6,0.9-1.2,1.3-1.9l1.1-1.8c0,0.1,0,0.1,0,0.1c0,0,0-0.1,0-0.1c0-0.1,0-0.2,0-0.4
							c0-0.3-0.1-0.6-0.1-1c-0.1-0.7-0.3-1.4-0.5-2.1c-0.4-1.4-0.9-2.8-1.4-4.2c-2.1-5.6-4.6-11.2-7.5-16.5c-1.4-2.6-3-5.2-4.6-7.6
							c-1.6-2.4-3.4-4.7-5.4-6.7c-1-0.9-2.1-1.8-3.2-2.3c-1.1-0.5-2.1-0.5-2.8-0.2l-0.5,0.3c-0.1,0.1,0.1,0,0,0l0,0l-0.1,0.1
							l-0.1,0.1c-0.2,0.2-0.3,0.3-0.5,0.5c-0.3,0.4-0.4,0.9-0.5,1.4c-0.2,1,0.1,2.3,0.4,3.4c0.7,2.3,2,4.6,3.3,6.6
							c1.3,2.1,2.7,4.1,4.1,5.9c2.8,3.7,5.6,7,8.1,9.8c2.5,2.9,4.8,5.3,6.7,7.3c1.9,2,3.4,3.5,4.5,4.6
							C220.1,169.3,220.6,169.9,220.6,169.9z"/>
					</g>
					<g id="XMLID_101_">
						<path id="XMLID_102_" class="st2" d="M220.8,169.9c1.5-2.1,3-4.3,4.5-6.4c1.5-2.2,3-4.3,4.4-6.5c2.9-4.4,5.6-8.8,8.3-13.3
							c1.3-2.2,2.6-4.5,3.7-6.8c1.2-2.3,2.3-4.6,3.2-6.9c0.9-2.3,1.8-4.7,2.1-7.1c0.2-1.2,0.2-2.3,0-3.3c-0.3-1-0.7-1.7-1.6-2.1
							l-0.2-0.1c0,0,0.2,0.1,0.1,0l0,0l-0.1,0l-0.1,0l-0.2-0.1c-0.1,0-0.1,0-0.1,0c-0.1,0-0.3,0-0.4,0c-0.4,0.1-0.8,0.2-1.2,0.5
							c-0.9,0.6-1.7,1.5-2.5,2.4c-1.5,2-2.7,4.2-3.8,6.5c-2.3,4.6-4.1,9.4-5.8,14.2c-1.7,4.8-3.2,9.7-4.7,14.6
							c-1.4,4.9-2.8,9.9-4,14.8l-0.5-1.5c1.1,0.9,2.5,1.7,3.9,2.4c0.7,0.4,1.5,0.6,2.2,0.9c0.8,0.2,1.5,0.5,2.3,0.6
							c0.8,0.2,1.6,0.3,2.4,0.4c0.4,0,0.8,0.1,1.2,0.1l1.2,0c0.8,0.1,1.6,0,2.4-0.1c0.4,0,0.8,0,1.2-0.1l1.2-0.2l1.2-0.2
							c0.4-0.1,0.8-0.2,1.2-0.3c0.8-0.3,1.6-0.4,2.3-0.8l2.3-0.9l2.1-1.2c0.3-0.2,0.7-0.4,1.1-0.6l1.1-0.7c0.7-0.5,1.3-0.9,2-1.4
							c1.3-1,2.6-2,3.7-3.1c2.3-2.2,4.4-4.7,5.7-7.5c0.7-1.4,1.2-2.8,1.5-4.3c0.3-1.5,0.3-3-0.1-4.5c-0.4-1.4-1.1-2.8-2.4-3.7
							c-0.3-0.2-0.7-0.4-1-0.5l-1.2-0.4c-0.8-0.1-1.6-0.3-2.4-0.1c-1.6,0.2-2.8,1.5-3.3,3c-0.5,1.5-0.4,3.2,0.5,4.5
							c-1-1.3-1.3-3-0.9-4.6c0.2-0.8,0.6-1.6,1.2-2.2c0.3-0.3,0.7-0.6,1-0.8c0.4-0.2,0.8-0.4,1.3-0.5c0.9-0.2,1.8-0.2,2.8,0l1.3,0.3
							c0.4,0.2,0.9,0.3,1.3,0.6c1.6,1,2.6,2.5,3.1,4.2c0.5,1.6,0.6,3.3,0.4,5c-0.2,1.7-0.7,3.3-1.4,4.8c-1.3,3.1-3.4,5.9-5.8,8.3
							c-1.2,1.2-2.5,2.4-3.8,3.4c-0.7,0.5-1.4,1.1-2.1,1.5l-1,0.7c-0.4,0.3-0.8,0.5-1.1,0.7l-2.3,1.3l-2.4,1.1
							c-0.8,0.4-1.7,0.6-2.5,0.9c-0.4,0.1-0.9,0.3-1.3,0.4l-1.3,0.3l-1.3,0.3c-0.5,0.1-0.9,0.1-1.4,0.2c-0.9,0.1-1.8,0.2-2.8,0.1
							l-1.4,0c-0.5,0-0.9-0.1-1.4-0.1c-0.9-0.1-1.8-0.2-2.7-0.4c-0.9-0.1-1.8-0.5-2.7-0.7c-0.9-0.3-1.7-0.6-2.6-1
							c-1.7-0.7-3.2-1.6-4.8-2.8l-0.7-0.6l0.2-0.9c1.2-5,2.5-10,4-15c1.4-5,3-9.9,4.7-14.8c1.8-4.9,3.6-9.8,6-14.5
							c1.2-2.4,2.5-4.7,4.3-6.9c0.9-1.1,1.9-2.2,3.3-3.1c0.7-0.4,1.6-0.8,2.6-0.9c0.5-0.1,1-0.1,1.6,0.1c0.1,0,0.3,0.1,0.4,0.1
							l0.2,0.1l0.4,0.1l0.3,0.2c0.8,0.4,1.6,1,2,1.7c0.5,0.7,0.8,1.5,1,2.3c0.3,1.5,0.2,2.9,0,4.3c-0.5,2.7-1.5,5.2-2.5,7.6
							c-2.1,4.8-4.9,9.3-7.7,13.8c-2.8,4.4-5.9,8.7-9.1,12.9C227.5,161.7,224.3,165.8,220.8,169.9z"/>
					</g>
				</g>
				<g id="XMLID_103_">
					<g id="XMLID_104_">
						<polygon id="XMLID_105_" class="st5" points="279.9,139.5 283.8,125.5 319.5,112.5 327.5,133.1 290.5,144 						"/>
					</g>
					<g id="XMLID_106_">
						<path id="XMLID_469_" class="st3" d="M268.1,165.6l-1.2-0.2c0-0.1,1.4-6.8,4.7-14c4.4-9.6,10.2-15.6,16.7-17.4l0.3,1
							C273.5,139.2,268.1,165.3,268.1,165.6z"/>
					</g>
					<g id="XMLID_107_">
						<ellipse id="XMLID_463_" class="st0" cx="290.1" cy="134.5" rx="1.6" ry="1.5"/>
						<path id="XMLID_465_" class="st3" d="M290.1,136.5c-1.2,0-2.2-0.9-2.2-2s1-2,2.2-2c1.2,0,2.2,0.9,2.2,2
							S291.3,136.5,290.1,136.5z M290.1,133.6c-0.6,0-1,0.4-1,1s0.5,1,1,1c0.6,0,1-0.4,1-1S290.7,133.6,290.1,133.6z"/>
					</g>
				</g>
			</g>
			<g id="XMLID_108_">
				<g id="XMLID_109_">
					<polygon id="XMLID_1436_" class="st6" points="163.8,319.4 181.2,426.7 78.7,436.3 78.7,329.8 					"/>
				</g>
				<g id="XMLID_110_">
					<g id="XMLID_111_">
						<path id="XMLID_112_" class="st5" d="M62.5,359.2c6.4,1.9,9.2,12.8,0,31.5c-7.1,14.5-17.4,11.7-21,7.7
							c-3.5-3.9-3.5-17.7,1.2-26.2C50.1,358.7,58.2,357.9,62.5,359.2z"/>
					</g>
					<g id="XMLID_113_">
						<path id="XMLID_464_" class="st3" d="M59.8,370.3c-3.6-29.5,23.9-33.7,24.1-33.8l0.2,1.1c-1.1,0.2-26.6,4.1-23.1,32.6
							L59.8,370.3z"/>
					</g>
					<g id="XMLID_115_">
						<ellipse id="XMLID_189_" class="st0" cx="60.4" cy="372.2" rx="2.1" ry="1.9"/>
						<path id="XMLID_460_" class="st3" d="M60.4,374.6c-1.5,0-2.7-1.1-2.7-2.4s1.2-2.4,2.7-2.4c1.5,0,2.7,1.1,2.7,2.4
							S61.9,374.6,60.4,374.6z M60.4,370.8c-0.8,0-1.5,0.6-1.5,1.4c0,0.8,0.7,1.4,1.5,1.4c0.8,0,1.5-0.6,1.5-1.4
							C61.9,371.4,61.3,370.8,60.4,370.8z"/>
					</g>
				</g>
				<g id="XMLID_116_">
					<defs>
						<polygon id="XMLID_1384_" points="163.8,319.4 181.2,426.7 78.7,436.3 78.7,329.8 						"/>
					</defs>
					<clipPath id="XMLID_75_">
						<use xlink:href="#XMLID_1384_"  style="overflow:visible;"/>
					</clipPath>
					<g id="XMLID_117_" class="st8">
						<g id="XMLID_118_">
							<g id="XMLID_119_">
								<polygon id="XMLID_459_" class="st0" points="141,458.9 44.1,377.3 44.9,376.5 141.8,458.1 								"/>
							</g>
							<g id="XMLID_120_">
								<polygon id="XMLID_458_" class="st0" points="158.8,445.6 65.3,364.3 66.1,363.5 159.6,444.8 								"/>
							</g>
							<g id="XMLID_122_">
								<polygon id="XMLID_457_" class="st0" points="175.8,430 78.9,348.4 79.7,347.6 176.6,429.2 								"/>
							</g>
							<g id="XMLID_123_">
								<polygon id="XMLID_456_" class="st0" points="188.1,413.4 87.7,325.3 88.5,324.5 188.9,412.7 								"/>
							</g>
							<g id="XMLID_124_">
								<polygon id="XMLID_455_" class="st0" points="200.2,395.1 99.9,306.9 100.7,306.1 201,394.3 								"/>
							</g>
							<g id="XMLID_125_">
								<polygon id="XMLID_454_" class="st0" points="211.7,377.6 111.3,289.4 112.1,288.6 212.5,376.8 								"/>
							</g>
						</g>
						<g id="XMLID_127_">
							<g id="XMLID_130_">
								<polygon id="XMLID_453_" class="st3" points="132.8,465.3 35.8,383.7 36.6,382.9 133.6,464.5 								"/>
							</g>
							<g id="XMLID_131_">
								<polygon id="XMLID_452_" class="st3" points="150.5,452 57,370.8 57.8,370 151.4,451.2 								"/>
							</g>
							<g id="XMLID_132_">
								<polygon id="XMLID_451_" class="st3" points="167.6,436.4 70.6,354.8 71.4,354 168.4,435.6 								"/>
							</g>
							<g id="XMLID_133_">
								<polygon id="XMLID_450_" class="st3" points="179.8,419.9 79.4,331.7 80.2,330.9 180.6,419.1 								"/>
							</g>
							<g id="XMLID_135_">
								<polygon id="XMLID_449_" class="st3" points="192,401.5 91.6,313.3 92.4,312.6 192.8,400.7 								"/>
							</g>
							<g id="XMLID_136_">
								<polygon id="XMLID_448_" class="st3" points="203.4,384 103,295.8 103.8,295.1 204.2,383.2 								"/>
							</g>
						</g>
						<g id="XMLID_137_">
							<g id="XMLID_138_">
								<polygon id="XMLID_447_" class="st2" points="117.2,459.2 116.4,458.4 213.4,376.8 214.2,377.6 								"/>
							</g>
							<g id="XMLID_139_">
								<polygon id="XMLID_446_" class="st2" points="99.5,445.9 98.7,445.1 192.2,363.9 193,364.7 								"/>
							</g>
							<g id="XMLID_140_">
								<polygon id="XMLID_445_" class="st2" points="82.4,430.3 81.6,429.5 178.6,347.9 179.4,348.7 								"/>
							</g>
							<g id="XMLID_141_">
								<polygon id="XMLID_444_" class="st2" points="70.2,413.8 69.4,413 169.8,324.8 170.6,325.6 								"/>
							</g>
							<g id="XMLID_142_">
								<polygon id="XMLID_357_" class="st2" points="58,395.4 57.2,394.6 157.6,306.5 158.4,307.3 								"/>
							</g>
							<g id="XMLID_144_">
								<polygon id="XMLID_191_" class="st2" points="46.6,377.9 45.8,377.1 146.2,289 147,289.7 								"/>
							</g>
						</g>
					</g>
				</g>
				<g id="XMLID_146_">
					<g id="XMLID_147_">
						<path id="XMLID_190_" class="st3" d="M111.8,342.4c-0.1-0.5-2.4-12.5,3.4-19.6c2.3-2.9,5.6-4.5,9.7-5
							c4.5-0.5,8.2,0.5,11.2,2.9c6.6,5.4,6.6,16,6.6,16.4l-2.4,0c0-0.1,0-10.1-5.8-14.8c-2.4-2-5.5-2.8-9.3-2.4
							c-3.5,0.4-6.2,1.8-8.1,4.1c-5.1,6.4-3,17.9-2.9,18L111.8,342.4z"/>
					</g>
					<g id="XMLID_148_">
						<ellipse id="XMLID_184_" class="st0" cx="113.5" cy="344.9" rx="2.8" ry="2.6"/>
						<path id="XMLID_186_" class="st3" d="M113.5,348.6c-2.2,0-4-1.6-4-3.6c0-2,1.8-3.6,4-3.6c2.2,0,4,1.6,4,3.6
							C117.5,346.9,115.7,348.6,113.5,348.6z M113.5,343.5c-0.9,0-1.6,0.7-1.6,1.5c0,0.8,0.7,1.5,1.6,1.5c0.9,0,1.6-0.7,1.6-1.5
							C115.1,344.1,114.4,343.5,113.5,343.5z"/>
					</g>
					<g id="XMLID_149_">
						<ellipse id="XMLID_180_" class="st0" cx="141.4" cy="339.6" rx="2.8" ry="2.6"/>
						<path id="XMLID_181_" class="st3" d="M141.4,343.3c-2.2,0-4-1.6-4-3.6c0-2,1.8-3.6,4-3.6c2.2,0,4,1.6,4,3.6
							C145.4,341.6,143.6,343.3,141.4,343.3z M141.4,338.2c-0.9,0-1.6,0.7-1.6,1.5c0,0.8,0.7,1.5,1.6,1.5c0.9,0,1.6-0.7,1.6-1.5
							C143,338.8,142.3,338.2,141.4,338.2z"/>
					</g>
				</g>
			</g>
			<g id="XMLID_150_">
				<path id="XMLID_151_" class="st5" d="M91.6,437.4l4.8-20.3c0.6-2.5,3.2-4.2,5.9-3.8l0,0c2.7,0.3,4.6,2.4,4.6,4.9v11.7l4.2-12.7
					c0.5-1.4,1.8-2.3,3.4-2.3l0,0c2.2,0,3.9,1.8,3.5,3.8l-2,12.1l8-12.9c0.5-0.9,1.6-1.4,2.7-1.4l0,0c2.1,0,3.6,2,2.9,3.8l-4.2,10.5
					c-1.1,2.6-3.7,4.5-6.7,4.7L91.6,437.4z"/>
			</g>
			<g id="XMLID_152_">
				<path id="XMLID_1365_" class="st5" d="M308.4,212.4l-22.4-2.7c-2.8-0.3-4.8-2.6-4.6-5.1l0,0c0.1-2.5,2.2-4.5,4.9-4.7l12.6-1
					l-14.1-2.8c-1.5-0.3-2.7-1.5-2.8-2.9l0,0c-0.2-2,1.6-3.7,3.8-3.6l13.2,0.9l-14.6-6.2c-1-0.4-1.7-1.3-1.8-2.3l0,0
					c-0.2-2,1.8-3.5,3.9-3l11.8,3c2.9,0.8,5.1,3,5.7,5.8L308.4,212.4z"/>
			</g>
			<g id="XMLID_153_">
				<g id="XMLID_154_" class="st9">
					<path id="XMLID_155_" class="st10" d="M126.5,550.4c-27.1,1.4-28.6,22.1,29.7,22.6c58.3,0.5,121.7,0.5,121.7-13.5
						c-0.1-11-22-11.6-53.7-12.7C185.8,545.5,151.7,549.1,126.5,550.4z"/>
				</g>
				<g id="XMLID_156_">
					<g id="XMLID_157_">
						<path id="XMLID_158_" class="st3" d="M135.2,567.7l46.1-13.1l-4.8-20.1l-16.6,3.3l0,12.1C148.6,550.4,134.1,563.5,135.2,567.7
							z"/>
					</g>
					<g id="XMLID_159_">
						<path id="XMLID_160_" class="st3" d="M244.2,553.3l-39.4,0L188.5,541c0,0,3.1-1.6,5.5-3.5c2.4-1.9,5.6-8.7,5.6-8.7l6.8,1.9
							l3.7,12.2c0,0,12.4-2.2,23.4,3.3C240.9,549.9,244.2,553.3,244.2,553.3z"/>
					</g>
					<g id="XMLID_161_">
						<g id="XMLID_162_">
							<polygon id="XMLID_163_" class="st2" points="156.1,541.3 179.2,537.8 179.8,438 140.6,444.2 							"/>
						</g>
						<g id="XMLID_164_">
							<polygon id="XMLID_165_" class="st7" points="139.3,435.9 140.6,444.2 179.8,438 179.9,432 							"/>
						</g>
						<g id="XMLID_166_">
							<polygon id="XMLID_167_" class="st7" points="248,422.9 206.6,428.7 206,433.9 246.5,427.5 							"/>
						</g>
						<g id="XMLID_168_">
							<polygon id="XMLID_169_" class="st2" points="206,433.9 193.9,531.3 212,535.9 246.5,427.5 							"/>
						</g>
					</g>
				</g>
			</g>
			<g id="XMLID_170_">
				<g id="XMLID_171_">
					<g id="XMLID_172_">
						<path id="XMLID_173_" class="st2" d="M290.5,398.4c1.4-0.5,2.3-1.6,2.9-2.8c0.6-1.2,1-2.5,1.3-3.8c0.7-2.6,1.1-5.2,1.3-7.9
							c0.3-5.3-0.3-10.7-2.6-15.5c-0.6-1.2-1.2-2.4-2-3.5c-0.3-0.6-0.8-1.1-1.2-1.6c-0.4-0.5-0.9-1-1.3-1.4
							c-0.5-0.4-0.9-0.6-1.4-0.6c-0.5,0-0.8,0.2-1.2,0.5c-0.8,0.7-1.2,2-1.2,3.1c0,2.4,0.9,4.9,2.3,7.1c1.4,2.2,3.4,4,5.8,5.3
							l0.4,0.2l0.2,0.1l0.2,0.1c0.3,0.1,0.7,0.3,1,0.4c0.6,0.3,1.2,0.5,1.9,0.7c1.3,0.4,2.7,0.7,4,0.8c2.8,0.3,5.6,0,8.2-0.7
							c0.7-0.2,1.3-0.4,1.8-0.6c0.2-0.1,0.5-0.3,0.5-0.4l0.2-0.2c0,0,0-0.1,0.1-0.1c0.1-0.1,0.1-0.2,0.2-0.3
							c0.4-0.9,0.3-2.1,0.1-3.4c-0.4-2.5-1.2-5-2.4-7.4c-1.2-2.4-2.7-4.6-4.4-6.7c-1.7-2.1-3.6-4.1-5.7-5.9
							c-2.1-1.8-4.3-3.6-6.5-5.3c-2.2-1.7-4.6-3.3-6.9-5l1.2-0.2c-0.6,0.8-0.5,1.8,0.1,2.8c0.5,1,1.4,1.8,2.4,2.6
							c0.5,0.4,1,0.7,1.6,1c0.6,0.3,1.1,0.7,1.7,1c1.1,0.6,2.3,1.2,3.5,1.8c4.7,2.2,9.8,3.7,15.1,4.3l-0.2,0.1
							c0.8-1.9,1.2-4,1.2-6.1c0.2,2.1-0.1,4.2-0.8,6.2c0,0.1-0.1,0.1-0.2,0.1l0,0c-5.3-0.4-10.6-1.7-15.6-3.7
							c-1.2-0.5-2.4-1.1-3.6-1.7c-0.6-0.3-1.2-0.6-1.8-1l-0.8-0.5c-0.3-0.2-0.6-0.4-0.9-0.6c-1.1-0.8-2.1-1.7-2.9-2.9
							c-0.4-0.6-0.6-1.3-0.7-2c-0.1-0.8,0.1-1.6,0.6-2.2c0.2-0.4,0.7-0.5,1.1-0.2l0,0l0,0c4.7,3.1,9.5,6.3,13.8,10.1
							c4.3,3.7,8.1,8.1,10.7,13.1c1.3,2.5,2.2,5.2,2.7,8c0.2,1.3,0.5,2.9-0.2,4.6c-0.1,0.2-0.2,0.4-0.3,0.6l-0.3,0.3l-0.2,0.2
							c-0.4,0.4-0.8,0.6-1.2,0.9c-0.8,0.4-1.6,0.6-2.3,0.8c-3,0.8-6.1,1-9.1,0.7c-1.5-0.2-3-0.5-4.5-0.9c-0.7-0.2-1.4-0.5-2.2-0.8
							c-0.4-0.2-0.7-0.3-1-0.5l-0.2-0.1c-0.1-0.1-0.2-0.1-0.3-0.1l-0.5-0.3c-2.6-1.5-4.8-3.6-6.4-6.1c-1.6-2.4-2.6-5.3-2.5-8.2
							c0.1-1.5,0.6-3,1.9-4.2c0.3-0.3,0.7-0.6,1.2-0.7c0.2-0.1,0.5-0.2,0.7-0.2c0.3,0,0.6-0.1,0.8,0c1,0,1.9,0.5,2.5,1
							c0.6,0.5,1.1,1.1,1.5,1.7c0.4,0.6,0.9,1.1,1.2,1.7c0.8,1.2,1.4,2.4,2,3.7c2.2,5.1,2.8,10.8,2.1,16.1c-0.3,2.7-0.9,5.4-1.7,8
							c-0.4,1.3-0.8,2.6-1.6,3.8C292.9,396.9,291.9,398,290.5,398.4z"/>
					</g>
					<g id="XMLID_174_">
						<path id="XMLID_175_" class="st3" d="M52.4,257.9c-4.4-1.2-9-1.7-13.5-1.6c-1.2,0-2.2,0.1-3.3,0.4c-1.1,0.3-2.1,0.6-2.9,1.2
							c-0.8,0.6-1.3,1.4-1.2,2.3c0.1,0.9,0.6,1.6,1.4,2.2c0.8,0.6,1.8,1.1,2.8,1.5l3.1,1.3l6.3,2.6l6.2,2.6c2,0.8,4.1,1.5,6,1.1
							l-0.5,1.7c-4.6-3.7-10.2-6.5-16-8.1c-1.5-0.4-3-0.7-4.5-1c-1.5-0.2-3.1-0.4-4.5-0.5c-1.5,0-2.9,0.1-4.2,0.6
							c-1.2,0.5-2.2,1.4-2.6,2.4c-0.1,0.3-0.2,0.5-0.2,0.8l0,0.5c0,0.2,0,0.2,0,0.4c0.1,0.5,0.3,1.1,0.7,1.5c0.8,1,1.9,1.8,3.2,2.5
							c1.3,0.7,2.7,1.3,4.1,2c1.4,0.6,2.8,1.3,4.3,1.9c5.7,2.4,11.6,4.5,17.5,6.3l-0.8,1.4c-2.4-1.8-5.2-3.1-8.2-4.2
							c-1.5-0.5-3-1-4.6-1.3c-1.5-0.4-3.1-0.8-4.7-1.1c-1.6-0.3-3.1-0.4-4.7-0.3c-0.8,0.1-1.5,0.2-2.3,0.5c-0.7,0.2-1.4,0.6-2,1.1
							c-1.1,1-1.8,2.4-1.9,3.8c-0.1,0.7,0,1.5,0.4,2.1c0.3,0.7,0.9,1.2,1.6,1.6c-0.7-0.3-1.4-0.8-1.8-1.5c-0.4-0.7-0.5-1.4-0.5-2.2
							c0-1.5,0.7-3,1.9-4.2c0.6-0.6,1.3-1,2.1-1.3c0.8-0.3,1.6-0.5,2.4-0.6c1.7-0.2,3.3-0.1,5,0.1c1.6,0.2,3.2,0.6,4.8,0.9
							c1.6,0.4,3.2,0.7,4.7,1.2c3.1,0.9,6.2,2.3,8.8,4.2c0.4,0.3,0.4,0.8,0.2,1.1c-0.2,0.3-0.6,0.4-0.9,0.3l0,0
							c-6.1-1.7-12.1-3.7-17.9-6c-1.5-0.6-2.9-1.2-4.3-1.8c-1.4-0.6-2.9-1.2-4.3-2c-1.4-0.8-2.8-1.7-3.9-3.1c-0.5-0.7-1-1.5-1.1-2.4
							c0-0.2-0.1-0.5-0.1-0.7l0-0.3l0-0.1l0-0.1l0-0.1l0,0c0-0.5,0.2-0.9,0.3-1.3c0.7-1.7,2.2-2.9,3.9-3.6c1.7-0.7,3.5-0.8,5.1-0.7
							c1.7,0.1,3.3,0.3,4.9,0.5c1.6,0.3,3.2,0.6,4.7,1.1c6.2,1.7,12,4.7,16.8,8.7l0,0c0.4,0.4,0.5,1,0.1,1.4
							c-0.2,0.2-0.4,0.3-0.6,0.3c-1.3,0.2-2.6,0.1-3.8-0.2c-1.2-0.3-2.3-0.7-3.4-1.2l-6.2-2.8l-6.2-2.8l-3.1-1.4
							c-1.1-0.5-2.1-1-3-1.8c-0.9-0.7-1.7-1.9-1.8-3.1c0-0.6,0.1-1.3,0.4-1.8c0.3-0.6,0.8-1,1.3-1.4c1-0.7,2.2-1.1,3.4-1.3
							c1.2-0.2,2.4-0.3,3.5-0.2c2.3,0,4.6,0.3,6.9,0.6C48.1,256.6,50.3,257.2,52.4,257.9z"/>
					</g>
				</g>
				<g id="XMLID_176_">
					<path id="XMLID_177_" class="st6" d="M153.2,170.7c0.9-0.3,1.6-0.9,2.2-1.6l0.8-1.1l0.7-1.1c0.4-0.8,0.8-1.6,1.2-2.4
						c0.3-0.8,0.6-1.7,0.8-2.5c0.2-0.9,0.3-1.7,0.4-2.6c0.1-0.9,0.1-1.7,0-2.6c-0.1-1.7-0.4-3.5-0.8-5.1c-0.2-0.8-0.5-1.7-0.8-2.5
						c-0.3-0.8-0.7-1.6-1.1-2.4c-0.8-1.6-1.7-3.1-2.7-4.6c-2-3-4.3-5.8-6.7-8.5l0.4,0.3c-0.1,0-0.3,0-0.5,0.1
						c-0.2,0.1-0.4,0.3-0.5,0.5c-0.2,0.5-0.1,1.2,0.1,2c0.2,0.7,0.5,1.7,0.9,2.4c0.3,0.7,0.7,1.5,1.1,2.2c0.9,1.4,1.9,2.8,3.1,4.1
						c1.2,1.2,2.5,2.4,4,3.4c1.5,1,3,1.8,4.6,2.5c1.6,0.7,3.4,1.2,5.1,1.5c1.7,0.3,3.6,0.5,4.8,0c1.2-0.5,1.6-1.9,1.7-3.5
						c0.1-1.5-0.3-3.1-0.8-4.7c-0.6-1.6-1.4-3.1-2.3-4.6l-5.4-9.1l-5.5-9.1c-0.9-1.5-1.8-2.9-2.9-4.2c-1.1-1.3-2.4-2.4-3.9-3.2
						l1.2-0.4c-0.3,0.7-0.7,1.5-0.8,2.2c-0.2,0.8-0.3,1.6-0.3,2.4c0,0.8,0.1,1.6,0.2,2.4c0.2,0.8,0.4,1.6,0.7,2.3
						c0.3,0.8,0.7,1.5,1.1,2.2c0.4,0.7,0.9,1.4,1.5,2c0.6,0.6,1.2,1.2,1.8,1.8c0.7,0.6,1.4,1.1,2.1,1.6c2.9,1.9,6.4,3.2,10,4
						c0.9,0.2,1.8,0.4,2.7,0.5c0.9,0.1,1.8,0.3,2.7,0.3c0.4,0,0.9-0.1,1.2-0.3c0.3-0.2,0.6-0.6,0.9-0.9c0.3-0.4,0.5-0.7,0.8-1.1
						c0.2-0.2,0.3-0.3,0.5-0.4c0.2-0.1,0.5,0,0.6,0.2c-0.2-0.1-0.4-0.2-0.6-0.1c-0.2,0.1-0.4,0.3-0.5,0.4c-0.3,0.3-0.5,0.7-0.7,1.1
						c-0.2,0.4-0.5,0.7-0.9,1c-0.4,0.3-0.9,0.4-1.4,0.4c-1,0-1.9-0.1-2.8-0.2c-0.9-0.1-1.8-0.2-2.8-0.4c-3.6-0.6-7.3-1.7-10.5-3.6
						c-0.8-0.5-1.6-1-2.3-1.6c-0.7-0.6-1.4-1.2-2-1.9c-0.6-0.7-1.2-1.4-1.7-2.2c-0.5-0.8-0.9-1.5-1.3-2.4c-0.4-0.8-0.6-1.7-0.8-2.5
						c-0.2-0.9-0.3-1.8-0.3-2.7c0-0.9,0-1.8,0.3-2.7c0.2-0.9,0.5-1.8,0.9-2.6c0.2-0.4,0.7-0.6,1.1-0.4l0,0l0,0
						c1.8,0.8,3.4,2.1,4.6,3.5c1.3,1.4,2.2,2.9,3.2,4.5l5.5,9l5.5,9.1c0.9,1.5,1.8,3.1,2.4,4.9c0.6,1.7,1.1,3.5,1,5.5
						c0,0.9-0.2,1.9-0.6,2.9c-0.4,1-1.3,2-2.4,2.4c-1.1,0.5-2.3,0.6-3.3,0.5c-1.1,0-2-0.2-3-0.4c-1.9-0.4-3.8-1-5.6-1.7
						c-1.8-0.8-3.5-1.7-5-2.8c-1.5-1.1-3-2.3-4.3-3.7c-1.3-1.4-2.4-2.9-3.3-4.4c-0.4-0.8-0.9-1.6-1.2-2.5c-0.2-0.4-0.4-0.8-0.5-1.3
						c-0.1-0.4-0.3-0.8-0.4-1.3c-0.2-0.9-0.5-2,0.1-3.1c0.3-0.6,0.8-1,1.4-1.3c0.6-0.3,1.4-0.4,2.2-0.1l0,0c0.1,0.1,0.3,0.1,0.3,0.2
						c2.3,2.8,4.6,5.7,6.5,8.9c1,1.6,1.8,3.2,2.6,4.8c0.4,0.8,0.7,1.7,1,2.5c0.3,0.8,0.6,1.7,0.8,2.6c0.4,1.8,0.6,3.6,0.6,5.4
						c0,0.9-0.1,1.8-0.2,2.7c-0.1,0.9-0.3,1.8-0.5,2.6c-0.2,0.9-0.5,1.7-0.9,2.6c-0.4,0.8-0.8,1.6-1.3,2.4l-0.8,1.1l-0.9,1
						C154.9,169.8,154.1,170.4,153.2,170.7z"/>
				</g>
			</g>
		</g>
	</g>
	<g id="XMLID_224_">
		<g id="XMLID_358_">
			<g id="XMLID_443_">
				<path id="XMLID_227_" class="st11" d="M325,155.9c-1.2,1.7-1.6,3.3-2.6,3.7c-3.1,1.3-3.5-1.4-3.8-3c-0.2-1.1,0.8-2.4,1.2-3.6
					C321.2,153.8,322.7,154.6,325,155.9z"/>
			</g>
			<g id="XMLID_442_">
				<path id="XMLID_228_" class="st11" d="M145.7,62.9c0-2.1,0-2.8,0-3.5c1,0.2,2.4,0.1,3,0.6c1.5,1.6,2.8,3.5,3.9,5.3
					c0.1,0.2-0.7,1-1.1,1.5C149.3,65.3,147.1,63.9,145.7,62.9z"/>
			</g>
			<g id="XMLID_441_">
				<path id="XMLID_229_" class="st11" d="M174.4,193.4c1.8-1.9,3.3-3.5,5-5c0.2-0.2,2.5,1.2,2.4,1.5c-0.6,1.9-1.5,3.7-2.3,5.5
					C178,194.9,176.5,194.3,174.4,193.4z"/>
			</g>
			<g id="XMLID_437_">
				<path id="XMLID_233_" class="st11" d="M274.4,255c-0.6,2-1,3.1-1.4,4.3c-1.6-1-3.4-2-4.8-3.2c-0.3-0.3,0.6-1.8,0.9-2.7
					C270.6,253.8,272.2,254.3,274.4,255z"/>
			</g>
			<g id="XMLID_436_">
				<path id="XMLID_234_" class="st11" d="M267.9,228.4c1.1,0.3,2.6,0.5,3.9,1.1c0.7,0.3,1.2,1.3,1.7,2c-0.7,0.4-1.4,1.1-2,1
					c-1.6-0.3-3.1-0.8-4.5-1.5c-0.4-0.2-0.5-1-0.6-1.5C266.5,229.3,267,229.1,267.9,228.4z"/>
			</g>
			<g id="XMLID_435_">
				<path id="XMLID_235_" class="st11" d="M405.6,108.7c-2.2-1.1-4-1.5-4-2c0-1.2,0.6-2.5,1.4-3.5c0.2-0.2,2.6,0.3,2.8,0.9
					C406.3,105.2,405.8,106.5,405.6,108.7z"/>
			</g>
			<g id="XMLID_434_">
				<path id="XMLID_236_" class="st11" d="M287.4,245.2c0.2-1.3,0.3-2.4,0.4-3.4c1.6,0.9,3.7,1.4,4.6,2.7c0.5,0.7-1.2,2.6-2,4
					C289.4,247.4,288.4,246.3,287.4,245.2z"/>
			</g>
			<g id="XMLID_432_">
				<path id="XMLID_238_" class="st11" d="M362.6,257.3c-0.7,0.8-1.3,1.8-1.7,1.8c-1.3-0.2-2.6-0.7-3.8-1.3c-0.3-0.2,0-1.3,0.1-2
					C359,256.2,360.8,256.7,362.6,257.3z"/>
			</g>
			<g id="XMLID_431_">
				<path id="XMLID_239_" class="st11" d="M266.1,149.1c0.2-0.6,0.4-1.7,0.5-1.7c1.4,0.1,3,0,4.1,0.6c0.5,0.2,0,2-0.1,3.1
					C269.2,150.4,267.7,149.8,266.1,149.1z"/>
			</g>
			<g id="XMLID_429_">
				<path id="XMLID_241_" class="st11" d="M297.8,274.8c-0.3-0.4-1-1.1-1.7-1.8c1.4-0.7,2.7-1.7,4.2-2.1c0.7-0.2,1.8,0.4,2.7,0.7
					C301.7,272.3,300.3,273.2,297.8,274.8z"/>
			</g>
			<g id="XMLID_428_">
				<path id="XMLID_242_" class="st11" d="M402.8,237.2c0.4,0.3,0.5,0.8,0.3,1.2c-0.5,0.8-1,1.6-1.7,2.3c-0.4,0.4-1.5,0-2.3,0
					c0.4-1.2,0.9-2.4,1.3-3.6c0.2-0.6,1-0.9,1.6-0.5C402.3,236.9,402.6,237,402.8,237.2z"/>
			</g>
			<g id="XMLID_427_">
				<path id="XMLID_243_" class="st11" d="M222.4,110.8c-1.1-0.6-2.3-1.1-3.3-1.9c-0.4-0.3-0.1-1.4,0-2.1c1.8,0.5,3.5,1.1,5.3,1.6
					C223.9,109,223.4,109.5,222.4,110.8z"/>
			</g>
			<g id="XMLID_426_">
				<path id="XMLID_244_" class="st11" d="M349.7,224.9c-1.1-0.3-1.9-0.4-2.7-0.6c0.9-0.7,1.6-1.6,2.7-2c0.5-0.2,1.5,0.3,2.3,0.5
					C351.2,223.4,350.4,224.2,349.7,224.9z"/>
			</g>
			<g id="XMLID_425_">
				<path id="XMLID_245_" class="st11" d="M273.1,213.9c0.3-1,0.5-1.7,0.7-2.4c0.8,0.8,1.7,1.5,2.2,2.4c0.3,0.5-0.3,1.4-0.5,2.1
					C274.7,215.3,273.9,214.5,273.1,213.9z"/>
			</g>
			<g id="XMLID_423_">
				<path id="XMLID_247_" class="st11" d="M351.8,129.8c-1.1-0.2-2.2-0.2-2.3-0.5c-0.3-1-0.3-2.1-0.4-3.2c0.6,0.1,1.7,0.1,1.9,0.4
					C351.4,127.4,351.5,128.5,351.8,129.8z"/>
			</g>
			<g id="XMLID_422_">
				<path id="XMLID_248_" class="st11" d="M281,218.1c-0.1,2-0.2,2.7-0.2,3.4c-0.8-0.5-1.8-0.8-2.3-1.5c-0.3-0.5,0-1.4,0.1-2.1
					C279.6,218,280.6,218.1,281,218.1z"/>
			</g>
			<g id="XMLID_421_">
				<path id="XMLID_249_" class="st11" d="M396.6,114.1c-0.1,2-0.2,2.7-0.2,3.4c-0.8-0.5-1.8-0.8-2.3-1.5c-0.3-0.5,0-1.4,0.1-2.1
					C395.2,114,396.2,114.1,396.6,114.1z"/>
			</g>
			<g id="XMLID_420_">
				<path id="XMLID_250_" class="st11" d="M305.1,123.5c0.3-0.3,1.1-0.9,1.8-1.5c0.5,0.5,1.4,1,1.5,1.6c0.1,0.8-0.5,1.6-0.8,2.5
					C307.1,125.5,306.6,124.9,305.1,123.5z"/>
			</g>
			<g id="XMLID_419_">
				<path id="XMLID_251_" class="st11" d="M314.1,170.6c-0.3-0.3-1-1-1.7-1.7c0.6-0.5,1.1-1.3,1.7-1.3c0.9-0.1,1.8,0.5,2.7,0.7
					C316.3,168.8,315.7,169.3,314.1,170.6z"/>
			</g>
			<g id="XMLID_418_">
				<path id="XMLID_252_" class="st11" d="M292.7,110.5c-0.1,2-0.2,2.7-0.2,3.4c-0.8-0.5-1.8-0.8-2.3-1.5c-0.3-0.5,0-1.4,0-2.1
					C291.3,110.4,292.3,110.4,292.7,110.5z"/>
			</g>
			<g id="XMLID_417_">
				<path id="XMLID_253_" class="st11" d="M256.8,151.3c0.3-0.3,1.1-0.9,1.8-1.5c0.5,0.5,1.4,1,1.5,1.6c0.1,0.8-0.5,1.6-0.8,2.5
					C258.8,153.3,258.3,152.8,256.8,151.3z"/>
			</g>
			<g id="XMLID_415_">
				<path id="XMLID_255_" class="st11" d="M407.8,213.5c-0.4,0-0.7,0-1-0.1c-0.8,0-1.2-0.9-0.8-1.5c0.2-0.3,0.4-0.5,0.7-0.7
					c0.3-0.2,0.8-0.1,1.3-0.1c0.5,0.1,0.9,0.5,0.9,1c0,0.1,0,0.3,0,0.4C408.9,213.1,408.4,213.5,407.8,213.5z"/>
			</g>
			<g id="XMLID_414_">
				<path id="XMLID_256_" class="st11" d="M197.4,151.8c1,0.1,2.1,0.3,3.3,0.4c-0.5,0.6-0.9,1.5-1.5,1.7c-1.1,0.2-2.3,0-3.5-0.1
					C196.2,153.2,196.7,152.6,197.4,151.8z"/>
			</g>
			<g id="XMLID_411_">
				<path id="XMLID_259_" class="st11" d="M352.5,142c-0.4-0.2-0.8-0.4-1.2-0.5c0.4-0.4,0.8-0.9,1.4-1.2c0.2-0.1,0.7,0.3,1.1,0.4
					C353.3,141.1,352.9,141.6,352.5,142z"/>
			</g>
			<g id="XMLID_409_">
				<path id="XMLID_261_" class="st11" d="M349.2,161.2c-0.5-0.4-1-0.8-1.3-1.3c-0.1-0.2,0.3-0.7,0.5-1c0.5,0.4,1,0.8,1.3,1.3
					C349.8,160.4,349.4,160.9,349.2,161.2z"/>
			</g>
			<g id="XMLID_407_">
				<path id="XMLID_263_" class="st11" d="M417.3,157.8c-0.2,0.4-0.6,0.6-1.1,0.5c-0.8-0.1-1.6-0.2-2.4-0.4c0.3-0.6,0.5-1.6,0.9-1.6
					c0.6-0.1,1.2,0,1.8,0.1C417.2,156.5,417.6,157.2,417.3,157.8C417.3,157.7,417.3,157.7,417.3,157.8z"/>
			</g>
			<g id="XMLID_406_">
				<path id="XMLID_264_" class="st11" d="M346.5,171.4c0.1-0.6,0.2-1.2,0.3-1.7c0.4,0.2,1,0.3,1.1,0.5c0.1,0.6-0.1,1.2-0.2,1.8
					C347.4,171.7,347,171.6,346.5,171.4z"/>
			</g>
			<g id="XMLID_405_">
				<path id="XMLID_265_" class="st11" d="M401.5,123.6c-0.6-0.1-1.3-0.2-1.9-0.3c0.2-0.3,0.3-0.9,0.5-1c0.6-0.1,1.3,0.1,1.9,0.2
					C401.9,122.8,401.7,123.2,401.5,123.6z"/>
			</g>
			<g id="XMLID_404_">
				<path id="XMLID_266_" class="st11" d="M294,235.4c-0.5-0.4-1-0.8-1.3-1.3c-0.1-0.2,0.3-0.7,0.5-1c0.5,0.4,1,0.8,1.3,1.3
					C294.6,234.6,294.2,235.1,294,235.4z"/>
			</g>
			<g id="XMLID_403_">
				<path id="XMLID_267_" class="st11" d="M298.3,220.4c0.1-0.6,0.2-1.2,0.3-1.7c0.4,0.2,1,0.3,1.1,0.5c0.1,0.6-0.1,1.2-0.2,1.8
					C299.2,220.8,298.8,220.6,298.3,220.4z"/>
			</g>
			<g id="XMLID_402_">
				<path id="XMLID_268_" class="st11" d="M393.7,103.2c-0.6-0.1-1.3-0.2-1.9-0.3c0.2-0.3,0.3-0.9,0.5-1c0.6-0.1,1.3,0.1,1.9,0.2
					C394.1,102.5,393.9,102.8,393.7,103.2z"/>
			</g>
			<g id="XMLID_401_">
				<path id="XMLID_786_" class="st11" d="M350.7,107.3"/>
			</g>
			<g id="XMLID_400_">
				<path id="XMLID_271_" class="st11" d="M367.4,287.2c-0.6-0.1-1.3-0.2-1.9-0.3c0.2-0.3,0.3-0.9,0.5-1c0.6-0.1,1.3,0.1,1.9,0.2
					C367.8,286.5,367.6,286.8,367.4,287.2z"/>
			</g>
			<g id="XMLID_399_">
				<path id="XMLID_272_" class="st11" d="M348.7,245.7c0.4,0.2,0.8,0.4,1.2,0.5c-0.4,0.4-0.8,0.9-1.4,1.2c-0.2,0.1-0.7-0.3-1.1-0.4
					C347.9,246.6,348.3,246.1,348.7,245.7z"/>
			</g>
			<g id="XMLID_398_">
				<path id="XMLID_273_" class="st11" d="M360.7,29.4c0.2-0.4,0.4-0.7,0.6-1.1c0.5,0.4,1,0.8,1.3,1.3c0.1,0.2-0.3,0.7-0.5,1
					C361.6,30.2,361.2,29.8,360.7,29.4z"/>
			</g>
			<g id="XMLID_397_">
				<path id="XMLID_274_" class="st11" d="M352,266c0.4-0.5,0.7-1,1.1-1.5c0.3,0.4,1,1.1,0.9,1.2c-0.4,0.5-1,0.9-1.6,1.3
					C352.2,266.7,352.1,266.4,352,266z"/>
			</g>
			<g id="XMLID_396_">
				<path id="XMLID_275_" class="st11" d="M351.7,269.6c-0.4-0.2-1-0.4-1-0.5c0.1-0.6,0.4-1.1,0.6-1.7c0.5,0.2,1,0.4,1.5,0.7
					C352.4,268.6,352.1,269.1,351.7,269.6z"/>
			</g>
			<g id="XMLID_395_">
				<path id="XMLID_276_" class="st11" d="M323.2,215.1c-0.6-0.1-1.3-0.2-1.9-0.3c0.2-0.3,0.3-0.9,0.5-1c0.6-0.1,1.3,0.1,1.9,0.2
					C323.6,214.3,323.4,214.7,323.2,215.1z"/>
			</g>
			<g id="XMLID_394_">
				<path id="XMLID_179_" class="st11" d="M275.1,106.7"/>
			</g>
			<g id="XMLID_393_">
				<path id="XMLID_278_" class="st11" d="M394.4,65.5c-0.4-0.2-0.8-0.4-1.2-0.5c0.4-0.4,0.8-0.9,1.4-1.2c0.2-0.1,0.7,0.3,1.1,0.4
					C395.3,64.7,394.8,65.1,394.4,65.5z"/>
			</g>
			<g id="XMLID_391_">
				<path id="XMLID_280_" class="st11" d="M411.6,251.9c0.1-0.6,0.2-1.2,0.3-1.7c0.4,0.2,1,0.3,1.1,0.5c0.1,0.6-0.1,1.2-0.2,1.8
					C412.4,252.3,412.1,252.1,411.6,251.9z"/>
			</g>
			<g id="XMLID_389_">
				<path id="XMLID_282_" class="st11" d="M273.9,156.8c-0.2,0.4-0.4,0.7-0.6,1.1c-0.5-0.4-1-0.8-1.4-1.3c-0.1-0.2,0.3-0.7,0.5-1
					C272.9,156,273.4,156.4,273.9,156.8z"/>
			</g>
			<g id="XMLID_388_">
				<path id="XMLID_283_" class="st11" d="M408.3,233.5c-0.5-0.4-1-0.8-1.3-1.3c-0.1-0.2,0.3-0.7,0.5-1c0.5,0.4,1,0.8,1.4,1.3
					C408.9,232.7,408.5,233.2,408.3,233.5z"/>
			</g>
			<g id="XMLID_387_">
				<path id="XMLID_284_" class="st11" d="M413.6,198.5c-0.6-0.1-1.3-0.2-1.9-0.3c0.2-0.3,0.3-0.9,0.5-1c0.6-0.1,1.3,0.1,1.9,0.2
					C414,197.8,413.8,198.1,413.6,198.5z"/>
			</g>
			<g id="XMLID_386_">
				<path id="XMLID_285_" class="st11" d="M409.3,131.3c-0.4-0.2-1-0.4-1-0.5c0.1-0.6,0.4-1.1,0.6-1.7c0.5,0.2,1,0.4,1.5,0.7
					C410,130.3,409.7,130.8,409.3,131.3z"/>
			</g>
			<g id="XMLID_385_">
				<path id="XMLID_286_" class="st11" d="M269.5,193.8c0.1-0.6,0.2-1.2,0.3-1.7c0.4,0.2,1,0.3,1.1,0.5c0.1,0.6-0.1,1.2-0.2,1.8
					C270.3,194.2,269.9,194,269.5,193.8z"/>
			</g>
			<g id="XMLID_384_">
				<path id="XMLID_287_" class="st11" d="M409.6,127.8c0.4-0.5,0.7-1,1.1-1.5c0.3,0.4,1,1.1,0.9,1.2c-0.4,0.5-1,0.9-1.6,1.3
					C409.9,128.5,409.7,128.1,409.6,127.8z"/>
			</g>
			<g id="XMLID_383_">
				<path id="XMLID_288_" class="st11" d="M408.3,123.4c0.1-0.6,0.2-1.2,0.3-1.7c0.4,0.2,1,0.3,1.1,0.5c0.1,0.6-0.1,1.2-0.2,1.8
					C409.1,123.7,408.7,123.6,408.3,123.4z"/>
			</g>
			<g id="XMLID_382_">
				<path id="XMLID_289_" class="st11" d="M261.9,190.5c-0.1,0.6-0.2,1.2-0.3,1.7c-0.4-0.2-1-0.3-1.1-0.5c-0.1-0.6,0.1-1.2,0.2-1.8
					C261.1,190.1,261.4,190.3,261.9,190.5z"/>
			</g>
			<g id="XMLID_381_">
				<path id="XMLID_290_" class="st11" d="M286.2,262.7c-0.6-0.1-1.3-0.2-1.9-0.3c0.2-0.3,0.3-0.9,0.5-1c0.6-0.1,1.3,0.1,1.9,0.2
					C286.6,262,286.4,262.3,286.2,262.7z"/>
			</g>
			<g id="XMLID_379_">
				<path id="XMLID_292_" class="st11" d="M397.2,171.1c-0.5-0.4-1-0.8-1.3-1.3c-0.1-0.2,0.3-0.7,0.5-1c0.5,0.4,1,0.8,1.3,1.3
					C397.8,170.3,397.3,170.8,397.2,171.1z"/>
			</g>
			<g id="XMLID_376_">
				<path id="XMLID_295_" class="st11" d="M277.7,284c0.4,0.2,0.8,0.4,1.2,0.5c-0.5,0.4-0.8,0.9-1.4,1.2c-0.2,0.1-0.7-0.3-1.1-0.4
					C276.9,284.9,277.3,284.4,277.7,284z"/>
			</g>
			<g id="XMLID_374_">
				<path id="XMLID_297_" class="st11" d="M271.1,242.4c0.6,0.1,1.3,0.2,1.9,0.3c-0.2,0.3-0.3,0.9-0.5,1c-0.6,0.1-1.3-0.1-1.9-0.2
					C270.7,243.1,270.9,242.8,271.1,242.4z"/>
			</g>
			<g id="XMLID_373_">
				<path id="XMLID_298_" class="st11" d="M246.2,232.4c-0.4-0.2-0.8-0.4-1.2-0.5c0.5-0.4,0.8-0.9,1.4-1.2c0.2-0.1,0.7,0.3,1.1,0.4
					C247,231.6,246.6,232,246.2,232.4z"/>
			</g>
			<g id="XMLID_372_">
				<path id="XMLID_185_" class="st11" d="M187.9,39.6c-0.2,0.1-0.7-0.3-1.1-0.4"/>
			</g>
			<g id="XMLID_371_">
				<path id="XMLID_300_" class="st11" d="M256.1,265.6c0.6,0.1,1.3,0.2,1.9,0.3c-0.2,0.3-0.3,0.9-0.5,1c-0.6,0.1-1.3-0.1-1.9-0.2
					C255.7,266.3,255.9,266,256.1,265.6z"/>
			</g>
			<g id="XMLID_370_">
				<path id="XMLID_301_" class="st11" d="M260.9,288c0.4-0.5,0.7-1,1.1-1.5c0.3,0.4,1,1.1,0.9,1.2c-0.4,0.5-1,0.9-1.6,1.3
					C261.2,288.6,261,288.3,260.9,288z"/>
			</g>
			<g id="XMLID_369_">
				<path id="XMLID_302_" class="st11" d="M260.7,291.5c-0.4-0.2-1-0.4-1-0.5c0.1-0.6,0.4-1.1,0.6-1.7c0.5,0.2,1,0.4,1.5,0.7
					C261.3,290.5,261,291,260.7,291.5z"/>
			</g>
			<g id="XMLID_368_">
				<path id="XMLID_303_" class="st11" d="M268.3,278.2c-0.4-0.2-0.8-0.4-1.2-0.5c0.4-0.4,0.8-0.9,1.4-1.2c0.2-0.1,0.7,0.3,1.1,0.4
					C269.1,277.3,268.7,277.8,268.3,278.2z"/>
			</g>
			<g id="XMLID_367_">
				<path id="XMLID_304_" class="st11" d="M198.4,185.1c0.4,0.2,0.8,0.4,1.2,0.5c-0.4,0.4-0.8,0.9-1.4,1.2c-0.2,0.1-0.7-0.3-1.1-0.4
					C197.6,185.9,198,185.5,198.4,185.1z"/>
			</g>
			<g id="XMLID_365_">
				<path id="XMLID_306_" class="st11" d="M162.9,60.6c-0.4-0.2-0.8-0.4-1.2-0.5c0.5-0.4,0.8-0.9,1.4-1.2c0.2-0.1,0.7,0.3,1.1,0.4
					C163.7,59.7,163.3,60.1,162.9,60.6z"/>
			</g>
			<g id="XMLID_364_">
				<path id="XMLID_307_" class="st11" d="M198.9,153.5c-0.5-0.4-1-0.8-1.3-1.3c-0.1-0.2,0.3-0.7,0.5-1c0.5,0.4,1,0.8,1.4,1.3
					C199.5,152.7,199,153.2,198.9,153.5z"/>
			</g>
			<g id="XMLID_363_">
				<path id="XMLID_308_" class="st11" d="M177.8,176.5c0.6,0.1,1.3,0.2,1.9,0.3c-0.2,0.3-0.3,0.9-0.5,1c-0.6,0.1-1.3-0.1-1.9-0.2
					C177.4,177.3,177.6,176.9,177.8,176.5z"/>
			</g>
			<g id="XMLID_362_">
				<path id="XMLID_309_" class="st11" d="M187.8,204.3c0.2-0.4,0.4-0.7,0.6-1.1c0.5,0.4,1,0.8,1.3,1.3c0.1,0.2-0.3,0.7-0.5,1
					C188.8,205.1,188.3,204.7,187.8,204.3z"/>
			</g>
			<g id="XMLID_361_">
				<path id="XMLID_310_" class="st11" d="M402,92.3c0.1-0.6,0.2-1.2,0.3-1.7c0.4,0.2,1,0.3,1.1,0.5c0.1,0.6-0.1,1.2-0.2,1.8
					C402.8,92.7,402.4,92.5,402,92.3z"/>
			</g>
			<g id="XMLID_360_">
				<path id="XMLID_311_" class="st11" d="M398.6-0.3c-0.4,0.4-0.8,0.9-1.4,1.2c-0.2,0.1-0.7-0.3-1.1-0.4c0.4-0.4,0.8-0.9,1.4-1.2
					C397.7-0.9,398.3-0.5,398.6-0.3z"/>
			</g>
			<g id="XMLID_359_">
				<path id="XMLID_312_" class="st11" d="M196.3,231.2c-0.5-0.4-1-0.8-1.4-1.3c-0.1-0.2,0.3-0.7,0.5-1c0.5,0.4,1,0.8,1.3,1.3
					C196.9,230.3,196.5,230.8,196.3,231.2z"/>
			</g>
		</g>
		<g id="XMLID_225_">
			<g id="XMLID_356_">
				<path id="XMLID_313_" class="st11" d="M223.4,306.7c-1.2,1.5-1.7,3-2.6,3.3c-3,1.1-3.1-1.4-3.4-3c-0.2-1,0.8-2.2,1.3-3.3
					C220,304.6,221.3,305.4,223.4,306.7z"/>
			</g>
			<g id="XMLID_355_">
				<path id="XMLID_314_" class="st11" d="M61.8,212.7c0.1-1.9,0.1-2.6,0.2-3.2c0.9,0.2,2.3,0.2,2.7,0.7c1.3,1.6,2.4,3.4,3.4,5.1
					c0.1,0.2-0.7,0.9-1.1,1.3C65,215.2,63.1,213.7,61.8,212.7z"/>
			</g>
			<g id="XMLID_354_">
				<path id="XMLID_315_" class="st11" d="M81.8,335.1c1.7-1.6,3.2-3.1,4.9-4.4c0.2-0.1,2.3,1.2,2.2,1.5c-0.6,1.7-1.6,3.4-2.5,5
					C85.1,336.6,83.7,336,81.8,335.1z"/>
			</g>
			<g id="XMLID_353_">
				<path id="XMLID_316_" class="st11" d="M150.4,224.5c1.6-1.3,2.2-2.2,2.9-2.3c1.7-0.4,3.7-2.1,5,0.3c0.4,0.8-0.1,2-0.2,2.9
					C155.9,225.2,153.8,224.9,150.4,224.5z"/>
			</g>
			<g id="XMLID_352_">
				<path id="XMLID_317_" class="st11" d="M157.2,215.4c-0.6-0.8-1.9-1.8-1.8-2.5c0.3-2,1.2-3.9,1.8-5.8c0.6,0.4,1.5,0.8,1.6,1.3
					c0.3,1.7,0.3,3.5,0.5,5.3C158.6,214.3,157.9,214.8,157.2,215.4z"/>
			</g>
			<g id="XMLID_351_">
				<path id="XMLID_318_" class="st11" d="M158.8,161.6c0.1,0-0.4-0.1-0.6-0.3c-0.4-0.9-1.2-2.1-0.9-2.7c0.7-1.3,1.9-2.5,3.2-3.2
					c0.5-0.3,2,0.9,3,1.4c0.2,0.1,0.3,0.6,0.2,0.7C162.2,158.8,160.6,160.1,158.8,161.6z"/>
			</g>
			<g id="XMLID_350_">
				<path id="XMLID_319_" class="st11" d="M171.4,396.5c-0.7,1.8-1.1,2.9-1.5,3.9c-1.5-1-3.1-2-4.3-3.2c-0.3-0.3,0.6-1.6,1-2.5
					C168,395.3,169.4,395.8,171.4,396.5z"/>
			</g>
			<g id="XMLID_349_">
				<path id="XMLID_320_" class="st11" d="M166.8,371.5c1,0.3,2.4,0.6,3.6,1.2c0.7,0.3,1,1.2,1.5,1.9c-0.7,0.3-1.4,1-1.9,0.8
					c-1.4-0.3-2.8-0.9-4.1-1.6c-0.3-0.2-0.4-0.9-0.4-1.4C165.4,372.3,165.9,372.1,166.8,371.5z"/>
			</g>
			<g id="XMLID_348_">
				<path id="XMLID_321_" class="st11" d="M300.6,266.4c-2-1.1-3.6-1.6-3.6-2c0.1-1.1,0.7-2.3,1.5-3.2c0.2-0.2,2.4,0.4,2.6,1
					C301.4,263.1,300.9,264.4,300.6,266.4z"/>
			</g>
			<g id="XMLID_347_">
				<path id="XMLID_322_" class="st11" d="M184,388c0.2-1.2,0.4-2.2,0.6-3.2c1.4,0.9,3.4,1.5,4.1,2.7c0.4,0.6-1.3,2.4-2,3.6
					C185.8,390.1,184.9,389,184,388z"/>
			</g>
			<g id="XMLID_346_">
				<path id="XMLID_323_" class="st11" d="M169.9,214.8c-0.3-0.1-1.4-0.3-1.4-0.4c0.1-1.2,0.1-2.6,0.8-3.6c0.2-0.4,2,0.1,3.1,0.2
					C171.5,212.2,170.7,213.5,169.9,214.8z"/>
			</g>
			<g id="XMLID_345_">
				<path id="XMLID_324_" class="st11" d="M253.2,402.4c-0.7,0.7-1.3,1.7-1.6,1.6c-1.2-0.2-2.4-0.7-3.4-1.4
					c-0.3-0.2,0.1-1.2,0.2-1.9C249.9,401.3,251.5,401.8,253.2,402.4z"/>
			</g>
			<g id="XMLID_344_">
				<path id="XMLID_325_" class="st11" d="M169.1,297.9c0.2-0.5,0.4-1.5,0.6-1.5c1.3,0.1,2.8,0.2,3.8,0.8c0.4,0.2-0.1,1.8-0.2,2.8
					C171.9,299.2,170.6,298.6,169.1,297.9z"/>
			</g>
			<g id="XMLID_343_">
				<path id="XMLID_326_" class="st11" d="M205,175.5c-1.4-0.7-2.7-1.4-4-2.1c0.5-0.6,1.4-1.9,1.5-1.8c1.1,0.5,2.2,1.1,3.1,2
					C205.9,173.7,205.3,174.7,205,175.5z"/>
			</g>
			<g id="XMLID_342_">
				<path id="XMLID_327_" class="st11" d="M192.1,415.8c-0.3-0.3-0.9-1-1.4-1.7c1.3-0.6,2.6-1.4,4-1.8c0.7-0.2,1.6,0.5,2.5,0.8
					C195.9,413.7,194.6,414.5,192.1,415.8z"/>
			</g>
			<g id="XMLID_341_">
				<path id="XMLID_328_" class="st11" d="M326.1,376.8c-0.7,0.9-1.2,1.9-2.1,2.7c-0.4,0.3-1.4,0-2.1-0.1c0.6-1.5,1.2-3,1.9-4.5
					C324.3,375.5,324.9,375.9,326.1,376.8z"/>
			</g>
			<g id="XMLID_340_">
				<path id="XMLID_329_" class="st11" d="M130.5,260.5c-1-0.6-2.1-1.1-2.9-1.9c-0.3-0.3,0-1.3,0.1-1.9c1.6,0.6,3.2,1.1,4.8,1.7
					C132,258.8,131.6,259.3,130.5,260.5z"/>
			</g>
			<g id="XMLID_339_">
				<path id="XMLID_330_" class="st11" d="M242.9,371.8c-1-0.3-1.7-0.5-2.4-0.7c0.8-0.6,1.6-1.4,2.6-1.8c0.5-0.2,1.4,0.3,2.1,0.5
					C244.3,370.5,243.5,371.2,242.9,371.8z"/>
			</g>
			<g id="XMLID_338_">
				<path id="XMLID_331_" class="st11" d="M172.4,358.3c0.3-0.9,0.5-1.6,0.7-2.2c0.7,0.8,1.5,1.5,1.9,2.4c0.2,0.5-0.3,1.3-0.6,1.9
					C173.7,359.7,173,358.9,172.4,358.3z"/>
			</g>
			<g id="XMLID_337_">
				<path id="XMLID_332_" class="st11" d="M250.4,232.9c-0.9-0.2-1.9-0.3-3-0.5c0.5-0.5,0.9-1.4,1.4-1.5c1-0.2,2.1,0.1,3.2,0.2
					C251.6,231.6,251.1,232.2,250.4,232.9z"/>
			</g>
			<g id="XMLID_336_">
				<path id="XMLID_333_" class="st11" d="M249.6,283.6c-1-0.3-2-0.3-2.1-0.6c-0.2-1-0.2-2-0.2-3c0.6,0.1,1.6,0.1,1.7,0.4
					C249.4,281.4,249.4,282.4,249.6,283.6z"/>
			</g>
			<g id="XMLID_335_">
				<path id="XMLID_334_" class="st11" d="M179.5,362.5c-0.2,1.8-0.3,2.5-0.4,3.2c-0.7-0.5-1.6-0.8-2-1.5c-0.3-0.4,0.1-1.3,0.2-1.9
					C178.2,362.4,179.1,362.5,179.5,362.5z"/>
			</g>
			<g id="XMLID_226_">
				<path id="XMLID_490_" class="st11" d="M292,271c-0.2,1.8-0.3,2.5-0.4,3.2c-0.7-0.5-1.6-0.8-2-1.5c-0.3-0.4,0.1-1.3,0.2-1.9
					C290.7,270.9,291.6,271,292,271z"/>
			</g>
			<g id="XMLID_491_">
				<path id="XMLID_492_" class="st11" d="M206.6,275.8c0.3-0.2,1-0.8,1.8-1.3c0.5,0.5,1.3,1,1.3,1.5c0,0.7-0.5,1.5-0.9,2.3
					C208.4,277.7,207.9,277.2,206.6,275.8z"/>
			</g>
			<g id="XMLID_493_">
				<path id="XMLID_494_" class="st11" d="M212.6,319.9c-0.3-0.3-0.9-0.9-1.5-1.6c0.6-0.4,1.1-1.2,1.7-1.2c0.8,0,1.6,0.5,2.4,0.8
					C214.7,318.3,214.2,318.7,212.6,319.9z"/>
			</g>
			<g id="XMLID_495_">
				<path id="XMLID_496_" class="st11" d="M195.8,263.2c-0.2,1.8-0.3,2.5-0.4,3.2c-0.7-0.5-1.6-0.8-2-1.5c-0.3-0.4,0.1-1.3,0.2-1.9
					C194.4,263,195.4,263.1,195.8,263.2z"/>
			</g>
			<g id="XMLID_497_">
				<path id="XMLID_498_" class="st11" d="M160.4,299.6c0.3-0.2,1-0.8,1.8-1.3c0.5,0.5,1.3,1,1.3,1.5c0,0.7-0.5,1.5-0.9,2.2
					C162.1,301.5,161.7,301,160.4,299.6z"/>
			</g>
			<g id="XMLID_499_">
				<path id="XMLID_500_" class="st11" d="M137.9,239.9c-2-0.2-2.8-0.3-3.5-0.3c0.5-0.7,0.9-1.5,1.6-1.9c0.5-0.3,2,0,2,0.2
					C138.1,238.7,137.9,239.5,137.9,239.9z"/>
			</g>
			<g id="XMLID_501_">
				<path id="XMLID_502_" class="st11" d="M332.3,354.6c-2-0.2-2.7-0.3-3.4-0.3c0.5-0.7,0.9-1.5,1.6-1.9c0.5-0.3,1.4,0.1,2.1,0.1
					C332.4,353.4,332.3,354.2,332.3,354.6z"/>
			</g>
			<g id="XMLID_503_">
				<path id="XMLID_504_" class="st11" d="M105.2,297.4c0.9,0.2,1.9,0.3,3,0.5c-0.5,0.5-0.9,1.4-1.4,1.5c-1,0.2-2.1-0.1-3.2-0.2
					C104.1,298.7,104.5,298.2,105.2,297.4z"/>
			</g>
			<g id="XMLID_505_">
				<path id="XMLID_506_" class="st11" d="M210.4,219.3c-0.4,0.4-0.8,0.8-1.3,1.1c-0.2,0.1-0.6-0.3-1-0.5c0.4-0.4,0.8-0.8,1.3-1.1
					C209.6,218.7,210,219.1,210.4,219.3z"/>
			</g>
			<g id="XMLID_507_">
				<path id="XMLID_508_" class="st11" d="M200.3,196.6c-0.2,0.3-0.4,0.9-0.5,0.9c-0.6-0.1-1.1-0.4-1.7-0.6c0.2-0.4,0.5-0.8,0.7-1.2
					C199.3,196,199.8,196.3,200.3,196.6z"/>
			</g>
			<g id="XMLID_509_">
				<path id="XMLID_510_" class="st11" d="M249.6,295c-0.4-0.2-0.7-0.4-1.1-0.5c0.4-0.4,0.8-0.8,1.3-1.1c0.2-0.1,0.6,0.3,1,0.5
					C250.4,294.2,250,294.6,249.6,295z"/>
			</g>
			<g id="XMLID_511_">
				<path id="XMLID_512_" class="st11" d="M149.4,199.6c-0.4-0.2-0.7-0.4-1.1-0.5c0.4-0.4,0.8-0.8,1.3-1.1c0.2-0.1,0.6,0.3,1,0.5
					C150.2,198.8,149.8,199.2,149.4,199.6z"/>
			</g>
			<g id="XMLID_513_">
				<path id="XMLID_514_" class="st11" d="M245.6,312.7c-0.4-0.4-0.9-0.8-1.2-1.2c-0.1-0.2,0.3-0.6,0.5-0.9c0.4,0.4,0.9,0.8,1.2,1.2
					C246.2,312,245.8,312.4,245.6,312.7z"/>
			</g>
			<g id="XMLID_515_">
				<path id="XMLID_516_" class="st11" d="M248.1,246.8c0.1-0.5,0.3-1.1,0.4-1.6c0.3,0.2,0.9,0.3,1,0.5c0,0.5-0.2,1.1-0.3,1.6
					C248.9,247.1,248.5,247,248.1,246.8z"/>
			</g>
			<g id="XMLID_517_">
				<path id="XMLID_518_" class="st11" d="M342.5,303.8c-0.9-0.2-1.9-0.4-2.9-0.6c0.3-0.5,0.6-1.4,0.9-1.5c1-0.1,2,0.2,3,0.4
					C343.2,302.7,342.9,303.2,342.5,303.8z"/>
			</g>
			<g id="XMLID_519_">
				<path id="XMLID_520_" class="st11" d="M242.6,322c0.1-0.5,0.3-1.1,0.4-1.6c0.3,0.2,0.9,0.3,1,0.5c0,0.5-0.2,1.1-0.3,1.6
					C243.4,322.4,243,322.2,242.6,322z"/>
			</g>
			<g id="XMLID_521_">
				<path id="XMLID_522_" class="st11" d="M296,280c-0.6-0.1-1.2-0.2-1.7-0.4c0.2-0.3,0.3-0.9,0.5-0.9c0.6,0,1.2,0.1,1.8,0.2
					C296.4,279.3,296.2,279.6,296,280z"/>
			</g>
			<g id="XMLID_523_">
				<path id="XMLID_524_" class="st11" d="M190.7,379.2c-0.4-0.4-0.9-0.8-1.2-1.2c-0.1-0.2,0.3-0.6,0.5-0.9c0.4,0.4,0.9,0.8,1.2,1.2
					C191.3,378.5,190.8,378.9,190.7,379.2z"/>
			</g>
			<g id="XMLID_525_">
				<path id="XMLID_526_" class="st11" d="M195.4,365.4c0.1-0.5,0.3-1.1,0.4-1.6c0.3,0.2,0.9,0.3,1,0.5c0,0.5-0.2,1.1-0.3,1.6
					C196.2,365.8,195.8,365.6,195.4,365.4z"/>
			</g>
			<g id="XMLID_527_">
				<path id="XMLID_528_" class="st11" d="M289.8,260.8c-0.6-0.1-1.2-0.2-1.7-0.4c0.2-0.3,0.3-0.9,0.5-0.9c0.6,0,1.2,0.1,1.8,0.2
					C290.2,260.1,290,260.4,289.8,260.8z"/>
			</g>
			<g id="XMLID_529_">
				<path id="XMLID_530_" class="st11" d="M248.4,261.6c0.2-0.4,0.4-0.7,0.6-1c0.4,0.4,0.9,0.8,1.2,1.2c0.1,0.2-0.3,0.6-0.5,0.9
					C249.3,262.4,248.8,262,248.4,261.6z"/>
			</g>
			<g id="XMLID_531_">
				<path id="XMLID_532_" class="st11" d="M256.1,430.4c-0.6-0.1-1.2-0.2-1.7-0.4c0.2-0.3,0.3-0.9,0.5-0.9c0.6,0,1.2,0.1,1.8,0.2
					C256.5,429.7,256.3,430,256.1,430.4z"/>
			</g>
			<g id="XMLID_533_">
				<path id="XMLID_534_" class="st11" d="M240.9,391c0.4,0.2,0.7,0.4,1.1,0.5c-0.4,0.4-0.8,0.8-1.3,1.1c-0.2,0.1-0.6-0.3-1-0.5
					C240.1,391.8,240.5,391.4,240.9,391z"/>
			</g>
			<g id="XMLID_535_">
				<path id="XMLID_536_" class="st11" d="M262.9,190.9c0.2-0.4,0.4-0.7,0.6-1c0.4,0.4,0.9,0.8,1.2,1.2c0.1,0.2-0.3,0.6-0.5,0.9
					C263.8,191.7,263.3,191.3,262.9,190.9z"/>
			</g>
			<g id="XMLID_537_">
				<path id="XMLID_538_" class="st11" d="M242.9,410.1c0.4-0.5,0.7-0.9,1.1-1.4c0.3,0.4,0.9,1,0.8,1.2c-0.4,0.5-1,0.8-1.5,1.1
					C243.1,410.7,243,410.4,242.9,410.1z"/>
			</g>
			<g id="XMLID_539_">
				<path id="XMLID_540_" class="st11" d="M242.5,413.3c-0.3-0.2-1-0.4-0.9-0.5c0.1-0.5,0.4-1.1,0.6-1.6c0.4,0.2,0.9,0.4,1.3,0.7
					C243.2,412.4,242.8,412.9,242.5,413.3z"/>
			</g>
			<g id="XMLID_541_">
				<path id="XMLID_542_" class="st11" d="M218.8,361.6c-0.6-0.1-1.2-0.2-1.7-0.4c0.2-0.3,0.3-0.9,0.5-0.9c0.6,0,1.2,0.1,1.8,0.2
					C219.2,360.9,219,361.2,218.8,361.6z"/>
			</g>
			<g id="XMLID_543_">
				<path id="XMLID_544_" class="st11" d="M180.9,257.9c-0.4,0.4-0.8,0.8-1.3,1.1c-0.2,0.1-0.6-0.3-1-0.5c0.4-0.4,0.8-0.8,1.3-1.1
					C180.1,257.3,180.6,257.7,180.9,257.9z"/>
			</g>
			<g id="XMLID_545_">
				<path id="XMLID_546_" class="st11" d="M292.4,225.8c-0.4-0.2-0.7-0.4-1.1-0.5c0.4-0.4,0.8-0.8,1.3-1.1c0.2-0.1,0.6,0.3,1,0.5
					C293.2,225.1,292.8,225.5,292.4,225.8z"/>
			</g>
			<g id="XMLID_547_">
				<path id="XMLID_548_" class="st11" d="M233.2,230.1c-0.6-0.1-1.2-0.2-1.7-0.4c0.2-0.3,0.3-0.9,0.5-0.9c0.6,0,1.2,0.1,1.8,0.2
					C233.6,229.5,233.4,229.8,233.2,230.1z"/>
			</g>
			<g id="XMLID_549_">
				<path id="XMLID_550_" class="st11" d="M332.9,390.3c0.1-0.5,0.3-1.1,0.4-1.6c0.3,0.2,0.9,0.3,1,0.5c0,0.5-0.2,1.1-0.3,1.6
					C333.6,390.7,333.3,390.5,332.9,390.3z"/>
			</g>
			<g id="XMLID_551_">
				<path id="XMLID_552_" class="st11" d="M210.7,251.7c-0.4,0.4-0.8,0.8-1.3,1.1c-0.2,0.1-0.6-0.3-1-0.5c0.4-0.4,0.8-0.8,1.3-1.1
					C209.9,251.2,210.4,251.6,210.7,251.7z"/>
			</g>
			<g id="XMLID_553_">
				<path id="XMLID_554_" class="st11" d="M175.9,305.4c-0.2,0.4-0.4,0.7-0.6,1c-0.4-0.4-0.9-0.8-1.2-1.2c-0.1-0.2,0.3-0.6,0.5-0.9
					C175.1,304.6,175.5,305,175.9,305.4z"/>
			</g>
			<g id="XMLID_555_">
				<path id="XMLID_556_" class="st11" d="M330.7,373.1c-0.4-0.4-0.9-0.8-1.2-1.2c-0.1-0.2,0.3-0.6,0.5-0.9c0.4,0.4,0.9,0.8,1.2,1.2
					C331.3,372.4,330.9,372.8,330.7,373.1z"/>
			</g>
			<g id="XMLID_557_">
				<path id="XMLID_558_" class="st11" d="M303.4,350c-0.6-0.1-1.2-0.2-1.7-0.4c0.2-0.3,0.3-0.9,0.5-0.9c0.6,0,1.2,0.1,1.8,0.2
					C303.8,349.4,303.7,349.7,303.4,350z"/>
			</g>
			<g id="XMLID_559_">
				<path id="XMLID_560_" class="st11" d="M302.9,287.5c-0.3-0.2-1-0.4-0.9-0.5c0.1-0.5,0.4-1.1,0.6-1.6c0.4,0.2,0.9,0.4,1.3,0.7
					C303.6,286.6,303.3,287.1,302.9,287.5z"/>
			</g>
			<g id="XMLID_561_">
				<path id="XMLID_562_" class="st11" d="M170,339.5c0.1-0.5,0.3-1.1,0.4-1.6c0.3,0.2,0.9,0.3,1,0.5c0,0.5-0.2,1.1-0.3,1.6
					C170.7,339.9,170.4,339.7,170,339.5z"/>
			</g>
			<g id="XMLID_563_">
				<path id="XMLID_564_" class="st11" d="M303.3,284.3c0.4-0.5,0.7-0.9,1.1-1.4c0.3,0.4,0.9,1,0.8,1.2c-0.4,0.5-1,0.8-1.5,1.1
					C303.5,284.9,303.4,284.6,303.3,284.3z"/>
			</g>
			<g id="XMLID_565_">
				<path id="XMLID_566_" class="st11" d="M302.4,280.1c0.1-0.5,0.3-1.1,0.4-1.6c0.3,0.2,0.9,0.3,1,0.5c0,0.5-0.2,1.1-0.3,1.6
					C303.1,280.5,302.8,280.3,302.4,280.1z"/>
			</g>
			<g id="XMLID_567_">
				<path id="XMLID_568_" class="st11" d="M163.1,336.1c-0.1,0.5-0.3,1.1-0.4,1.6c-0.3-0.2-0.9-0.3-1-0.5c0-0.5,0.2-1.1,0.3-1.6
					C162.4,335.7,162.7,335.9,163.1,336.1z"/>
			</g>
			<g id="XMLID_569_">
				<path id="XMLID_570_" class="st11" d="M182,404.2c-0.6-0.1-1.2-0.2-1.7-0.4c0.2-0.3,0.3-0.9,0.5-0.9c0.6,0,1.2,0.1,1.8,0.2
					C182.4,403.5,182.2,403.8,182,404.2z"/>
			</g>
			<g id="XMLID_571_">
				<path id="XMLID_572_" class="st11" d="M196.8,196.3c-0.5-0.3-1-0.6-1.5-1c0.4-0.3,1.1-0.8,1.3-0.7c0.5,0.3,0.8,0.9,1.2,1.4
					C197.5,196.1,197.1,196.2,196.8,196.3z"/>
			</g>
			<g id="XMLID_573_">
				<path id="XMLID_574_" class="st11" d="M289.6,323.9c-0.4-0.4-0.9-0.8-1.2-1.2c-0.1-0.2,0.3-0.6,0.5-0.9c0.4,0.4,0.9,0.8,1.2,1.2
					C290.2,323.2,289.8,323.6,289.6,323.9z"/>
			</g>
			<g id="XMLID_575_">
				<path id="XMLID_576_" class="st11" d="M237.3,227.4c0.4,0.2,0.7,0.4,1.1,0.5c-0.4,0.4-0.8,0.8-1.3,1.1c-0.2,0.1-0.6-0.3-1-0.5
					C236.5,228.1,236.9,227.7,237.3,227.4z"/>
			</g>
			<g id="XMLID_577_">
				<path id="XMLID_578_" class="st11" d="M270.2,231.4c-0.2,0.4-0.4,0.7-0.6,1c-0.4-0.4-0.9-0.8-1.2-1.2c-0.1-0.2,0.3-0.6,0.5-0.9
					C269.4,230.7,269.8,231,270.2,231.4z"/>
			</g>
			<g id="XMLID_579_">
				<path id="XMLID_580_" class="st11" d="M173.1,423.5c0.4,0.2,0.7,0.4,1.1,0.5c-0.4,0.4-0.8,0.8-1.3,1.1c-0.2,0.1-0.6-0.3-1-0.5
					C172.3,424.3,172.7,423.9,173.1,423.5z"/>
			</g>
			<g id="XMLID_581_">
				<path id="XMLID_582_" class="st11" d="M105.8,184.6c-0.2,0.4-0.4,0.7-0.6,1c-0.4-0.4-0.9-0.8-1.2-1.2c-0.1-0.2,0.3-0.6,0.5-0.9
					C105,183.8,105.4,184.2,105.8,184.6z"/>
			</g>
			<g id="XMLID_583_">
				<path id="XMLID_584_" class="st11" d="M169.1,384.6c0.6,0.1,1.2,0.2,1.7,0.4c-0.2,0.3-0.3,0.9-0.5,0.9c-0.6,0-1.2-0.1-1.8-0.2
					C168.7,385.3,168.9,385,169.1,384.6z"/>
			</g>
			<g id="XMLID_585_">
				<path id="XMLID_586_" class="st11" d="M146.4,374.4c-0.4-0.2-0.7-0.4-1.1-0.5c0.4-0.4,0.8-0.8,1.3-1.1c0.2-0.1,0.6,0.3,1,0.5
					C147.2,373.6,146.8,374,146.4,374.4z"/>
			</g>
			<g id="XMLID_587_">
				<path id="XMLID_588_" class="st11" d="M103.5,191.8c-0.4,0.4-0.8,0.8-1.3,1.1c-0.2,0.1-0.6-0.3-1-0.5c0.4-0.4,0.8-0.8,1.3-1.1
					C102.7,191.3,103.1,191.7,103.5,191.8z"/>
			</g>
			<g id="XMLID_589_">
				<path id="XMLID_590_" class="st11" d="M153.9,405.5c0.6,0.1,1.2,0.2,1.7,0.4c-0.2,0.3-0.3,0.9-0.5,0.9c-0.6,0-1.2-0.1-1.8-0.2
					C153.5,406.2,153.7,405.9,153.9,405.5z"/>
			</g>
			<g id="XMLID_591_">
				<path id="XMLID_592_" class="st11" d="M157.3,426.5c0.4-0.5,0.7-0.9,1.1-1.4c0.3,0.4,0.9,1,0.8,1.2c-0.4,0.5-1,0.8-1.6,1.1
					C157.5,427.1,157.4,426.8,157.3,426.5z"/>
			</g>
			<g id="XMLID_593_">
				<path id="XMLID_594_" class="st11" d="M156.9,429.8c-0.3-0.2-1-0.4-0.9-0.5c0.1-0.5,0.4-1,0.6-1.6c0.4,0.2,0.9,0.4,1.3,0.7
					C157.5,428.9,157.2,429.3,156.9,429.8z"/>
			</g>
			<g id="XMLID_595_">
				<path id="XMLID_596_" class="st11" d="M164.6,417.8c-0.4-0.2-0.7-0.4-1.1-0.5c0.4-0.4,0.8-0.8,1.3-1.1c0.2-0.1,0.6,0.3,1,0.5
					C165.4,417,165,417.4,164.6,417.8z"/>
			</g>
			<g id="XMLID_597_">
				<path id="XMLID_598_" class="st11" d="M104.5,328.4c0.4,0.2,0.7,0.4,1.1,0.5c-0.4,0.4-0.8,0.8-1.3,1.1c-0.2,0.1-0.6-0.3-1-0.5
					C103.7,329.1,104.1,328.7,104.5,328.4z"/>
			</g>
			<g id="XMLID_599_">
				<path id="XMLID_600_" class="st11" d="M94.2,250.5c-0.2,0.4-0.4,0.7-0.6,1c-0.4-0.4-0.9-0.8-1.2-1.2c-0.1-0.2,0.3-0.6,0.5-0.9
					C93.4,249.7,93.8,250.1,94.2,250.5z"/>
			</g>
			<g id="XMLID_601_">
				<path id="XMLID_602_" class="st11" d="M77.8,211.3c-0.4-0.2-0.7-0.4-1.1-0.5c0.4-0.4,0.8-0.8,1.3-1.1c0.2-0.1,0.6,0.3,1,0.5
					C78.6,210.5,78.2,210.9,77.8,211.3z"/>
			</g>
			<g id="XMLID_603_">
				<path id="XMLID_604_" class="st11" d="M106.5,299.1c-0.4-0.4-0.9-0.8-1.2-1.2c-0.1-0.2,0.3-0.6,0.5-0.9c0.4,0.4,0.9,0.8,1.2,1.2
					C107.1,298.4,106.7,298.8,106.5,299.1z"/>
			</g>
			<g id="XMLID_605_">
				<path id="XMLID_606_" class="st11" d="M85.8,319.5c0.6,0.1,1.2,0.2,1.7,0.4c-0.2,0.3-0.3,0.9-0.5,0.9c-0.6,0-1.2-0.1-1.8-0.2
					C85.4,320.2,85.6,319.9,85.8,319.5z"/>
			</g>
			<g id="XMLID_607_">
				<path id="XMLID_608_" class="st11" d="M93.7,345.8c0.2-0.4,0.4-0.7,0.6-1c0.4,0.4,0.9,0.8,1.2,1.2c0.1,0.2-0.3,0.6-0.5,0.9
					C94.6,346.5,94.1,346.1,93.7,345.8z"/>
			</g>
			<g id="XMLID_609_">
				<path id="XMLID_610_" class="st11" d="M298,251c0.1-0.5,0.3-1.1,0.4-1.6c0.3,0.2,0.9,0.3,1,0.5c0,0.5-0.2,1.1-0.3,1.6
					C298.8,251.4,298.4,251.2,298,251z"/>
			</g>
			<g id="XMLID_611_">
				<path id="XMLID_612_" class="st11" d="M299.6,164.9c-0.4,0.4-0.8,0.8-1.3,1.1c-0.2,0.1-0.6-0.3-1-0.5c0.4-0.4,0.8-0.8,1.3-1.1
					C298.8,164.4,299.3,164.8,299.6,164.9z"/>
			</g>
			<g id="XMLID_613_">
				<path id="XMLID_614_" class="st11" d="M100.2,371c-0.4-0.4-0.9-0.8-1.2-1.2c-0.1-0.2,0.3-0.6,0.5-0.9c0.4,0.4,0.9,0.8,1.2,1.2
					C100.8,370.3,100.4,370.7,100.2,371z"/>
			</g>
		</g>
		<g id="XMLID_615_">
			<g id="XMLID_616_">
				<path id="XMLID_617_" class="st11" d="M123.9,456c-0.9,1.8-1,3.4-2,4c-2.8,1.7-3.6-0.9-4.2-2.4c-0.4-1,0.4-2.5,0.6-3.7
					C119.9,454.5,121.5,455.1,123.9,456z"/>
			</g>
			<g id="XMLID_622_">
				<path id="XMLID_623_" class="st11" d="M28.7,384.7c1.4-1.7,1.8-2.7,2.5-3c1.7-0.7,3.3-2.9,5.3-0.7c0.6,0.7,0.3,2.1,0.5,3.1
					C34.6,384.3,32.3,384.5,28.7,384.7z"/>
			</g>
			<g id="XMLID_624_">
				<path id="XMLID_625_" class="st11" d="M33.7,373.9c-0.9-0.7-2.4-1.5-2.5-2.3c-0.2-2.1,0.3-4.3,0.6-6.4c0.7,0.4,1.7,0.6,2,1.1
					c0.7,1.7,1.2,3.6,1.7,5.4C34.9,372.5,34.3,373.2,33.7,373.9z"/>
			</g>
			<g id="XMLID_626_">
				<path id="XMLID_627_" class="st11" d="M22.9,317.6c0.1,0-0.5,0-0.7-0.3c-0.6-0.8-1.8-1.9-1.6-2.6c0.4-1.5,1.4-3,2.6-4
					c0.5-0.4,2.2,0.5,3.4,0.9c0.2,0.1,0.4,0.6,0.4,0.7C25.7,314,24.3,315.7,22.9,317.6z"/>
			</g>
			<g id="XMLID_628_">
				<path id="XMLID_629_" class="st11" d="M90.7,559.8c-0.3,2-0.5,3.2-0.6,4.4c-1.8-0.8-3.7-1.4-5.2-2.5c-0.4-0.3,0.3-1.8,0.4-2.8
					C86.9,559.1,88.5,559.4,90.7,559.8z"/>
			</g>
			<g id="XMLID_630_">
				<path id="XMLID_631_" class="st11" d="M80.1,534.6c1.1,0.1,2.6,0.2,4,0.6c0.8,0.2,1.4,1.1,2,1.7c-0.6,0.4-1.2,1.3-1.8,1.3
					c-1.6-0.1-3.1-0.4-4.6-0.8c-0.4-0.1-0.7-0.9-0.8-1.4C78.8,535.8,79.3,535.4,80.1,534.6z"/>
			</g>
			<g id="XMLID_632_">
				<path id="XMLID_633_" class="st11" d="M195,398.7c-2.3-0.7-4.1-0.9-4.2-1.4c-0.2-1.2,0.2-2.5,0.8-3.6c0.1-0.3,2.6,0,2.9,0.5
					C195,395.2,194.8,396.5,195,398.7z"/>
			</g>
			<g id="XMLID_634_">
				<path id="XMLID_635_" class="st11" d="M101.8,548.4c-0.1-1.3-0.1-2.4-0.1-3.4c1.7,0.6,3.8,0.9,4.9,2c0.6,0.6-0.8,2.7-1.3,4.1
					C104.1,550.2,103,549.3,101.8,548.4z"/>
			</g>
			<g id="XMLID_636_">
				<path id="XMLID_637_" class="st11" d="M46.7,370.8c-0.3,0-1.5,0-1.5-0.1c-0.2-1.3-0.5-2.7,0-3.8c0.2-0.4,2.1-0.3,3.2-0.4
					C47.9,367.8,47.3,369.2,46.7,370.8z"/>
			</g>
			<g id="XMLID_638_">
				<path id="XMLID_639_" class="st11" d="M177.3,549.8c-0.5,0.8-1,2-1.3,2c-1.3,0-2.7-0.3-3.9-0.8c-0.3-0.1-0.2-1.3-0.3-2
					C173.6,549.2,175.4,549.5,177.3,549.8z"/>
			</g>
			<g id="XMLID_640_">
				<path id="XMLID_641_" class="st11" d="M65.3,457.5c0.1-0.6,0.1-1.7,0.2-1.7c1.4-0.1,2.9-0.4,4.1,0c0.5,0.2,0.3,1.9,0.4,3
					C68.6,458.4,67,457.9,65.3,457.5z"/>
			</g>
			<g id="XMLID_642_">
				<path id="XMLID_643_" class="st11" d="M74.2,322.9c-1.6-0.5-3.1-0.9-4.7-1.4c0.4-0.8,1-2.3,1.2-2.2c1.3,0.3,2.6,0.7,3.7,1.4
					C74.7,320.9,74.3,322.1,74.2,322.9z"/>
			</g>
			<g id="XMLID_644_">
				<path id="XMLID_645_" class="st11" d="M116.8,575.8c-0.4-0.3-1.1-0.9-1.9-1.5c1.2-0.9,2.4-2,3.7-2.7c0.7-0.3,1.8,0.2,2.8,0.3
					C120.2,572.9,119,573.9,116.8,575.8z"/>
			</g>
			<g id="XMLID_646_">
				<path id="XMLID_647_" class="st11" d="M247.3,508.7c-0.5,1-0.8,2.3-1.6,3.2c-0.3,0.4-1.4,0.3-2.2,0.4c0.3-1.7,0.6-3.3,0.9-5
					C245.1,507.7,245.8,508,247.3,508.7z"/>
			</g>
			<g id="XMLID_648_">
				<path id="XMLID_649_" class="st11" d="M16.4,426.1c-1.1-0.4-2.5-0.8-3.5-1.4c-0.4-0.3-0.3-1.3-0.4-2c1.8,0.3,3.6,0.5,5.4,0.8
					C17.6,424.1,17.2,424.8,16.4,426.1z"/>
			</g>
			<g id="XMLID_650_">
				<path id="XMLID_651_" class="st11" d="M159.4,519.9c-1.1-0.1-1.9-0.2-2.7-0.2c0.7-0.8,1.3-1.8,2.3-2.4c0.5-0.3,1.5,0.1,2.3,0.1
					C160.6,518.3,159.9,519.1,159.4,519.9z"/>
			</g>
			<g id="XMLID_652_">
				<path id="XMLID_653_" class="st11" d="M82.8,519.8c0.1-1.1,0.2-1.8,0.3-2.5c0.9,0.7,1.9,1.2,2.6,2.1c0.3,0.5-0.1,1.4-0.1,2.1
					C84.5,520.9,83.6,520.3,82.8,519.8z"/>
			</g>
			<g id="XMLID_654_">
				<path id="XMLID_655_" class="st11" d="M134.9,373.8c-1,0-2.1,0-3.3,0c0.4-0.6,0.6-1.6,1.1-1.8c1-0.4,2.3-0.3,3.4-0.4
					C135.8,372.2,135.4,372.8,134.9,373.8z"/>
			</g>
			<g id="XMLID_656_">
				<path id="XMLID_657_" class="st11" d="M145.8,426.8c-1.1-0.1-2.2,0.1-2.3-0.2c-0.5-1-0.6-2-0.9-3.1c0.6,0,1.7-0.2,1.9,0.1
					C145.1,424.5,145.3,425.5,145.8,426.8z"/>
			</g>
			<g id="XMLID_658_">
				<path id="XMLID_659_" class="st11" d="M91.2,522.8c0.2,2,0.3,2.7,0.4,3.4c-0.8-0.4-1.9-0.5-2.5-1.1c-0.4-0.4-0.2-1.3-0.3-2
					C89.8,522.9,90.8,522.8,91.2,522.8z"/>
			</g>
			<g id="XMLID_660_">
				<path id="XMLID_661_" class="st11" d="M187.1,405.2c0.2,2,0.3,2.7,0.4,3.4c-0.8-0.4-1.9-0.5-2.5-1.1c-0.4-0.4-0.2-1.3-0.3-2
					C185.7,405.4,186.6,405.3,187.1,405.2z"/>
			</g>
			<g id="XMLID_662_">
				<path id="XMLID_663_" class="st11" d="M99.3,427c0.3-0.3,0.9-1,1.5-1.7c0.6,0.4,1.5,0.8,1.7,1.4c0.2,0.8-0.2,1.7-0.4,2.5
					C101.5,428.7,100.9,428.3,99.3,427z"/>
			</g>
			<g id="XMLID_664_">
				<path id="XMLID_665_" class="st11" d="M115.8,471.8c-0.3-0.2-1.1-0.8-1.9-1.4c0.5-0.5,0.9-1.4,1.5-1.6c0.8-0.2,1.8,0.2,2.7,0.3
					C117.6,469.7,117.1,470.3,115.8,471.8z"/>
			</g>
			<g id="XMLID_666_">
				<path id="XMLID_667_" class="st11" d="M85,416.1c0.2,2,0.3,2.7,0.4,3.4c-0.8-0.4-1.9-0.5-2.5-1.1c-0.4-0.4-0.2-1.3-0.3-2
					C83.6,416.2,84.6,416.1,85,416.1z"/>
			</g>
			<g id="XMLID_668_">
				<path id="XMLID_669_" class="st11" d="M56.7,461c0.3-0.3,0.9-1,1.5-1.7c0.6,0.4,1.6,0.8,1.7,1.4c0.2,0.8-0.2,1.7-0.4,2.5
					C58.9,462.6,58.3,462.2,56.7,461z"/>
			</g>
			<g id="XMLID_670_">
				<path id="XMLID_671_" class="st11" d="M19.3,403.3c-2.2,0.2-2.9,0.3-3.7,0.3c0.4-0.8,0.6-1.7,1.2-2.3c0.4-0.4,2.1-0.4,2.1-0.2
					C19.2,401.9,19.2,402.9,19.3,403.3z"/>
			</g>
			<g id="XMLID_672_">
				<path id="XMLID_673_" class="st11" d="M248.5,484.3c-2.1,0.2-2.9,0.3-3.6,0.3c0.4-0.8,0.6-1.7,1.2-2.3c0.4-0.4,1.5-0.2,2.2-0.3
					C248.4,483,248.4,483.9,248.5,484.3z"/>
			</g>
			<g id="XMLID_674_">
				<path id="XMLID_192_" class="st11" d="M-1.3,469.6c1,0,2.1,0,3.3,0c-0.4,0.6-0.6,1.6-1.1,1.8"/>
			</g>
			<g id="XMLID_676_">
				<path id="XMLID_677_" class="st11" d="M90,367.5c-0.4,0.5-0.7,1-1.1,1.4c-0.2,0.1-0.7-0.2-1.1-0.3c0.4-0.5,0.7-1,1.1-1.4
					C89,367.1,89.6,367.4,90,367.5z"/>
			</g>
			<g id="XMLID_678_">
				<path id="XMLID_679_" class="st11" d="M74.2,345.9c-0.1,0.4-0.2,1-0.3,1c-0.6,0-1.3-0.2-1.9-0.3c0.2-0.5,0.3-1,0.5-1.4
					C73.1,345.4,73.7,345.6,74.2,345.9z"/>
			</g>
			<g id="XMLID_680_">
				<path id="XMLID_681_" class="st11" d="M148.5,438.6c-0.5-0.1-0.9-0.2-1.2-0.3c0.4-0.5,0.7-1,1.1-1.4c0.2-0.1,0.7,0.2,1.1,0.3
					C149.2,437.6,148.8,438.1,148.5,438.6z"/>
			</g>
			<g id="XMLID_682_">
				<path id="XMLID_683_" class="st11" d="M21.8,359c-0.5-0.1-0.9-0.2-1.2-0.3c0.4-0.5,0.7-1,1.1-1.4c0.2-0.1,0.7,0.2,1.1,0.3
					C22.5,358,22.2,358.5,21.8,359z"/>
			</g>
			<g id="XMLID_684_">
				<path id="XMLID_685_" class="st11" d="M148.4,457.8c-0.5-0.3-1.1-0.6-1.5-1.1c-0.1-0.2,0.2-0.7,0.3-1c0.5,0.3,1.1,0.6,1.5,1.1
					C148.9,456.9,148.6,457.5,148.4,457.8z"/>
			</g>
			<g id="XMLID_686_">
				<path id="XMLID_687_" class="st11" d="M135.7,388.6c0-0.6,0-1.2,0-1.7c0.4,0.1,1.1,0.1,1.1,0.3c0.2,0.6,0.1,1.2,0.1,1.8
					C136.6,388.9,136.2,388.8,135.7,388.6z"/>
			</g>
			<g id="XMLID_688_">
				<path id="XMLID_689_" class="st11" d="M247.3,429.4c-1,0-2.1,0-3.2,0c0.2-0.6,0.3-1.6,0.6-1.7c1-0.3,2.1-0.1,3.2-0.2
					C247.8,428.1,247.6,428.7,247.3,429.4z"/>
			</g>
			<g id="XMLID_690_">
				<path id="XMLID_691_" class="st11" d="M147.5,468.1c0-0.6,0-1.2,0-1.7c0.4,0.1,1.1,0.1,1.1,0.3c0.2,0.5,0.1,1.2,0.1,1.8
					C148.4,468.3,148,468.2,147.5,468.1z"/>
			</g>
			<g id="XMLID_692_">
				<path id="XMLID_693_" class="st11" d="M193.3,413.8c-0.6,0-1.3,0-1.9,0c0.1-0.4,0.2-1,0.4-1c0.6-0.2,1.3-0.1,1.9-0.1
					C193.6,413,193.5,413.4,193.3,413.8z"/>
			</g>
			<g id="XMLID_694_">
				<path id="XMLID_695_" class="st11" d="M106.7,537.9c-0.5-0.3-1.1-0.6-1.5-1.1c-0.1-0.2,0.2-0.7,0.3-1c0.5,0.3,1.1,0.6,1.5,1.1
					C107.2,537,106.8,537.6,106.7,537.9z"/>
			</g>
			<g id="XMLID_696_">
				<path id="XMLID_697_" class="st11" d="M108.5,522.7c0-0.6,0-1.2,0-1.7c0.4,0.1,1.1,0.1,1.1,0.3c0.2,0.6,0.1,1.2,0.1,1.8
					C109.3,522.9,108.9,522.8,108.5,522.7z"/>
			</g>
			<g id="XMLID_698_">
				<path id="XMLID_699_" class="st11" d="M182.4,395c-0.6,0-1.3,0-1.9,0c0.1-0.4,0.2-1,0.4-1c0.6-0.2,1.3-0.1,1.9-0.1
					C182.6,394.2,182.5,394.6,182.4,395z"/>
			</g>
			<g id="XMLID_700_">
				<path id="XMLID_701_" class="st11" d="M139.5,404.1c0.1-0.4,0.3-0.8,0.4-1.1c0.5,0.3,1.1,0.6,1.5,1.1c0.1,0.2-0.2,0.7-0.3,1
					C140.5,404.7,140,404.4,139.5,404.1z"/>
			</g>
			<g id="XMLID_702_">
				<path id="XMLID_703_" class="st11" d="M186.8,578.3c-0.6,0-1.3,0-1.9,0c0.1-0.4,0.2-1,0.4-1c0.6-0.2,1.3-0.1,1.9-0.1
					C187.1,577.5,187,577.9,186.8,578.3z"/>
			</g>
			<g id="XMLID_704_">
				<path id="XMLID_705_" class="st11" d="M161.8,540.4c0.5,0.1,0.9,0.2,1.2,0.3c-0.4,0.5-0.7,1-1.1,1.4c-0.2,0.1-0.7-0.2-1.1-0.3
					C161.1,541.3,161.5,540.8,161.8,540.4z"/>
			</g>
			<g id="XMLID_706_">
				<path id="XMLID_707_" class="st11" d="M138.1,327.5c0.1-0.4,0.3-0.8,0.4-1.1c0.5,0.3,1.1,0.6,1.5,1.1c0.1,0.2-0.2,0.7-0.3,1
					C139.2,328.1,138.6,327.8,138.1,327.5z"/>
			</g>
			<g id="XMLID_708_">
				<path id="XMLID_709_" class="st11" d="M168.3,559.8c0.3-0.5,0.5-1.1,0.8-1.6c0.4,0.4,1.2,0.9,1.1,1.1c-0.3,0.6-0.9,1-1.4,1.5
					C168.7,560.4,168.5,560.1,168.3,559.8z"/>
			</g>
			<g id="XMLID_710_">
				<path id="XMLID_711_" class="st11" d="M168.6,563.3c-0.4-0.1-1.1-0.2-1.1-0.3c0-0.6,0.2-1.2,0.3-1.8c0.5,0.1,1,0.3,1.6,0.4
					C169.1,562.2,168.9,562.7,168.6,563.3z"/>
			</g>
			<g id="XMLID_712_">
				<path id="XMLID_713_" class="st11" d="M131.9,514c-0.6,0-1.3,0-1.9,0c0.1-0.4,0.2-1,0.4-1c0.6-0.2,1.3-0.1,1.9-0.1
					C132.1,513.2,132,513.6,131.9,514z"/>
			</g>
			<g id="XMLID_714_">
				<path id="XMLID_715_" class="st11" d="M68.3,413.5c-0.4,0.5-0.7,1-1.1,1.4c-0.2,0.1-0.7-0.2-1.1-0.3c0.4-0.5,0.7-1,1.1-1.4
					C67.3,413.1,67.9,413.4,68.3,413.5z"/>
			</g>
			<g id="XMLID_716_">
				<path id="XMLID_717_" class="st11" d="M177,358.1c-0.5-0.1-0.9-0.2-1.2-0.3c0.4-0.5,0.7-1,1.1-1.4c0.2-0.1,0.7,0.2,1.1,0.3
					C177.7,357.1,177.3,357.6,177,358.1z"/>
			</g>
			<g id="XMLID_718_">
				<path id="XMLID_719_" class="st11" d="M116.3,374.3c-0.6,0-1.3,0-1.9,0c0.1-0.4,0.2-1,0.4-1c0.6-0.2,1.3-0.1,1.9-0.1
					C116.5,373.5,116.4,373.9,116.3,374.3z"/>
			</g>
			<g id="XMLID_720_">
				<path id="XMLID_721_" class="st11" d="M257.4,521.4c0-0.6,0-1.2,0-1.7c0.4,0.1,1.1,0.1,1.1,0.3c0.2,0.5,0.1,1.2,0.1,1.8
					C258.3,521.7,257.9,521.6,257.4,521.4z"/>
			</g>
			<g id="XMLID_722_">
				<path id="XMLID_723_" class="st11" d="M97.9,401.2c-0.4,0.5-0.7,1-1.1,1.4c-0.2,0.1-0.7-0.2-1.1-0.3c0.4-0.5,0.7-1,1.1-1.4
					C97,400.8,97.5,401.1,97.9,401.2z"/>
			</g>
			<g id="XMLID_724_">
				<path id="XMLID_725_" class="st11" d="M74.2,463.9c-0.1,0.4-0.3,0.8-0.4,1.1c-0.5-0.3-1.1-0.6-1.5-1.1c-0.1-0.2,0.2-0.7,0.3-1
					C73.1,463.3,73.6,463.6,74.2,463.9z"/>
			</g>
			<g id="XMLID_726_">
				<path id="XMLID_727_" class="st11" d="M251.2,504c-0.5-0.3-1.1-0.6-1.5-1.1c-0.1-0.2,0.2-0.7,0.3-1c0.5,0.3,1.1,0.6,1.5,1.1
					C251.7,503.1,251.3,503.6,251.2,504z"/>
			</g>
			<g id="XMLID_728_">
				<path id="XMLID_729_" class="st11" d="M217.4,485.3c-0.6,0-1.3,0-1.9,0c0.1-0.4,0.2-1,0.4-1c0.6-0.2,1.3-0.1,1.9-0.1
					C217.7,484.5,217.5,484.9,217.4,485.3z"/>
			</g>
			<g id="XMLID_730_">
				<path id="XMLID_731_" class="st11" d="M202.3,420.3c-0.4-0.1-1.1-0.2-1.1-0.3c0-0.6,0.2-1.2,0.3-1.8c0.5,0.1,1,0.3,1.6,0.4
					C202.8,419.2,202.5,419.8,202.3,420.3z"/>
			</g>
			<g id="XMLID_732_">
				<path id="XMLID_733_" class="st11" d="M75.9,500.7c0-0.6,0-1.2,0-1.7c0.4,0.1,1.1,0.1,1.1,0.3c0.2,0.5,0.1,1.2,0.1,1.8
					C76.8,500.9,76.4,500.8,75.9,500.7z"/>
			</g>
			<g id="XMLID_734_">
				<path id="XMLID_735_" class="st11" d="M202,416.8c0.3-0.5,0.5-1.1,0.8-1.6c0.4,0.4,1.2,0.9,1.1,1.1c-0.3,0.6-0.9,1-1.4,1.5
					C202.3,417.4,202.1,417.1,202,416.8z"/>
			</g>
			<g id="XMLID_736_">
				<path id="XMLID_737_" class="st11" d="M200,412.6c0-0.6,0-1.2,0-1.7c0.4,0.1,1.1,0.1,1.1,0.3c0.2,0.5,0.1,1.2,0.1,1.8
					C200.8,412.9,200.4,412.8,200,412.6z"/>
			</g>
			<g id="XMLID_738_">
				<path id="XMLID_739_" class="st11" d="M68,498.5c0,0.6,0,1.2,0,1.7c-0.4-0.1-1.1-0.1-1.1-0.3c-0.2-0.5-0.1-1.2-0.1-1.8
					C67.1,498.2,67.5,498.3,68,498.5z"/>
			</g>
			<g id="XMLID_740_">
				<path id="XMLID_741_" class="st11" d="M103.5,565.6c-0.6,0-1.3,0-1.9,0c0.1-0.4,0.2-1,0.4-1c0.6-0.2,1.3-0.1,1.9-0.1
					C103.8,564.9,103.7,565.2,103.5,565.6z"/>
			</g>
			<g id="XMLID_742_">
				<path id="XMLID_743_" class="st11" d="M70.4,346.2c-0.6-0.2-1.2-0.5-1.8-0.7c0.4-0.4,1-1.1,1.2-1c0.6,0.3,1.1,0.8,1.6,1.2
					C71.1,345.8,70.8,346,70.4,346.2z"/>
			</g>
			<g id="XMLID_744_">
				<path id="XMLID_745_" class="st11" d="M196.9,460.8c-0.5-0.3-1.1-0.6-1.5-1.1c-0.1-0.2,0.2-0.7,0.3-1c0.5,0.3,1.1,0.6,1.5,1.1
					C197.4,459.9,197,460.5,196.9,460.8z"/>
			</g>
			<g id="XMLID_746_">
				<path id="XMLID_747_" class="st11" d="M119.9,370.6c0.5,0.1,0.9,0.2,1.2,0.3c-0.4,0.5-0.7,1-1.1,1.4c-0.2,0.1-0.7-0.2-1.1-0.3
					C119.3,371.5,119.6,371,119.9,370.6z"/>
			</g>
			<g id="XMLID_748_">
				<path id="XMLID_749_" class="st11" d="M155.2,368.3c-0.1,0.4-0.3,0.8-0.4,1.1c-0.5-0.3-1.1-0.6-1.5-1.1c-0.1-0.2,0.2-0.7,0.3-1
					C154.1,367.7,154.6,368,155.2,368.3z"/>
			</g>
			<g id="XMLID_750_">
				<path id="XMLID_751_" class="st11" d="M98.8,587.6c0.5,0.1,0.9,0.2,1.2,0.3c-0.4,0.5-0.7,1-1.1,1.4c-0.2,0.1-0.7-0.2-1.1-0.3
					C98.1,588.6,98.4,588.1,98.8,587.6z"/>
			</g>
			<g id="XMLID_754_">
				<path id="XMLID_755_" class="st11" d="M85.5,547.9c0.6,0,1.3,0,1.9,0c-0.1,0.4-0.2,1-0.4,1c-0.6,0.2-1.3,0.1-1.9,0.1
					C85.2,548.7,85.4,548.3,85.5,547.9z"/>
			</g>
			<g id="XMLID_756_">
				<path id="XMLID_757_" class="st11" d="M59.5,541.6c-0.5-0.1-0.9-0.2-1.2-0.3c0.4-0.5,0.7-1,1.1-1.4c0.2-0.1,0.7,0.2,1.1,0.3
					C60.2,540.7,59.8,541.2,59.5,541.6z"/>
			</g>
			<g id="XMLID_760_">
				<path id="XMLID_761_" class="st11" d="M74.6,572.6c0.6,0,1.3,0,1.9,0c-0.1,0.4-0.2,1-0.4,1c-0.6,0.2-1.3,0.1-1.9,0.1
					C74.3,573.4,74.5,573,74.6,572.6z"/>
			</g>
			<g id="XMLID_762_">
				<path id="XMLID_763_" class="st11" d="M83,593.8c0.3-0.5,0.5-1.1,0.8-1.6c0.4,0.4,1.2,0.9,1.1,1.1c-0.3,0.6-0.9,1-1.4,1.5
					C83.3,594.4,83.1,594.1,83,593.8z"/>
			</g>
			<g id="XMLID_764_">
				<path id="XMLID_765_" class="st11" d="M83.3,597.3c-0.4-0.1-1.1-0.2-1.1-0.3c0-0.6,0.2-1.2,0.3-1.8c0.5,0.1,1,0.3,1.6,0.4
					C83.8,596.2,83.5,596.7,83.3,597.3z"/>
			</g>
			<g id="XMLID_766_">
				<path id="XMLID_767_" class="st11" d="M88.6,583.2c-0.5-0.1-0.9-0.2-1.2-0.3c0.4-0.5,0.7-1,1.1-1.4c0.2-0.1,0.7,0.2,1.1,0.3
					C89.2,582.3,88.9,582.8,88.6,583.2z"/>
			</g>
			<g id="XMLID_768_">
				<path id="XMLID_769_" class="st11" d="M5.1,502c0.5,0.1,0.9,0.2,1.2,0.3c-0.4,0.5-0.7,1-1.1,1.4c-0.2,0.1-0.7-0.2-1.1-0.3
					C4.5,503,4.8,502.5,5.1,502z"/>
			</g>
			<g id="XMLID_774_">
				<path id="XMLID_775_" class="st11" d="M0.4,471.1c-0.5-0.3-1.1-0.6-1.5-1.1c-0.1-0.1,0.2-0.7,0.3-1c0.5,0.3,1.1,0.6,1.5,1.1
					C0.8,470.3,0.5,470.8,0.4,471.1z"/>
			</g>
			<g id="XMLID_778_">
				<path id="XMLID_193_" class="st11" d="M-1.7,521.1c0.5,0.3,1.1,0.6,1.5,1.1c0.1,0.1-0.2,0.7-0.3,1"/>
			</g>
			<g id="XMLID_780_">
				<path id="XMLID_781_" class="st11" d="M188.7,383.2c0-0.6,0-1.2,0-1.7c0.4,0.1,1.1,0.1,1.1,0.3c0.2,0.5,0.1,1.2,0.1,1.8
					C189.6,383.5,189.2,383.4,188.7,383.2z"/>
			</g>
			<g id="XMLID_782_">
				<path id="XMLID_783_" class="st11" d="M170.3,293.2c-0.4,0.5-0.7,1-1.1,1.4c-0.2,0.1-0.7-0.2-1.1-0.3c0.4-0.5,0.7-1,1.1-1.4
					C169.3,292.8,169.9,293.1,170.3,293.2z"/>
			</g>
			<g id="XMLID_784_">
				<path id="XMLID_785_" class="st11" d="M10.6,547.3c-0.5-0.3-1.1-0.6-1.5-1.1c-0.1-0.2,0.2-0.7,0.3-1c0.5,0.3,1.1,0.6,1.5,1.1
					C11.1,546.4,10.8,546.9,10.6,547.3z"/>
			</g>
		</g>
	</g>
</g>
</svg>
