<?xml version="1.0" encoding="utf-8"?>
<!-- Generator: Adobe Illustrator 19.0.0, SVG Export Plug-In . SVG Version: 6.00 Build 0)  -->
<svg version="1.1" id="Layer_1" xmlns="http://www.w3.org/2000/svg" xmlns:xlink="http://www.w3.org/1999/xlink" x="0px" y="0px"
	 viewBox="0 0 594.7 399.1" style="enable-background:new 0 0 594.7 399.1;" xml:space="preserve">
<style type="text/css">
	.st0{fill:#C73D56;}
	.st1{fill:#066641;}
	.st2{fill:#066641;stroke:#FFFFFF;stroke-miterlimit:10;}
	.st3{font-family:'MyriadPro-Regular';}
	.st4{font-size:29.9178px;}
	.st5{font-size:40px;}
	.st6{font-size:55.4913px;}
	.st7{font-size:53.8112px;}
</style>
<g id="XMLID_3_">
	<g id="XMLID_12_">
		<g id="XMLID_13_">
			<path id="XMLID_31_" class="st0" d="M426.1,63.1l-83.3,0c-1.4,0-2-1.7-0.9-2.6c3-2.3,5.4-5,7.1-7.9c5.6-9.7,4-21.6-4.8-35.6
				c0,0,0-0.1-0.1-0.1l-0.5-0.7c0,0-0.1-0.1-0.1-0.1C333.7,5.4,323.2,0,312.3,0c-20.6,0-37.8,18.4-54.4,36.2
				c-8.4,9-16.4,17.6-23.8,22.5c-0.5,0.3-1.1,0.3-1.6,0c-7.4-4.9-15.4-13.4-23.8-22.5C192.1,18.4,174.9,0,154.3,0
				c-10.9,0-21.4,5.4-31.2,16.2c0,0-0.1,0.1-0.1,0.1l-0.5,0.7c0,0-0.1,0.1-0.1,0.1c-8.8,13.9-10.4,25.9-4.8,35.6
				c1.7,2.9,4.1,5.5,7.1,7.9c1.1,0.8,0.5,2.6-0.9,2.6l-77.5,0c-3,0-5.4,2.4-5.4,5.4v70.7c0,3,2.4,5.4,5.4,5.4h15.1
				c0.8,0,1.4,0.6,1.4,1.4v114.3v133.1c0,3,2.4,5.4,5.4,5.4h130.4h73.8h131.5c3,0,5.4-2.4,5.4-5.4V146.1c0-0.8,0.6-1.4,1.4-1.4h15.2
				c3,0,5.4-2.4,5.4-5.4V68.5C431.5,65.5,429,63.1,426.1,63.1z M266.6,43.8c14.9-16,30.3-32.5,45.7-32.5c7.4,0,14.6,3.9,22.1,11.9
				c0.1,0.1,0.1,0.2,0.2,0.3c6.2,10,7.6,17.9,4.3,23.7c-5,8.6-20.9,14.1-45.1,16c0,0-0.1,0-0.1,0h-41.9c0,0-0.1,0-0.1,0
				c-0.2,0-0.4,0-0.5,0c-1.3-0.1-1.8-1.7-0.9-2.5C255.5,55.6,260.9,49.8,266.6,43.8z M127.8,47.1c-3.3-5.8-1.9-13.7,4.3-23.7
				c0.1-0.1,0.1-0.2,0.2-0.3c7.4-8,14.6-11.9,22-11.9c15.4,0,30.8,16.5,45.7,32.5c5.6,6,11,11.8,16.5,16.8c0.9,0.9,0.4,2.4-0.9,2.5
				c-0.2,0-0.3,0-0.5,0c0,0-0.1,0-0.1,0h-41.9c0,0-0.1,0-0.1,0C148.7,61.2,132.8,55.8,127.8,47.1z M397.3,390.7 M397.3,386.2
				c-0.5,0-116.5,0.3-209.4,0.3c-16.7,0-32.6,0-47,0c-39.2,0-66.8-0.1-66.8-0.4V146.4c0-0.8,324.3-1.4,325.1-1.4 M53.8,74.4
				c0.8,0,366,0.6,366,1.4v56.1c0,0.8-365.2,1.4-366,1.4"/>
		</g>
	</g>
</g>
<g id="XMLID_26_">
	<path id="XMLID_27_" class="st0" d="M94.8,396.4H64.2V260.4h30.6V396.4z M65.7,395h27.6V261.9H65.7v15 M65.7,276.9v30.6"/>
</g>
<g id="XMLID_22_">
	<path id="XMLID_23_" class="st0" d="M146.8,351.6h-132c-2.8,0-5.1-2.3-5.1-5.2v-13.6c0-2.8,2.2-5.2,4-5.2h132
		c3.7,0,6.2,2.1,6.2,5.2v13.6C152,349.3,149.7,351.6,146.8,351.6z M13.8,329.2c-0.9,0-2.6,1.6-2.6,3.7v13.6c0,2,1.6,3.7,3.7,3.7h132
		c2,0,3.7-1.7,3.7-3.7v-13.6c0-2.2-1.9-3.7-4.8-3.7H13.8z"/>
</g>
<g id="XMLID_1_">
	<g id="XMLID_2_">
		<g id="XMLID_6_">
			<path id="XMLID_14_" class="st1" d="M159.5,260H125c-0.6,0-0.8-0.7-0.4-1.1c1.2-1,2.2-2.1,2.9-3.3c2.3-4,1.7-9-2-14.7
				c0,0,0,0,0,0l-0.2-0.3c0,0,0,0,0-0.1c-4.1-4.4-8.4-6.7-12.9-6.7c-8.5,0-15.6,7.6-22.5,15c-3.5,3.7-6.8,7.3-9.9,9.3
				c-0.2,0.1-0.5,0.1-0.6,0c-3.1-2-6.4-5.6-9.9-9.3c-6.9-7.4-14-15-22.5-15c-4.5,0-8.9,2.2-12.9,6.7c0,0,0,0,0,0.1l-0.2,0.3
				c0,0,0,0,0,0c-3.6,5.8-4.3,10.7-2,14.7c0.7,1.2,1.7,2.3,2.9,3.3c0.4,0.4,0.2,1.1-0.4,1.1H2.2C1,260,0,261,0,262.3v29.3
				c0,1.2,1,2.2,2.2,2.2h6.3c0.3,0,0.6,0.3,0.6,0.6v102.5c0,1.2,1,2.2,2.2,2.2h54h30.6h54.5c1.2,0,2.2-1,2.2-2.2V294.4
				c0-0.3,0.3-0.6,0.6-0.6h6.3c1.2,0,2.2-1,2.2-2.2v-29.3C161.8,261,160.8,260,159.5,260z M93.4,252c6.2-6.6,12.6-13.5,18.9-13.5
				c3.1,0,6.1,1.6,9.1,4.9c0,0,0.1,0.1,0.1,0.1c2.6,4.1,3.1,7.4,1.8,9.8c-2.1,3.6-8.6,5.8-18.7,6.6c0,0,0,0,0,0H87.3c0,0,0,0,0,0
				c-0.1,0-0.1,0-0.2,0c-0.5,0-0.7-0.7-0.4-1C88.9,256.9,91.1,254.5,93.4,252z M36,253.4c-1.4-2.4-0.8-5.7,1.8-9.8
				c0,0,0-0.1,0.1-0.1c3.1-3.3,6.1-4.9,9.1-4.9c6.4,0,12.8,6.9,19,13.5c2.3,2.5,4.6,4.9,6.8,6.9c0.4,0.4,0.2,1-0.4,1
				c-0.1,0-0.1,0-0.2,0c0,0,0,0,0,0H54.7c0,0,0,0,0,0C44.6,259.2,38.1,257,36,253.4z M147.6,395.7 M147.6,393.9
				c-0.3,0-133.9,0.3-133.9,0v-99.3c0-0.3,134.4-0.6,134.7-0.6 M5.3,264.7c0.3,0,151.6,0.3,151.6,0.6v23.2
				c0,0.3-151.3,0.6-151.6,0.6"/>
		</g>
	</g>
</g>
<g id="XMLID_51_">
	<path id="XMLID_52_" class="st0" d="M491.8,394.8h-47V185.7h47V394.8z M447.1,392.5h42.4V188h-42.4V392.5z"/>
</g>
<g id="XMLID_47_">
	<path id="XMLID_48_" class="st0" d="M571.8,325.9H369c-4.3,0-7.9-3.6-7.9-8v-20.8c0-4.3,3.4-8,6.2-8h202.8c5.6,0,9.6,3.3,9.6,8
		v20.8C579.7,322.3,576.1,325.9,571.8,325.9z M367.3,291.4c-1.3,0-3.9,2.5-3.9,5.7v20.8c0,3.1,2.5,5.7,5.6,5.7h202.8
		c3.1,0,5.6-2.5,5.6-5.7v-20.8c0-3.4-2.9-5.7-7.3-5.7H367.3z"/>
</g>
<g id="XMLID_30_">
	<g id="XMLID_32_">
		<g id="XMLID_36_">
			<path id="XMLID_37_" class="st2" d="M591.3,185.1h-53c-0.9,0-1.3-1.1-0.6-1.6c1.9-1.5,3.4-3.2,4.5-5c3.6-6.2,2.5-13.8-3-22.7
				c0,0,0,0,0-0.1l-0.3-0.4c0,0,0-0.1-0.1-0.1c-6.2-6.8-12.9-10.3-19.9-10.3c-13.1,0-24,11.7-34.6,23.1
				c-5.3,5.7-10.5,11.2-15.2,14.3c-0.3,0.2-0.7,0.2-1,0c-4.7-3.1-9.8-8.6-15.2-14.3c-10.6-11.3-21.5-23.1-34.6-23.1
				c-6.9,0-13.6,3.5-19.9,10.3c0,0,0,0.1-0.1,0.1l-0.3,0.4c0,0,0,0,0,0.1c-5.6,8.9-6.6,16.5-3,22.7c1.1,1.9,2.6,3.5,4.5,5
				c0.7,0.5,0.3,1.6-0.6,1.6h-49.3c-1.9,0-3.4,1.5-3.4,3.4v45c0,1.9,1.5,3.4,3.4,3.4h9.6c0.5,0,0.9,0.4,0.9,0.9v157.5
				c0,1.9,1.5,3.4,3.4,3.4h83h47h83.7c1.9,0,3.4-1.5,3.4-3.4V238c0-0.5,0.4-0.9,0.9-0.9h9.6c1.9,0,3.4-1.5,3.4-3.4v-45
				C594.7,186.7,593.2,185.1,591.3,185.1z M489.7,172.8c9.5-10.2,19.3-20.7,29.1-20.7c4.7,0,9.3,2.5,14,7.6c0,0,0.1,0.1,0.1,0.2
				c3.9,6.3,4.8,11.4,2.7,15.1c-3.2,5.5-13.3,9-28.7,10.2c0,0-0.1,0-0.1,0h-26.7c0,0,0,0-0.1,0c-0.1,0-0.2,0-0.3,0
				c-0.8-0.1-1.2-1.1-0.6-1.6C482.7,180.4,486.2,176.7,489.7,172.8z M401.4,175c-2.1-3.7-1.2-8.7,2.7-15.1c0-0.1,0.1-0.1,0.1-0.2
				c4.7-5.1,9.3-7.6,14-7.6c9.8,0,19.6,10.5,29.1,20.7c3.6,3.8,7,7.5,10.5,10.7c0.6,0.5,0.3,1.5-0.5,1.6c-0.1,0-0.2,0-0.3,0
				c0,0,0,0-0.1,0h-26.7c0,0-0.1,0-0.1,0C414.7,183.9,404.6,180.5,401.4,175z M572.9,393.7 M572.9,390.8c-0.5,0-205.8,0.5-205.8,0
				V238.2c0-0.5,206.5-0.9,207-0.9 M354.3,192.3c0.5,0,233,0.4,233,0.9v35.7c0,0.5-232.5,0.9-233,0.9"/>
		</g>
	</g>
</g>
<text id="XMLID_28_" transform="matrix(0.7692 0.4577 -0.5114 0.8594 322.3144 107.356)" class="st1 st3 st4">?</text>
<text id="XMLID_44_" transform="matrix(0.7692 0.4577 -0.5114 0.8594 216.9723 329.0964)" class="st1 st3 st4">?</text>
<text id="XMLID_42_" transform="matrix(0.8594 0.5114 -0.5114 0.8594 120.0345 114.5992)" class="st1 st3 st5">?</text>
<text id="XMLID_34_" transform="matrix(0.9977 6.857000e-02 -6.857000e-02 0.9977 236.863 199.4605)" class="st1 st3 st5">?</text>
<text id="XMLID_43_" transform="matrix(0.9573 0.5696 -0.5114 0.8594 268.342 276.8344)" class="st1 st3 st6">?</text>
<text id="XMLID_35_" transform="matrix(1.0462 -0.4385 0.3866 0.9223 137.1964 217.8662)" class="st1 st3 st7">?</text>
</svg>
