<?xml version="1.0" encoding="utf-8"?>
<!-- Generator: Adobe Illustrator 19.0.0, SVG Export Plug-In . SVG Version: 6.00 Build 0)  -->
<svg version="1.1" id="Layer_1" xmlns="http://www.w3.org/2000/svg" xmlns:xlink="http://www.w3.org/1999/xlink" x="0px" y="0px"
	 viewBox="0 0 603 447" style="enable-background:new 0 0 603 447;" xml:space="preserve">
<style type="text/css">
	.st0{fill:#066641;}
	.st1{fill:#FFFFFF;}
</style>
<g id="XMLID_1_">
	<path id="XMLID_42_" class="st0" d="M421.8,439.7h-82.7v-368h82.7V439.7z M343.2,435.7h74.7v-360h-74.7V435.7z"/>
</g>
<g id="XMLID_2_">
	<path id="XMLID_33_" class="st0" d="M562.6,318.4H205.7c-7.7,0-13.9-6.3-13.9-14v-36.7c0-7.5,6-14,10.9-14h356.9
		c9.9,0,16.9,5.8,16.9,14v36.7C576.5,312.1,570.3,318.4,562.6,318.4z M202.7,257.7c-2.3,0-6.9,4.3-6.9,10v36.7c0,5.5,4.4,10,9.9,10
		h356.9c5.4,0,9.9-4.5,9.9-10v-36.7c0-6-5.2-10-12.9-10H202.7z"/>
</g>
<g id="XMLID_3_">
	<g id="XMLID_12_">
		<g id="XMLID_13_">
			<path id="XMLID_31_" class="st0" d="M596.9,70.7l-93.3,0c-1.5,0-2.2-1.9-1-2.9c3.3-2.6,6-5.6,7.9-8.8c6.3-10.8,4.5-24.2-5.3-39.9
				c0,0-0.1-0.1-0.1-0.1l-0.6-0.8c0,0-0.1-0.1-0.1-0.1c-11-12-22.7-18.1-35-18.1c-23,0-42.3,20.6-60.9,40.6
				c-9.4,10.1-18.4,19.7-26.7,25.2c-0.5,0.4-1.2,0.3-1.7,0c-8.3-5.5-17.3-15.1-26.7-25.2C334.8,20.6,315.5,0,292.5,0
				c-12.2,0-24,6.1-35,18.1c0,0-0.1,0.1-0.1,0.1l-0.6,0.8c0,0-0.1,0.1-0.1,0.1c-9.8,15.6-11.6,29-5.3,39.9c1.9,3.3,4.6,6.2,7.9,8.8
				c1.2,0.9,0.5,2.9-1,2.9l-86.8,0c-3.4,0-6.1,2.7-6.1,6.1V156c0,3.3,2.7,6,6,6h17c0.9,0,1.6,0.7,1.6,1.6v277.2c0,3.3,2.7,6,6,6
				h146.1h82.7h147.3c3.3,0,6-2.7,6-6V163.7c0-0.9,0.7-1.6,1.6-1.6h17c3.3,0,6-2.7,6-6V76.7C603,73.4,600.3,70.7,596.9,70.7z
				 M418.2,49.1c16.7-17.9,34-36.4,51.2-36.4c8.3,0,16.4,4.4,24.7,13.4c0.1,0.1,0.2,0.2,0.2,0.3c6.9,11.2,8.5,20.1,4.8,26.6
				c-5.6,9.7-23.4,15.8-50.6,17.9c0,0-0.1,0-0.1,0l-47,0c0,0-0.1,0-0.1,0c-0.2,0-0.4,0-0.6,0c-1.4-0.1-2-1.9-1-2.8
				C405.8,62.3,411.9,55.8,418.2,49.1z M262.8,52.8c-3.7-6.5-2.1-15.4,4.8-26.6c0.1-0.1,0.1-0.2,0.2-0.3c8.3-9,16.4-13.4,24.7-13.4
				c17.3,0,34.5,18.5,51.3,36.4c6.3,6.7,12.4,13.3,18.4,18.8c1.1,1,0.5,2.7-1,2.8c-0.2,0-0.4,0-0.6,0c0,0-0.1,0-0.1,0h-47
				c0,0-0.1,0-0.1,0C286.2,68.6,268.4,62.5,262.8,52.8z M564.7,437.7 M564.7,432.7c-0.9,0-362.1,0.9-362.1,0V164.1
				c0-0.9,363.4-1.6,364.3-1.6 M179.8,83.3c0.9,0,410.1,0.7,410.1,1.6v62.9c0,0.9-409.2,1.6-410.1,1.6"/>
		</g>
	</g>
</g>
<g id="XMLID_4_">
	<g id="XMLID_25_">
		<g id="XMLID_30_">
			<g id="XMLID_75_">
				<path id="XMLID_85_" class="st0" d="M124.2,143.4H3.5c-1.6,0-3-1.3-3-3l0,0c0-1.6,1.3-3,3-3h120.7c1.7,0,3,1.4,3,3l0,0
					C127.2,142,125.8,143.4,124.2,143.4z"/>
			</g>
		</g>
		<g id="XMLID_26_">
			<g id="XMLID_27_">
				<path id="XMLID_80_" class="st1" d="M124.2,143.9H3.5c-1.9,0-3.5-1.6-3.5-3.5s1.6-3.5,3.5-3.5h120.7c1.9,0,3.5,1.6,3.5,3.5
					S126.1,143.9,124.2,143.9z M3.5,137.9c-1.4,0-2.5,1.1-2.5,2.5s1.1,2.5,2.5,2.5h120.7c1.4,0,2.5-1.1,2.5-2.5s-1.1-2.5-2.5-2.5
					H3.5z"/>
			</g>
		</g>
	</g>
	<g id="XMLID_5_">
		<g id="XMLID_21_">
			<g id="XMLID_68_">
				<path id="XMLID_76_" class="st0" d="M124.2,209.4H19.9c-1.6,0-3-1.3-3-3l0,0c0-1.6,1.3-3,3-3h104.3c1.7,0,3,1.4,3,3l0,0
					C127.2,208,125.8,209.4,124.2,209.4z"/>
			</g>
		</g>
		<g id="XMLID_22_">
			<g id="XMLID_14_">
				<path id="XMLID_70_" class="st1" d="M124.2,209.9H19.9c-1.9,0-3.5-1.6-3.5-3.5s1.6-3.5,3.5-3.5h104.3c1.9,0,3.5,1.6,3.5,3.5
					S126.1,209.9,124.2,209.9z M19.9,203.9c-1.4,0-2.5,1.1-2.5,2.5s1.1,2.5,2.5,2.5h104.3c1.4,0,2.5-1.1,2.5-2.5s-1.1-2.5-2.5-2.5
					H19.9z"/>
			</g>
		</g>
	</g>
	<g id="XMLID_6_">
		<g id="XMLID_17_">
			<g id="XMLID_60_">
				<path id="XMLID_65_" class="st0" d="M124.2,275.4H42.1c-1.6,0-3-1.4-3-3l0,0c0-1.6,1.3-3,3-3h82.1c1.7,0,3,1.4,3,3l0,0
					C127.2,274,125.8,275.4,124.2,275.4z"/>
			</g>
		</g>
		<g id="XMLID_16_">
			<g id="XMLID_18_">
				<path id="XMLID_59_" class="st1" d="M124.2,275.9H42.1c-1.9,0-3.5-1.6-3.5-3.5s1.6-3.5,3.5-3.5h82.1c1.9,0,3.5,1.6,3.5,3.5
					S126.1,275.9,124.2,275.9z M42.1,269.9c-1.4,0-2.5,1.1-2.5,2.5s1.1,2.5,2.5,2.5h82.1c1.4,0,2.5-1.1,2.5-2.5s-1.1-2.5-2.5-2.5
					H42.1z"/>
			</g>
		</g>
	</g>
	<g id="XMLID_36_">
		<g id="XMLID_37_">
			<g id="XMLID_53_">
				<path id="XMLID_55_" class="st0" d="M124.2,341.4H67.9c-1.7,0-3-1.4-3-3l0,0c0-1.6,1.3-3,3-3h56.2c1.7,0,3,1.4,3,3l0,0
					C127.2,340,125.8,341.4,124.2,341.4z"/>
			</g>
		</g>
		<g id="XMLID_38_">
			<g id="XMLID_39_">
				<path id="XMLID_49_" class="st1" d="M124.2,341.9H67.9c-1.9,0-3.5-1.6-3.5-3.5s1.6-3.5,3.5-3.5h56.2c1.9,0,3.5,1.6,3.5,3.5
					S126.1,341.9,124.2,341.9z M67.9,335.9c-1.4,0-2.5,1.1-2.5,2.5s1.1,2.5,2.5,2.5h56.2c1.4,0,2.5-1.1,2.5-2.5s-1.1-2.5-2.5-2.5
					H67.9z"/>
			</g>
		</g>
	</g>
</g>
</svg>
