<?xml version="1.0" encoding="utf-8"?>
<!-- Generator: Adobe Illustrator 19.0.0, SVG Export Plug-In . SVG Version: 6.00 Build 0)  -->
<svg version="1.1" id="Layer_1" xmlns="http://www.w3.org/2000/svg" xmlns:xlink="http://www.w3.org/1999/xlink" x="0px" y="0px"
	 viewBox="0 0 537.4 492.5" style="enable-background:new 0 0 537.4 492.5;" xml:space="preserve">
<style type="text/css">
	.st0{fill:#066641;}
	.st1{fill:#FFFFFF;}
</style>
<g id="XMLID_2_">
	<path id="XMLID_3_" class="st0" d="M277.1,155.6c54.3,0,98.3,44,98.3,98.3c0,53.4-32.2,59.7-38.3,117.9c0,5.4-4.4,9.8-9.8,9.8
		H226.9c-5.4,0-9.8-4.4-9.8-9.8h0c-6-58.3-38.2-64.5-38.2-117.9C178.8,199.6,222.8,155.6,277.1,155.6 M326.2,391.5
		c5.4,0,9.8,4.4,9.8,9.8c0,5.4-4.4,9.8-9.8,9.8h-98.3c-5.4,0-9.8-4.4-9.8-9.8c0-5.4,4.4-9.8,9.8-9.8H326.2 M326.2,420.9
		c5.4,0,9.8,4.4,9.8,9.8s-4.4,9.8-9.8,9.8h-98.3c-5.4,0-9.8-4.4-9.8-9.8s4.4-9.8,9.8-9.8H326.2 M316.4,450.4
		c0,10.9-8.8,19.7-19.7,19.7h-39.3c-10.9,0-19.7-8.8-19.7-19.7H316.4 M277.1,133.2c-66.6,0-120.7,54.2-120.7,120.7
		c0,33.4,10.9,52.6,20.5,69.6c8.2,14.3,15.2,26.8,17.7,49.9c0.2,5.1,1.7,10,4.1,14.2c-2,4.2-3.1,8.8-3.1,13.7
		c0,5.3,1.3,10.3,3.6,14.7c-2.3,4.4-3.6,9.4-3.6,14.7c0,13.8,8.8,25.7,21,30.2c4.7,18.1,21.2,31.5,40.8,31.5h39.3
		c19.6,0,36.1-13.4,40.8-31.5c12.3-4.6,21-16.4,21-30.2c0-5.3-1.3-10.3-3.6-14.7c2.3-4.4,3.6-9.4,3.6-14.7c0-4.9-1.1-9.6-3.1-13.7
		c2.4-4.3,3.8-9.1,4.1-14.2c2.5-23.1,9.6-35.5,17.7-49.9c9.6-16.9,20.6-36.1,20.6-69.6C397.8,187.3,343.6,133.2,277.1,133.2
		L277.1,133.2z"/>
</g>
<g id="XMLID_10_">
	<g id="XMLID_21_">
		<path id="XMLID_52_" class="st0" d="M533.4,292.2L430.6,274c-1.6-0.3-2.7-1.9-2.4-3.5h0c0.3-1.6,1.9-2.7,3.5-2.4l102.7,18.1
			c1.6,0.3,2.7,1.9,2.4,3.5l0,0C536.5,291.4,535,292.5,533.4,292.2z"/>
	</g>
	<g id="XMLID_22_">
		<path id="XMLID_15_" class="st1" d="M533.3,292.7l-102.7-18.1c-1.9-0.3-3.2-2.2-2.8-4.1c0.3-1.9,2.2-3.2,4.1-2.8l102.7,18.1
			c1.9,0.3,3.2,2.2,2.8,4.1C537,291.7,535.2,293,533.3,292.7z M431.6,268.6c-1.4-0.2-2.7,0.7-2.9,2c-0.2,1.4,0.7,2.7,2,2.9
			l102.7,18.1c1.4,0.2,2.7-0.7,2.9-2c0.2-1.4-0.7-2.7-2-2.9L431.6,268.6z"/>
	</g>
</g>
<g id="XMLID_18_">
	<g id="XMLID_27_">
		<path id="XMLID_28_" class="st0" d="M526.5,169.9l-101.7,23.2c-1.6,0.4-3.2-0.6-3.6-2.3v0c-0.4-1.6,0.6-3.2,2.3-3.6l101.7-23.2
			c1.6-0.4,3.2,0.6,3.6,2.3l0,0C529.2,168,528.1,169.6,526.5,169.9z"/>
	</g>
	<g id="XMLID_19_">
		<path id="XMLID_20_" class="st1" d="M526.6,170.4l-101.7,23.2c-1.9,0.4-3.8-0.8-4.2-2.6c-0.4-1.9,0.8-3.8,2.6-4.2l101.7-23.2
			c1.9-0.4,3.8,0.8,4.2,2.6C529.7,168.1,528.5,170,526.6,170.4z M423.6,187.8c-1.3,0.3-2.2,1.6-1.9,3c0.3,1.3,1.6,2.2,3,1.9
			l101.7-23.2c1.3-0.3,2.2-1.6,1.9-3s-1.7-2.2-3-1.9L423.6,187.8z"/>
	</g>
</g>
<g id="XMLID_35_">
	<g id="XMLID_40_">
		<path id="XMLID_41_" class="st0" d="M501.8,393.4l-99.4-31.7c-1.6-0.5-2.4-2.2-1.9-3.8l0,0c0.5-1.6,2.2-2.4,3.8-1.9l99.4,31.7
			c1.6,0.5,2.4,2.2,1.9,3.8l0,0C505.1,393,503.4,393.9,501.8,393.4z"/>
	</g>
	<g id="XMLID_36_">
		<path id="XMLID_37_" class="st1" d="M501.7,393.9l-99.4-31.7c-1.8-0.6-2.9-2.6-2.3-4.4s2.6-2.9,4.4-2.3l99.4,31.7
			c1.8,0.6,2.9,2.6,2.3,4.4C505.5,393.4,503.5,394.4,501.7,393.9z M404.1,356.4c-1.3-0.4-2.7,0.3-3.1,1.6c-0.4,1.3,0.3,2.7,1.6,3.1
			l99.4,31.7c1.3,0.4,2.7-0.3,3.1-1.6s-0.3-2.7-1.6-3.1L404.1,356.4z"/>
	</g>
</g>
<g id="XMLID_49_">
	<g id="XMLID_55_">
		<path id="XMLID_56_" class="st0" d="M276,106.8l0-104.3c0-1.6,1.4-3,3-3l0,0c1.6,0,3,1.4,3,3l0,104.3c0,1.6-1.4,3-3,3h0
			C277.4,109.8,276,108.5,276,106.8z"/>
	</g>
	<g id="XMLID_50_">
		<path id="XMLID_51_" class="st1" d="M275.5,106.8l0-104.3c0-1.9,1.6-3.5,3.5-3.5c1.9,0,3.5,1.6,3.5,3.5l0,104.3
			c0,1.9-1.6,3.5-3.5,3.5S275.5,108.7,275.5,106.8z M281.5,2.5c0-1.4-1.1-2.5-2.5-2.5s-2.5,1.1-2.5,2.5l0,104.3
			c0,1.4,1.1,2.5,2.5,2.5s2.5-1.1,2.5-2.5L281.5,2.5z"/>
	</g>
</g>
<g id="XMLID_57_">
	<g id="XMLID_62_">
		<path id="XMLID_63_" class="st0" d="M432.8,50.8l-75.4,72.1c-1.2,1.1-3.1,1.1-4.2-0.1l0,0c-1.1-1.2-1.1-3.1,0.1-4.2l75.4-72.1
			c1.2-1.1,3.1-1.1,4.2,0.1v0C434,47.7,434,49.6,432.8,50.8z"/>
	</g>
	<g id="XMLID_58_">
		<path id="XMLID_59_" class="st1" d="M433.1,51.1l-75.4,72.1c-1.4,1.3-3.6,1.3-4.9-0.1s-1.3-3.6,0.1-4.9l75.4-72.1
			c1.4-1.3,3.6-1.3,4.9,0.1S434.5,49.8,433.1,51.1z M353.6,118.9c-1,1-1,2.5-0.1,3.5c1,1,2.5,1,3.5,0.1l75.4-72.1c1-1,1-2.5,0.1-3.5
			c-1-1-2.5-1-3.5-0.1L353.6,118.9z"/>
	</g>
</g>
<g id="XMLID_64_">
	<g id="XMLID_69_">
		<path id="XMLID_70_" class="st0" d="M4.2,294.5l107.9-18.1c1.7-0.3,2.9-1.8,2.6-3.5l0,0c-0.3-1.6-1.9-2.7-3.7-2.4L3.1,288.6
			c-1.7,0.3-2.9,1.8-2.6,3.5h0C0.9,293.7,2.5,294.7,4.2,294.5z"/>
	</g>
	<g id="XMLID_65_">
		<path id="XMLID_66_" class="st1" d="M4.3,295l107.9-18.1c2-0.3,3.3-2.1,3-4c-0.4-1.9-2.3-3.2-4.3-2.8L3,288.1c-2,0.3-3.3,2.1-3,4
			C0.4,294,2.3,295.3,4.3,295z M111.1,271c1.4-0.2,2.8,0.7,3,2c0.3,1.4-0.7,2.6-2.1,2.9L4.1,294c-1.4,0.2-2.8-0.7-3-2
			c-0.3-1.4,0.7-2.6,2.1-2.9L111.1,271z"/>
	</g>
</g>
<g id="XMLID_42_">
	<g id="XMLID_47_">
		<path id="XMLID_48_" class="st0" d="M12.7,161.7l103.6,34.8c1.6,0.6,3.4-0.3,4-1.8h0c0.6-1.6-0.3-3.3-2-3.8L14.7,156
			c-1.6-0.6-3.4,0.3-4,1.8l0,0C10.2,159.4,11,161.1,12.7,161.7z"/>
	</g>
	<g id="XMLID_43_">
		<path id="XMLID_44_" class="st1" d="M12.5,162.1L116.1,197c1.9,0.6,4-0.3,4.7-2.1c0.7-1.8-0.4-3.8-2.3-4.5L14.9,155.5
			c-1.9-0.6-4,0.3-4.7,2.1S10.6,161.5,12.5,162.1z M118.1,191.3c1.4,0.5,2.1,1.9,1.6,3.2c-0.5,1.3-2,2-3.3,1.5L12.9,161.2
			c-1.4-0.5-2.1-1.9-1.6-3.2s2-2,3.3-1.5L118.1,191.3z"/>
	</g>
</g>
<g id="XMLID_17_">
	<g id="XMLID_33_">
		<path id="XMLID_34_" class="st0" d="M37.4,395.4l104.4-31.6c1.7-0.5,2.6-2.2,2-3.8l0,0c-0.5-1.6-2.3-2.4-4-1.9L35.4,389.7
			c-1.7,0.5-2.6,2.2-2,3.8l0,0C33.9,395,35.7,395.9,37.4,395.4z"/>
	</g>
	<g id="XMLID_29_">
		<path id="XMLID_30_" class="st1" d="M37.5,395.9l104.4-31.6c1.9-0.6,3-2.6,2.4-4.4s-2.7-2.8-4.6-2.3L35.3,389.2
			c-1.9,0.6-3,2.6-2.4,4.4S35.6,396.4,37.5,395.9z M140,358.5c1.4-0.4,2.9,0.3,3.3,1.6c0.4,1.3-0.3,2.7-1.7,3.1L37.2,394.9
			c-1.4,0.4-2.9-0.3-3.3-1.6c-0.4-1.3,0.3-2.7,1.7-3.1L140,358.5z"/>
	</g>
</g>
<g id="XMLID_1_">
	<g id="XMLID_14_">
		<path id="XMLID_16_" class="st0" d="M113.9,49.3l70.5,80.4c1.1,1.3,3.1,1.5,4.4,0.4l0,0c1.3-1,1.5-2.9,0.4-4.2l-70.5-80.4
			c-1.1-1.3-3.1-1.5-4.4-0.4l0,0C113,46.1,112.8,48,113.9,49.3z"/>
	</g>
	<g id="XMLID_9_">
		<path id="XMLID_11_" class="st1" d="M113.5,49.6l70.5,80.4c1.3,1.5,3.6,1.7,5.2,0.5c1.5-1.2,1.7-3.4,0.4-4.9l-70.5-80.4
			c-1.3-1.5-3.6-1.7-5.2-0.5C112.4,45.9,112.2,48.1,113.5,49.6z M188.9,126.2c0.9,1.1,0.8,2.6-0.3,3.5c-1.1,0.9-2.8,0.7-3.7-0.3
			l-70.5-80.4c-0.9-1.1-0.8-2.6,0.3-3.5c1.1-0.9,2.8-0.7,3.7,0.3L188.9,126.2z"/>
	</g>
</g>
</svg>
