<?xml version="1.0" encoding="utf-8"?>
<!-- Generator: Adobe Illustrator 19.0.0, SVG Export Plug-In . SVG Version: 6.00 Build 0)  -->
<svg version="1.1" id="Card" xmlns="http://www.w3.org/2000/svg" xmlns:xlink="http://www.w3.org/1999/xlink" x="0px" y="0px"
	 viewBox="0 0 291.9 471.6" style="enable-background:new 0 0 291.9 471.6;" xml:space="preserve">
<style type="text/css">
	.st0{fill:#FFFFFF;}
	.st1{fill:#F0555A;}
	.st2{fill:#2BB994;}
	.st3{fill:#602A31;}
	.st4{fill:#77494A;}
	.st5{fill:#F9AE94;}
	.st6{fill:#EB3D47;}
	.st7{fill:#1B5047;}
	.st8{clip-path:url(#XMLID_265_);}
	.st9{opacity:0.2;}
	.st10{fill:#345F52;}
	.st11{fill-rule:evenodd;clip-rule:evenodd;fill:#B4DFCF;}
</style>
<g id="XMLID_1_">
	<g id="XMLID_2_">
		<g id="XMLID_270_">
			<path id="XMLID_788_" class="st0" d="M135.6-6.3"/>
		</g>
		<g id="XMLID_3_">
			<g id="XMLID_128_">
				<g id="XMLID_85_">
					<g id="XMLID_7_">
						<g id="XMLID_68_">
							<polygon id="XMLID_9_" class="st1" points="79.2,162.1 54.5,215.9 56,227.4 70.4,224.2 99.9,160.3 							"/>
						</g>
						<g id="XMLID_70_">
							<polygon id="XMLID_10_" class="st0" points="110.2,159.3 99.9,160.3 70.4,224.2 81.5,221.7 							"/>
						</g>
					</g>
					<g id="XMLID_87_">
						<polygon id="XMLID_11_" class="st2" points="131.6,157.4 104.4,216.6 115.5,214.2 142,156.5 						"/>
					</g>
					<g id="XMLID_88_">
						<polygon id="XMLID_12_" class="st2" points="68.9,163 52.3,199.1 54.5,215.9 79.2,162.1 						"/>
					</g>
					<g id="XMLID_89_">
						<polygon id="XMLID_13_" class="st1" points="48,164.9 52.3,199.1 68.9,163 						"/>
					</g>
					<g id="XMLID_90_">
						<polygon id="XMLID_14_" class="st1" points="110.2,159.3 81.5,221.7 104.4,216.6 131.6,157.4 						"/>
					</g>
					<g id="XMLID_91_">
						<polygon id="XMLID_15_" class="st1" points="142,156.5 115.5,214.2 149.3,206.6 173.6,153.7 						"/>
					</g>
					<g id="XMLID_92_">
						<polygon id="XMLID_16_" class="st1" points="218,165.7 204.9,194.2 222,190.4 						"/>
					</g>
					<g id="XMLID_93_">
						<polygon id="XMLID_17_" class="st2" points="215.5,149.9 215.3,149.9 193.8,196.7 204.9,194.2 218,165.7 						"/>
					</g>
					<g id="XMLID_94_">
						<polygon id="XMLID_18_" class="st1" points="184,152.7 160.3,204.2 193.8,196.7 215.3,149.9 						"/>
					</g>
					<g id="XMLID_95_">
						<polygon id="XMLID_19_" class="st0" points="173.6,153.7 149.3,206.6 160.3,204.2 184,152.7 						"/>
					</g>
				</g>
				<g id="XMLID_6_">
					<polygon id="XMLID_8_" class="st3" points="49,188.7 225,163.4 225,170.9 52.1,210.6 					"/>
				</g>
				<g id="XMLID_20_">
					<polygon id="XMLID_1563_" class="st3" points="219.5,163.9 240.1,140.4 246,150.4 224,166.1 					"/>
				</g>
				<g id="XMLID_21_">
					<polygon id="XMLID_1561_" class="st3" points="220.4,171.8 226.3,168.4 263.2,175.9 255.1,188.5 					"/>
				</g>
				<g id="XMLID_22_">
					<polygon id="XMLID_1559_" class="st4" points="219.5,163.9 228.4,162.9 229.3,171.3 220.4,171.8 					"/>
				</g>
			</g>
			<g id="XMLID_129_">
				<g id="XMLID_36_">
					<g id="XMLID_39_">
						<path id="XMLID_1550_" class="st2" d="M222.4,298.9c1.4,0,2.8,0.4,4,1l-3.2-21.7c-0.5,0.1-1,0.1-1.6,0.1
							c-5.4-0.1-9.7-4.7-9.6-10.1c0.1-4.8,3.7-8.7,8.3-9.4l-3.2-21.9l-70.2,11.5l1.6,12c1-0.4,2.1-0.7,3.3-0.7
							c4.1,0.1,7.4,3.6,7.3,7.7c-0.1,4.1-3.6,7.4-7.7,7.3c-0.3,0-0.6,0-1-0.1l2.4,18.1c0.8-0.6,1.8-0.9,2.8-0.9
							c2.5,0.1,4.5,2.2,4.5,4.7c-0.1,2.5-2.2,4.5-4.7,4.5c-0.5,0-1-0.1-1.5-0.3l2.6,19.4l22-3c-0.2-0.7-0.2-1.3-0.2-2
							c0.1-4.2,3.6-7.5,7.8-7.4c4,0.1,7.3,3.4,7.4,7.4l19.8-2.7c-0.5-1.2-0.8-2.6-0.7-4C212.6,302.9,217.1,298.7,222.4,298.9z
							 M173.9,257.4c2.9,0.1,5.2,2.5,5.1,5.4c-0.1,2.9-2.5,5.2-5.4,5.1c-2.9-0.1-5.2-2.5-5.1-5.4S171,257.3,173.9,257.4z
							 M167.1,313.2c-2.3-0.1-4.2-2-4.1-4.4c0.1-2.3,2-4.2,4.4-4.1c2.3,0.1,4.2,2,4.1,4.4C171.4,311.5,169.4,313.3,167.1,313.2z
							 M178.1,295.8c-4.9-0.1-8.7-4.2-8.6-9.1c0.1-4.9,4.2-8.7,9.1-8.6c4.9,0.1,8.7,4.2,8.6,9.1C187.1,292.1,183,296,178.1,295.8z
							 M195.6,275.8c-1.1,0-1.9-0.9-1.9-2c0-1.1,0.9-1.9,2-1.9c1.1,0,1.9,0.9,1.9,2C197.6,275,196.7,275.9,195.6,275.8z
							 M203.6,298.4c-2.9-0.1-5.3-2.5-5.2-5.5c0.1-2.9,2.5-5.3,5.5-5.2c2.9,0.1,5.3,2.5,5.2,5.5C209,296.1,206.5,298.4,203.6,298.4z
							"/>
					</g>
					<g id="XMLID_44_">
						<circle id="XMLID_1548_" class="st3" cx="178.4" cy="287" r="8.8"/>
					</g>
					<g id="XMLID_45_">
						<circle id="XMLID_1546_" class="st1" cx="173.8" cy="262.7" r="5.2"/>
					</g>
					<g id="XMLID_46_">
						<circle id="XMLID_1544_" class="st1" cx="195.7" cy="273.9" r="1.9"/>
					</g>
					<g id="XMLID_47_">
						<circle id="XMLID_1542_" class="st0" cx="203.7" cy="293" r="5.3"/>
					</g>
					<g id="XMLID_49_">
						<path id="XMLID_1540_" class="st3" d="M212.1,268.1c-0.1,5.4,4.1,10,9.6,10.1c0.5,0,1.1,0,1.6-0.1l-2.9-19.4
							C215.8,259.4,212.2,263.3,212.1,268.1z"/>
					</g>
					<g id="XMLID_51_">
						<path id="XMLID_1538_" class="st1" d="M226.4,299.9c-1.2-0.6-2.6-1-4-1c-5.3-0.1-9.8,4.1-9.9,9.4c0,1.4,0.2,2.7,0.7,4l14.7-2
							L226.4,299.9z"/>
					</g>
					<g id="XMLID_53_">
						<path id="XMLID_1536_" class="st3" d="M186.1,307.5c-4.2-0.1-7.7,3.2-7.8,7.4c0,0.7,0.1,1.4,0.2,2l14.9-2
							C193.3,310.9,190.1,307.7,186.1,307.5z"/>
					</g>
					<g id="XMLID_54_">
						<circle id="XMLID_1534_" class="st0" cx="167.2" cy="309" r="4.2"/>
					</g>
					<g id="XMLID_56_">
						<path id="XMLID_1532_" class="st1" d="M160.1,296.4c0.1-2.5-1.9-4.6-4.5-4.7c-1.1,0-2,0.3-2.8,0.9l1.1,7.9
							c0.5,0.2,1,0.3,1.5,0.3C157.9,300.9,160.1,298.9,160.1,296.4z"/>
					</g>
					<g id="XMLID_58_">
						<path id="XMLID_1530_" class="st3" d="M159.1,267.3c0.1-4.1-3.2-7.6-7.3-7.7c-1.2,0-2.3,0.2-3.3,0.7l1.9,14.2
							c0.3,0,0.6,0.1,1,0.1C155.5,274.7,159,271.5,159.1,267.3z"/>
					</g>
					<g id="XMLID_27_">
						<circle id="XMLID_1528_" class="st0" cx="202.2" cy="258" r="4.2"/>
					</g>
				</g>
				<g id="XMLID_23_">
					<path id="XMLID_1525_" class="st1" d="M221.5,209.9l4.3,26.5c0,0-25.1,7.6-45.8,10.7c-20.8,3.1-42.4,3.7-42.4,3.7l-3.6-25.6
						L221.5,209.9z"/>
				</g>
				<g id="XMLID_24_">
					<path id="XMLID_485_" class="st3" d="M180.1,225.7c16.4-2.7,41.7-7.5,41.4-15.9s-25.3-6.5-45.4-2.9s-41.8,10-42,18.2
						C133.8,233.3,163.6,228.4,180.1,225.7z"/>
					<path id="XMLID_487_" class="st5" d="M146.1,230.7c-5.5,0-9.6-0.7-11.6-2.4c-1-0.8-1.4-1.9-1.4-3.1c0.3-10,27-16.3,42.8-19.1
						c8.5-1.5,37-6.1,44.6,0.1c1.3,1,1.9,2.3,2,3.8c0.3,8.7-21.2,13.4-42.3,16.9C168.1,228.7,155.3,230.7,146.1,230.7z M204.8,204.9
						c-7.6,0-17.4,1-28.6,3c-25.2,4.5-41,11.1-41.2,17.2c0,0.6,0.2,1.1,0.7,1.6c5.1,4.5,31.5,0.1,44.1-2
						c10.1-1.7,40.9-6.8,40.6-14.9c0-0.9-0.4-1.6-1.2-2.3C217.1,205.8,212,204.9,204.8,204.9z"/>
				</g>
				<g id="XMLID_25_">
					<path id="XMLID_26_" class="st2" d="M171.4,218.3c0,0-0.6,0-1.7-0.2c-1.1-0.1-2.7-0.4-4.7-0.8c-1-0.2-2.1-0.5-3.3-1
						c-0.6-0.2-1.2-0.5-1.8-0.9c-0.6-0.4-1.2-0.9-1.4-1.8c-0.1-0.4,0.1-0.9,0.2-1.3c0.2-0.5,0.6-0.7,1-0.9c0.8-0.4,1.6-0.6,2.4-0.7
						c1.7-0.1,3.4,0.1,5.2,0.5c0.9,0.2,1.8,0.5,2.7,0.8c0.4,0.2,0.9,0.4,1.4,0.7c0.2,0.2,0.5,0.3,0.7,0.7c0.1,0.1,0.1,0.2,0.1,0.4
						c0,0.1,0,0.3-0.1,0.5l0,0.1c0.1-0.1-0.1,0.2-0.1,0.2l-0.1,0.1c0,0-0.2,0.2-0.3,0.2c-0.2,0.1-0.3,0.1-0.4,0.1
						c-0.1,0-0.2,0-0.3,0c-0.2,0-0.3,0-0.5-0.1c-0.3-0.1-0.5-0.2-0.8-0.3c-0.5-0.2-0.9-0.5-1.4-0.7c-0.9-0.5-1.7-1.1-2.5-1.7
						c-0.8-0.6-1.6-1.3-2.4-2c-0.8-0.7-1.5-1.5-2.2-2.5c-0.2-0.3-0.3-0.5-0.4-0.9l-0.1-0.3c0-0.1,0-0.2,0-0.4c0-0.1,0-0.3,0.1-0.4
						c-0.1,0.1,0.1-0.3,0.1-0.3l0,0l0.1-0.1c0-0.1,0.3-0.3,0.5-0.4c0.1-0.1,0.2-0.1,0.2-0.1l0.2,0c0.2-0.1,0.4-0.1,0.6-0.1
						c0.3,0,0.7,0,0.9,0.1c1.2,0.2,2.2,0.5,3.3,0.9c2.1,0.8,4.2,1.7,6.2,2.8c1,0.6,2,1.1,3,1.9c0.2,0.2,0.5,0.4,0.8,0.7
						c0.1,0.1,0.3,0.3,0.4,0.6c0.1,0.2,0.1,0.4,0.1,0.6c0,0.3-0.1,0.5-0.2,0.8c0.1-0.1-0.2,0.3-0.5,0.4c-0.1,0-0.2,0.1-0.3,0.1
						c-0.1,0-0.2,0-0.3,0c-0.3-0.1-0.5-0.2-0.6-0.3c-0.2-0.2-0.3-0.3-0.5-0.5c-0.2-0.3-0.4-0.5-0.6-0.8c-1.3-2.1-2.1-4.3-2.9-6.6
						c-0.4-1.2-0.7-2.3-0.8-3.6c-0.2-1.2-0.3-2.5,0.2-4c0.3-0.7,1-1.6,2-1.7c0.2,0,0.2-0.1,0.5-0.1c0.3,0,0.5,0,0.7,0.1
						c0.4,0.1,0.8,0.2,1.1,0.4c1.3,0.7,2.1,1.7,2.8,2.7c1.5,2,2.5,4.2,3.4,6.4c0.4,1.1,0.8,2.2,1.1,3.4c0.1,0.6,0.2,1.2,0.2,1.9
						c0,0.4,0,0.7-0.2,1.2c-0.1,0.2-0.3,0.6-0.8,0.8c-0.2,0.1-0.4,0.1-0.7,0c-0.1,0-0.2-0.1-0.3-0.1c-0.1-0.1-0.1-0.1-0.2-0.2
						c-0.2-0.2-0.2-0.4-0.3-0.5c-0.1-0.5-0.1-0.8-0.2-1.1c0-0.3,0-0.6,0-0.9c0-0.6,0.1-1.2,0.2-1.7c0.1-1.1,0.3-2.3,0.6-3.4
						c0.5-2.2,1-4.3,2.1-6.4c0.3-0.5,0.6-1,1.1-1.5c0.2-0.2,0.6-0.5,1-0.6c0.4-0.1,0.9-0.1,1.3,0.1c0.2,0.1,0.1,0,0.1,0.1l0,0l0.1,0
						c0.1,0,0.1,0.1,0.2,0.1c0.2,0.1,0.3,0.3,0.5,0.4c0.2,0.2,0.4,0.5,0.6,0.8c0.3,0.5,0.5,1.1,0.6,1.6c0.5,2.1,0.3,4.2,0.1,6.1
						c-0.1,1-0.3,1.9-0.6,2.8c-0.1,0.5-0.3,0.9-0.5,1.4c-0.1,0.2-0.2,0.5-0.4,0.7c-0.2,0.2-0.3,0.5-0.7,0.7c-0.2,0.1-0.5,0.1-0.7,0
						l-0.2-0.1c0,0-0.1-0.1-0.1-0.1l0,0c-0.1-0.1-0.1,0-0.1-0.1c-0.4-0.4-0.3-0.9-0.2-1.1c0.2-0.6,0.5-0.9,0.8-1.3
						c0.6-0.7,1.3-1.2,2-1.6c1.4-0.9,2.9-1.6,4.5-1.6c0.4,0,0.8,0.1,1.2,0.3c0.2,0.1,0.3,0.2,0.5,0.4l0.3,0.4
						c0.5,0.8,0.4,1.5,0.2,2.1c-0.4,1.3-1.1,2.2-1.8,3c-1.4,1.6-2.7,2.6-3.6,3.2c-0.4,0.3-0.8,0.6-1,0.7c-0.2,0.2-0.4,0.2-0.4,0.2
						s0.1-0.1,0.3-0.3c0.2-0.2,0.6-0.4,1-0.8c0.8-0.7,2.1-1.8,3.3-3.4c0.6-0.8,1.3-1.8,1.5-2.9c0.1-0.5,0.1-1.2-0.1-1.6
						c-0.1-0.1-0.2-0.3-0.3-0.4c-0.1,0-0.2-0.2-0.3-0.2c-0.3-0.1-0.6-0.2-0.9-0.1c-1.3,0.1-2.7,0.8-3.9,1.6c-0.6,0.4-1.3,1-1.8,1.5
						c-0.2,0.3-0.5,0.6-0.5,0.9c-0.1,0.1,0,0.2,0,0.1c0,0,0.1,0.1,0.1,0.1l0,0c0,0-0.1-0.1,0,0c0,0,0,0,0,0c0,0,0,0,0,0c0,0,0,0,0,0
						c0,0,0.1-0.1,0.2-0.2c0.1-0.1,0.2-0.3,0.3-0.5c0.2-0.4,0.3-0.8,0.4-1.2c0.2-0.9,0.4-1.8,0.5-2.7c0.2-1.8,0.2-3.8-0.2-5.6
						c-0.2-0.9-0.7-1.8-1.2-1.9c-0.1,0-0.1,0-0.2,0c-0.1,0-0.2,0.1-0.3,0.2c-0.3,0.3-0.5,0.7-0.7,1.1c-0.9,1.8-1.4,3.8-1.9,5.9
						c-0.2,1.1-0.4,2.1-0.5,3.2c-0.1,0.5-0.1,1.1-0.1,1.6c0,0.3,0,0.5,0,0.8c0,0.2,0,0.5,0.1,0.6c0,0,0,0-0.1-0.1
						c0,0-0.1-0.1-0.1-0.1c0,0-0.1-0.1-0.2-0.1c-0.1-0.1-0.3,0-0.5,0c-0.2,0.1-0.2,0.2-0.2,0.2c0,0,0-0.2,0-0.4c0-0.5-0.1-1-0.2-1.5
						c-0.2-1-0.6-2.1-1-3.1c-0.8-2.1-1.9-4.1-3.2-5.9c-0.7-0.9-1.4-1.7-2.2-2.1c-0.2-0.1-0.4-0.2-0.6-0.2c-0.1,0-0.1,0-0.2,0
						c0,0-0.2,0-0.3,0c-0.2,0-0.4,0.2-0.5,0.5c-0.3,0.7-0.3,1.9-0.1,3c0.2,1.1,0.4,2.2,0.7,3.3c0.7,2.2,1.5,4.3,2.6,6.2
						c0.1,0.2,0.3,0.4,0.4,0.6c0.1,0.1,0.1,0.2,0.1,0.2s0,0,0,0c-0.1,0-0.1,0-0.2-0.1c-0.1,0-0.1,0-0.2,0c-0.1,0-0.2,0-0.2,0.1
						c-0.2,0-0.4,0.4-0.3,0.2c-0.1,0.1-0.1,0.2-0.1,0.3c0,0.1,0,0.1,0,0.1c0,0,0-0.1-0.1-0.1c-0.1-0.1-0.3-0.3-0.5-0.5
						c-0.8-0.6-1.8-1.2-2.7-1.8c-1.9-1.1-4-2-6-2.7c-1-0.4-2-0.7-3-0.9c-0.2,0-0.5-0.1-0.7-0.1c-0.1,0-0.2,0-0.2,0l0,0c0,0,0,0,0,0
						c0,0,0.1-0.1,0.1-0.1c0,0,0.1-0.1,0-0.1l-0.1,0.1l0,0c0,0.1,0.2-0.3,0.1-0.2c0,0,0-0.1,0,0c0,0,0,0,0,0l0,0.1
						c0,0.1,0.1,0.3,0.3,0.5c0.5,0.8,1.2,1.6,1.9,2.3c0.7,0.7,1.5,1.4,2.2,2c0.8,0.6,1.5,1.2,2.3,1.7c0.4,0.2,0.8,0.5,1.2,0.7
						c0.2,0.1,0.4,0.2,0.6,0.2c0.1,0,0.2,0,0.2,0c0,0,0.1,0,0.1,0c0,0,0.1,0,0,0c-0.1,0-0.1,0.1,0,0.1l0.1-0.1c0,0-0.1,0.2-0.1,0.1
						l0,0c0,0,0,0.1,0,0.1c0,0,0,0,0,0l0,0c0,0-0.1-0.2-0.3-0.3c-0.3-0.2-0.7-0.4-1.1-0.6c-0.8-0.3-1.6-0.6-2.5-0.8
						c-1.7-0.4-3.3-0.6-4.8-0.6c-1.5,0-3.1,0.6-3,1.8c0.1,0.5,0.5,1,1,1.4c0.5,0.4,1.1,0.7,1.6,0.9c1.1,0.5,2.2,0.8,3.2,1.1
						c2,0.6,3.6,0.9,4.6,1.1C170.8,218.2,171.4,218.3,171.4,218.3z"/>
				</g>
				<g id="XMLID_28_">
					<g id="XMLID_29_">
						<polygon id="XMLID_1516_" class="st5" points="228.7,225.3 237.6,209.8 264.5,221.6 254.1,239.3 						"/>
					</g>
					<g id="XMLID_30_">
						<path id="XMLID_486_" class="st6" d="M237.8,219.9c-9.8-8.8-18.2-10.6-23.5-10.6c0,0,0,0,0,0c-5.7,0-9.2,2.1-9.2,2.1l-0.5-0.9
							c0.1-0.1,14.6-8.6,34,8.6L237.8,219.9z"/>
					</g>
					<g id="XMLID_31_">
						<circle id="XMLID_477_" class="st0" cx="239.6" cy="220.9" r="1.6"/>
						<path id="XMLID_482_" class="st6" d="M239.6,223C239.6,223,239.6,223,239.6,223c-0.6,0-1.1-0.2-1.5-0.7
							c-0.4-0.4-0.6-0.9-0.6-1.5c0-0.6,0.2-1.1,0.7-1.5c0.4-0.4,0.9-0.6,1.5-0.6c0.6,0,1.1,0.2,1.5,0.7c0.4,0.4,0.6,0.9,0.6,1.5
							c0,0.6-0.2,1.1-0.7,1.5C240.7,222.8,240.2,223,239.6,223z M239.6,219.9c-0.6,0-1.1,0.5-1.1,1.1c0,0.3,0.1,0.6,0.3,0.8
							c0.2,0.2,0.5,0.3,0.8,0.3c0.3,0,0.6-0.1,0.8-0.3c0.2-0.2,0.3-0.5,0.3-0.8l0,0c0-0.3-0.1-0.6-0.3-0.8
							C240.2,220,240,219.9,239.6,219.9C239.7,219.9,239.6,219.9,239.6,219.9z"/>
					</g>
				</g>
			</g>
			<g id="XMLID_5_">
				<polygon id="XMLID_32_" class="st2" points="32.5,218.5 17,212.5 15.5,216.9 				"/>
			</g>
			<g id="XMLID_33_">
				<polygon id="XMLID_34_" class="st2" points="33.4,241.1 20.2,250 24,254.6 				"/>
			</g>
			<g id="XMLID_143_">
				<g id="XMLID_48_">
					<polygon id="XMLID_50_" class="st2" points="15.5,233.6 17.7,238.8 35.2,227.5 					"/>
				</g>
				<g id="XMLID_114_">
					<g id="XMLID_55_">
						<polygon id="XMLID_57_" class="st6" points="260.2,124.5 269,128.3 270.5,126.4 						"/>
					</g>
					<g id="XMLID_59_">
						<polygon id="XMLID_60_" class="st6" points="255.7,114.8 274.2,114.8 274.2,110.5 						"/>
					</g>
					<g id="XMLID_61_">
						<polygon id="XMLID_62_" class="st6" points="258.2,103.3 270.5,98 268.2,94.5 						"/>
					</g>
				</g>
			</g>
			<g id="XMLID_134_">
				<g id="XMLID_52_">
					<g id="XMLID_63_">
						<polygon id="XMLID_64_" class="st3" points="34.3,62.9 46.3,155.9 110.8,148.9 110.8,54.9 						"/>
					</g>
					<g id="XMLID_65_">
						<path id="XMLID_66_" class="st2" d="M56.3,57.9c-7.2-3.4-14.3-7-21.3-11c-3.4-2-6.9-4.1-10.1-6.5c-1.6-1.2-3.2-2.5-4.5-4.1
							c-0.7-0.8-1.3-1.7-1.6-2.9c-0.1-0.6,0-1.4,0.4-2c0.1-0.1,0.1-0.2,0.2-0.3c0.1-0.1,0.2-0.3,0.4-0.4c0.2-0.2,0.5-0.4,0.7-0.5
							c1-0.6,2.1-0.8,3.1-0.9c1-0.1,2.1-0.2,3.1-0.2c2,0,4.1,0.2,6.1,0.5c4,0.6,7.9,1.5,11.8,2.7c3.9,1.2,7.6,2.6,11.3,4.5
							c1.8,1,3.6,2,5.2,3.6c0.4,0.4,0.8,0.8,1.1,1.4c0.3,0.5,0.6,1.2,0.6,2c0,0.8-0.3,1.5-0.8,2.1c0,0.1-0.1,0.1-0.1,0.2
							c-0.1,0.1-0.2,0.2-0.3,0.3c-0.2,0.2-0.4,0.3-0.6,0.4c-0.5,0.2-1.1,0.2-1.5,0.1c-0.9-0.3-1.3-0.8-1.7-1.2
							c-0.4-0.4-0.7-0.9-1-1.3c-0.6-0.9-1.1-1.8-1.5-2.8c-0.9-1.9-1.6-3.7-2.3-5.7c-1.3-3.8-2.4-7.7-3.4-11.6
							c-0.9-3.9-1.7-7.9-2.1-11.9c-0.2-2-0.4-4.1-0.3-6.2c0.1-1.1,0.2-2.1,0.5-3.3c0.2-0.6,0.4-1.2,1-1.8c0.3-0.3,0.7-0.6,1.2-0.7
							c0,0,0.3-0.1,0.2-0.1l0,0l0.1,0c0.1,0,0.1,0,0.2,0c0.3,0,0.6,0,0.8,0c0.8,0.1,1.4,0.5,1.9,0.9c0.5,0.4,0.9,0.8,1.3,1.2
							c0.8,0.8,1.4,1.6,2,2.5c1.2,1.7,2.2,3.5,3.2,5.2c1.9,3.6,3.7,7.2,5.3,10.8c1.6,3.7,3.2,7.4,4.7,11.1c1.5,3.7,2.9,7.4,4.3,11.2
							l-2.9,0.2c0.8-3.9,1.6-7.8,2.5-11.6c0.9-3.8,1.9-7.7,3.1-11.5c1.2-3.8,2.4-7.6,4.1-11.3c0.8-1.8,1.8-3.7,3-5.4
							c0.6-0.9,1.4-1.7,2.4-2.4c0.5-0.4,1.1-0.7,1.8-0.8c0.7-0.2,1.6-0.2,2.4,0.4c0.7,0.5,1.1,1,1.4,1.6c0.3,0.5,0.5,1.1,0.7,1.6
							c0.4,1,0.6,2,0.8,3.1c0.4,2,0.6,4,0.7,6c0.2,4,0.2,8,0,12c-0.2,4-0.6,7.9-1.2,11.9c-0.3,2-0.7,3.9-1.2,5.9c-0.3,1-0.6,2-1,2.9
							c-0.4,1-0.8,2-1.8,2.9c-0.2,0.2-0.6,0.5-1,0.6c-0.4,0.2-1,0.2-1.4,0.1l-0.1,0l0,0l-0.1,0c-0.2-0.1-0.3-0.2-0.4-0.3
							c-0.2-0.2-0.4-0.4-0.5-0.6c-0.3-0.5-0.3-0.9-0.3-1.2c0-1.4,0.5-2.3,0.9-3.3c0.8-1.9,1.9-3.6,2.9-5.3c2.2-3.4,4.6-6.5,7.2-9.5
							c2.6-3,5.3-5.9,8.3-8.6c1.5-1.3,3.1-2.6,4.8-3.6c0.9-0.5,1.8-1,2.8-1.3c1-0.3,2.2-0.5,3.4-0.1c0.1,0.1,0.3,0.1,0.4,0.2l0.1,0
							c0,0,0.2,0.1,0.1,0.1l0.1,0.1l0.1,0.1c0.2,0.2,0.4,0.3,0.6,0.5c0.5,0.5,0.7,1,0.9,1.5c0.4,1.1,0.4,2.2,0.2,3.2
							c-0.2,2.1-0.9,4-1.7,5.8c-1.6,3.7-3.7,7.1-5.9,10.3c-2.2,3.3-4.6,6.4-7.2,9.4c-2.6,3-5.3,5.9-8.2,8.5c2.9-2.7,5.4-5.7,7.9-8.8
							c2.4-3.1,4.7-6.3,6.8-9.6c2.1-3.3,4-6.7,5.5-10.3c0.7-1.8,1.3-3.7,1.5-5.5c0.1-0.9,0.1-1.8-0.3-2.6c-0.1-0.4-0.4-0.7-0.6-1
							c-0.1-0.1-0.3-0.3-0.5-0.4l-0.1-0.1l-0.1-0.1c-0.1,0,0.1,0,0,0l0,0l-0.2-0.1c-0.7-0.2-1.5-0.1-2.4,0.2
							c-0.8,0.3-1.7,0.7-2.5,1.2c-1.6,1-3.1,2.2-4.5,3.5c-2.9,2.6-5.5,5.5-8,8.5c-2.5,3-4.8,6.2-6.8,9.5c-1,1.6-2,3.3-2.7,5
							c-0.3,0.8-0.7,1.8-0.6,2.4c0,0.1,0,0.2,0,0.2c0,0,0-0.1-0.1-0.1c0,0-0.1-0.1-0.1-0.1l0,0l0,0l0.1,0c0,0,0,0,0,0
							c0,0,0.1-0.1,0.2-0.2c0.4-0.4,0.9-1.3,1.2-2.1c0.3-0.9,0.6-1.8,0.8-2.7c0.5-1.9,0.8-3.8,1.1-5.7c0.6-3.8,0.9-7.7,1.1-11.6
							c0.2-3.9,0.2-7.8-0.1-11.7c-0.1-1.9-0.3-3.8-0.7-5.7c-0.2-0.9-0.4-1.8-0.7-2.6c-0.1-0.4-0.3-0.8-0.5-1.1
							c-0.2-0.3-0.4-0.6-0.5-0.6c0,0-0.1-0.1-0.4,0C88.3,2.8,88,3,87.7,3.2C87.2,3.6,86.6,4.3,86,5c-1,1.5-1.9,3.2-2.7,4.9
							c-1.5,3.5-2.8,7.2-3.9,11c-1.1,3.7-2.1,7.5-3,11.3c-0.9,3.8-1.7,7.7-2.4,11.5l-1,5.4l-1.9-5.2c-2.7-7.4-5.6-14.9-8.8-22.1
							c-1.6-3.6-3.3-7.2-5.1-10.7c-0.9-1.7-1.9-3.4-3-5c-0.5-0.8-1.1-1.5-1.7-2.2c-0.3-0.3-0.6-0.6-0.9-0.8
							c-0.3-0.2-0.6-0.4-0.7-0.4c-0.1,0,0,0,0.1,0c0,0-0.1,0-0.1,0l-0.1,0l0,0c-0.1,0,0.1,0,0.1,0c0,0,0,0-0.1,0.1
							c-0.1,0.1-0.3,0.4-0.4,0.8c-0.2,0.8-0.4,1.7-0.4,2.6c-0.1,1.9,0,3.8,0.2,5.8c0.4,3.9,1.1,7.8,2,11.6c0.9,3.8,1.9,7.7,3.2,11.4
							c0.6,1.9,1.3,3.7,2.1,5.4c0.4,0.9,0.8,1.7,1.3,2.5c0.2,0.4,0.5,0.7,0.8,1c0.3,0.3,0.6,0.5,0.7,0.5c0.1,0,0,0,0,0c0,0,0,0,0,0
							l0,0c0,0,0.1-0.1,0.1-0.1c0.2-0.2,0.3-0.4,0.3-0.6c0-0.4-0.4-1.2-1-1.8c-1.2-1.3-2.9-2.3-4.6-3.2c-3.4-1.8-7.1-3.3-10.9-4.5
							c-3.8-1.2-7.6-2.2-11.5-2.9c-1.9-0.3-3.9-0.6-5.8-0.6c-1.9,0-3.9,0.1-5.5,0.8c-0.2,0.1-0.4,0.2-0.5,0.3L20.7,32
							c-0.1,0-0.1,0.2-0.2,0.3c-0.2,0.2-0.3,0.5-0.2,0.9c0.1,0.7,0.6,1.6,1.2,2.3c1.2,1.5,2.7,2.8,4.2,4c3.1,2.5,6.4,4.6,9.8,6.7
							c3.4,2.1,6.8,4.1,10.3,6C49.3,54.2,52.8,56.1,56.3,57.9z"/>
					</g>
					<g id="XMLID_126_">
						<g id="XMLID_76_">
							<path id="XMLID_481_" class="st2" d="M56.8,94.4C56.8,94.4,56.8,94.4,56.8,94.4c-0.3,0-0.4-0.2-0.5-0.4
								c-1.2-6.2-2.6-12.4-4.4-18.4c-2.2,5.7-3.6,11.6-4.2,17.6c0,0.2-0.2,0.4-0.4,0.4c-0.2,0-0.4-0.1-0.5-0.3
								C44,87,41.9,80.4,40.5,73.6c-0.1-0.3,0.1-0.5,0.4-0.6c0.3-0.1,0.5,0.1,0.6,0.4c1.2,6.1,3.1,12,5.4,17.7
								c0.7-6,2.3-11.8,4.6-17.3c0.1-0.2,0.3-0.3,0.5-0.3c0.2,0,0.4,0.2,0.5,0.4c1.8,5.9,3.3,11.9,4.5,17.9l5-16.5
								c0.1-0.5,0.7-2.1,1.9-2.7c0.5-0.2,0.9-0.3,1.4-0.1c0.2,0.1,0.3,0.2,0.3,0.3c1.4,5.6,3.3,11.2,5.4,16.6c1.7-2.3,2-5.4,2.3-8.6
								c0.4-3.6,0.7-7.3,3.2-9.9c0.1-0.1,0.3-0.2,0.4-0.2c0.2,0,0.3,0.1,0.4,0.2c3.1,4.7,5.4,9.8,6.9,15.2c1-5.3,1.9-10.7,2.6-16.1
								c0-0.3,0.3-0.4,0.5-0.4c1.7,0,2.4,2,2.6,2.7l4.5,12.5l2.4-19.1c0-0.2,0.2-0.4,0.4-0.4c0.2,0,0.4,0,0.5,0.2l5.9,8.9
								c0.2,0.2,0.1,0.5-0.1,0.7c-0.2,0.1-0.5,0.1-0.7-0.1l-5.1-7.8l-2.4,19.8c0,0.2-0.2,0.4-0.4,0.4c-0.2,0-0.4-0.1-0.5-0.3
								L89,72.7c-0.4-1-0.8-1.7-1.3-1.9c-0.8,5.9-1.8,11.9-3,17.8c0,0.2-0.2,0.4-0.5,0.4c-0.2,0-0.4-0.2-0.5-0.4
								c-1.4-5.9-3.7-11.4-7-16.5c-1.9,2.3-2.2,5.5-2.5,8.9c-0.4,3.5-0.7,7.2-3.1,9.8c-0.1,0.1-0.3,0.2-0.5,0.2
								c-0.2,0-0.3-0.1-0.4-0.3c-2.3-5.6-4.2-11.4-5.7-17.2c-0.1,0-0.3,0-0.4,0.1c-0.5,0.3-1.1,1.1-1.4,2.1L57.3,94
								C57.3,94.2,57.1,94.4,56.8,94.4z"/>
						</g>
						<g id="XMLID_77_">
							<path id="XMLID_480_" class="st2" d="M51.3,131c-0.2,0-0.4-0.1-0.5-0.3c-3.6-8-5.7-16.9-6.1-25.7c0-0.3,0.2-0.5,0.5-0.5
								c0.3,0,0.5,0.2,0.5,0.5c0.3,8.2,2.2,16.4,5.4,23.9l5.1-24.1c0-0.2,0.3-0.4,0.5-0.4c0,0,0,0,0,0c0.2,0,0.4,0.2,0.5,0.4
								l4.9,21.8c0.8-8.5,2.6-16.8,5.4-24.8c0.1-0.2,0.2-0.3,0.5-0.3c0.2,0,0.4,0.1,0.5,0.3c2.6,6.1,5,12.3,7,18.6l2.4-18.9
								c0-0.2,0.1-0.3,0.3-0.4c0.1-0.1,0.3-0.1,0.5,0c3.6,1.8,4.7,5.7,5.7,9.5c0.7,2.5,1.4,5.2,2.9,7.2L87.8,99
								c0-0.2,0.2-0.4,0.4-0.5c0.2-0.1,0.4,0,0.6,0.2c2.9,5.1,4.5,10.7,5.9,16.4l0.4-17c0-1,0.4-2.2,1.2-2.7
								c0.4-0.3,0.9-0.3,1.3-0.1c0.7,0.3,1,1.1,1.2,1.6l5.5,15.5c0.2-4.4,0.2-8.9,0.1-13.3c0-0.3,0.2-0.5,0.5-0.5
								c0.3,0,0.5,0.2,0.5,0.5c0.2,5.3,0.1,10.6-0.2,15.9c0,0.2-0.2,0.4-0.4,0.5c-0.2,0-0.5-0.1-0.5-0.3l-6.3-17.9
								c-0.1-0.4-0.3-0.8-0.6-1c-0.1-0.1-0.3,0-0.4,0c-0.4,0.3-0.7,1.1-0.7,1.9l-0.5,20.8c0,0.3-0.2,0.5-0.4,0.5
								c-0.3,0-0.5-0.1-0.5-0.4c-1.5-6.1-3-12.4-5.8-18.1L88.2,119c0,0.2-0.1,0.4-0.3,0.4c-0.2,0.1-0.4,0-0.5-0.1
								c-2.2-2.2-3.1-5.5-4-8.6c-1-3.5-1.9-6.8-4.6-8.5l-2.6,20.4c0,0.2-0.2,0.4-0.5,0.4c-0.2,0-0.5-0.1-0.5-0.3
								c-2.1-6.6-4.4-13.1-7.1-19.4c-2.9,8.6-4.7,17.6-5.2,26.6c0,0.2-0.2,0.4-0.5,0.5c-0.3,0-0.5-0.1-0.5-0.4l-5.1-22.8l-4.9,23.4
								C51.8,130.8,51.6,130.9,51.3,131C51.4,131,51.4,131,51.3,131z"/>
						</g>
						<g id="XMLID_78_">
							<path id="XMLID_479_" class="st2" d="M56.8,150.6c-0.2,0-0.4-0.1-0.4-0.3l-7.1-13.3c-0.1-0.2,0-0.5,0.2-0.7
								c0.2-0.1,0.5,0,0.7,0.2l6.5,12.1l3.4-14.5c0.4-1.7,1.2-4.1,3.3-4.5c0.2,0,0.5,0.1,0.6,0.3l5.5,13c0.3,0.7,0.9,1.6,1.5,1.8
								c0.2,0.1,0.4,0.1,0.6,0c0.4-0.2,0.6-0.8,0.7-1.2c0.4-1.8,0.6-3.7,0.7-5.6c0.3-3.6,0.6-7.4,2.8-10.4c0.1-0.2,0.4-0.3,0.6-0.2
								c3.2,1.4,4.4,4.7,5.5,8c0.7,2.1,1.4,4.2,2.7,5.8c0.4-4.9,0.7-9.9,0.9-14.9c0-0.2,0.2-0.4,0.4-0.5c0.2-0.1,0.4,0,0.5,0.2
								c3.1,4.3,5.1,9.2,6.8,14.1l0.7-15.1c0-0.2,0.2-0.4,0.4-0.5c0.2-0.1,0.4,0,0.6,0.2c2.2,3.6,3.8,7.5,5.3,11.5l0.9-14.8
								c0-0.2,0.2-0.4,0.4-0.5c0.2,0,0.4,0.1,0.5,0.3l5,10c0.1,0.2,0,0.5-0.2,0.7c-0.2,0.1-0.5,0-0.7-0.2l-4.2-8.3l-1,15.4
								c0,0.2-0.2,0.4-0.4,0.5c-0.2,0-0.5-0.1-0.5-0.3c-1.5-4.1-3-8.3-5.1-12.1l-0.7,16c0,0.2-0.2,0.4-0.4,0.5
								c-0.3,0-0.5-0.1-0.5-0.3c-1.8-5.1-3.7-10.4-6.7-15c-0.2,4.9-0.5,9.8-0.9,14.6c0,0.2-0.1,0.4-0.3,0.4c-0.2,0.1-0.4,0-0.5-0.1
								c-1.9-1.9-2.8-4.5-3.7-7.1c-1.1-3.1-2.1-6-4.6-7.3c-1.8,2.7-2.1,6-2.4,9.6c-0.2,1.9-0.3,3.8-0.8,5.7
								c-0.2,0.7-0.4,1.5-1.2,1.9c-0.4,0.2-0.9,0.3-1.4,0.1c-0.9-0.3-1.7-1.4-2.1-2.4l-5.4-12.6c-1.2,0.5-1.8,2.3-2.1,3.7l-3.7,15.7
								C57.2,150.4,57.1,150.6,56.8,150.6C56.8,150.6,56.8,150.6,56.8,150.6z"/>
						</g>
					</g>
					<g id="XMLID_67_">
						<polygon id="XMLID_69_" class="st1" points="33.7,105.4 117.2,82.7 118.1,94.4 34.3,114.7 						"/>
					</g>
					<g id="XMLID_71_">
						<polygon id="XMLID_72_" class="st6" points="74.1,157.9 61.3,51.4 77.8,47.9 86.8,155.9 						"/>
					</g>
				</g>
				<g id="XMLID_73_">
					<g id="XMLID_74_">
						<polygon id="XMLID_1475_" class="st5" points="13.7,109.3 28.8,125.7 30.8,154.7 4.9,156.8 1.3,125.8 						"/>
					</g>
					<g id="XMLID_79_">
						<path id="XMLID_478_" class="st3" d="M13.3,123.3c-0.6-15,3.1-27.4,10.9-37c7.5-9.2,16.5-12.7,19-13.5
							c1.6-0.5,4.3-1.2,4.8-0.4l-0.8,0.6c0,0.1,0.1,0.1,0.1,0.1c-0.7-0.3-6.9,1-13.8,5.9c-9.3,6.6-20.1,19.6-19.2,44.3L13.3,123.3z"
							/>
					</g>
					<g id="XMLID_80_">
						<circle id="XMLID_473_" class="st0" cx="13.3" cy="125.8" r="2.5"/>
						<path id="XMLID_474_" class="st3" d="M13.3,128.8c-1.6,0-3-1.3-3-3c0-0.8,0.3-1.6,0.9-2.1c0.6-0.6,1.3-0.9,2.1-0.9
							c0,0,0,0,0,0c1.6,0,3,1.3,3,3l0,0C16.3,127.4,14.9,128.8,13.3,128.8C13.3,128.8,13.3,128.8,13.3,128.8z M13.3,123.8
							C13.3,123.8,13.3,123.8,13.3,123.8c-0.5,0-1,0.2-1.4,0.6c-0.4,0.4-0.6,0.9-0.6,1.4c0,1.1,0.9,2,2,2c1.1,0,2-0.9,2-2l0,0
							C15.3,124.7,14.4,123.8,13.3,123.8z"/>
					</g>
				</g>
			</g>
			<g id="XMLID_35_">
				<g id="XMLID_81_">
					<g id="XMLID_82_">
						<polygon id="XMLID_83_" class="st7" points="127.6,141.5 128,146.9 245.7,130.4 245,118.5 						"/>
					</g>
					<g id="XMLID_121_">
						<polygon id="XMLID_86_" class="st2" points="243.2,88.4 125.1,101.1 127.6,141.5 245,118.5 						"/>
					</g>
				</g>
				<g id="XMLID_84_">
					<path id="XMLID_96_" class="st6" d="M243.7,96.1L243,83.8L125,97.9l0.8,15.1c0,0,15.8,10.1,60.1,4.6S243.7,96.1,243.7,96.1z"/>
				</g>
				<g id="XMLID_97_">
					<path id="XMLID_468_" class="st1" d="M178.2,75.9c24.8-1.8,64.8-0.8,64.8,7.9c0,8.1-30.2,23.1-64.8,25.9S126,106.4,125,97.9
						S147.2,78.2,178.2,75.9z"/>
					<path id="XMLID_470_" class="st3" d="M162.4,111.3c-9.3,0-17.3-0.8-23.6-2.4c-11.5-2.9-14.4-7.5-14.8-10.9
						c-0.2-1.9,0.5-3.8,2.1-5.8c7.8-9.5,32.1-15.9,52.1-17.4l0.1,1l-0.1-1c22.4-1.6,57.2-0.9,64.3,5.7c1,0.9,1.5,2,1.5,3.2
						c0,9.4-31.9,24.2-65.7,26.9C172.7,111.1,167.3,111.3,162.4,111.3z M199.7,76.2c-7.2,0-14.5,0.3-21.4,0.8
						c-25.8,1.9-45,9.8-50.7,16.6c-1.3,1.5-1.8,3-1.7,4.3c0.9,7.4,17.3,13.6,52.2,10.9c36.2-2.9,63.8-18.3,63.8-24.9
						c0-0.6-0.3-1.1-0.9-1.7C236.7,78,218.9,76.2,199.7,76.2z"/>
				</g>
				<g id="XMLID_98_">
					<g id="XMLID_99_">
						<path id="XMLID_100_" class="st2" d="M179,85.9c0,0-0.5-0.5-1.5-1.4c-1-0.9-2.4-2.2-4.1-3.9c-1.7-1.7-3.8-3.9-6.1-6.4
							c-2.3-2.5-4.9-5.4-7.4-8.8c-1.3-1.7-2.6-3.5-3.8-5.4c-1.2-2-2.4-4-3.2-6.5c-0.4-1.2-0.7-2.5-0.6-4c0.1-0.7,0.3-1.5,0.7-2.2
							c0.2-0.4,0.5-0.7,0.7-1l0.2-0.2l0.1-0.1l0.1-0.1c0,0,0.2-0.1,0.1-0.1l0.4-0.3c0.2-0.1,0.4-0.2,0.6-0.3
							c0.2-0.1,0.4-0.2,0.6-0.2c0.4-0.1,0.9-0.2,1.3-0.2c0.9,0,1.7,0.3,2.4,0.6c1.4,0.7,2.5,1.6,3.5,2.6c2,2,3.6,4.2,5.1,6.5
							c1.5,2.3,2.8,4.7,4.1,7.2c2.5,5,4.8,10.1,6.6,15.5c0.4,1.3,0.9,2.7,1.2,4.1c0.2,0.7,0.3,1.4,0.5,2.2c0.1,0.4,0.1,0.8,0.1,1.2
							c0,0.2,0,0.4,0,0.7c0,0.1,0,0.2-0.1,0.4c0,0.2-0.1,0.3-0.2,0.6c-0.1,0.3-0.2,0.3-0.2,0.4l-0.1,0.2l-0.3,0.4l-0.5,0.9
							c-0.4,0.6-0.7,1.2-1.1,1.8c-0.8,1.2-1.6,2.3-2.5,3.5c-1.7,2.2-3.7,4.3-5.9,6.1c-2.2,1.8-4.7,3.2-7.4,4.1
							c-2.7,0.8-5.6,1-8.2,0.5c-2.6-0.5-5.1-1.5-7.2-2.9c-2.1-1.4-3.9-3.4-4.9-5.6c-1.1-2.2-1.5-4.6-1.2-6.8
							c0.2-2.2,1.2-4.4,2.7-5.8c0.8-0.7,1.7-1.2,2.6-1.5c0.1,0,0.2-0.1,0.4-0.1l0.3-0.1l0.6-0.1c0.4-0.1,0.9-0.1,1.3-0.2
							c3.6-0.4,6.7,0.9,8.4,2.8c0.9,0.9,1.4,1.9,1.7,2.8c0.3,0.9,0.4,1.7,0.4,2.4c0,0.3,0,0.6,0,0.9c0,0.2-0.1,0.5-0.1,0.6
							c0,0.3-0.1,0.5-0.1,0.5s0-0.2,0-0.5c0-0.2,0-0.4,0-0.6c0-0.2,0-0.5-0.1-0.9c-0.1-0.6-0.2-1.4-0.6-2.3c-0.4-0.8-1-1.7-1.8-2.6
							c-1.7-1.6-4.7-2.6-7.9-2.1c-0.4,0.1-0.8,0.1-1.2,0.2l-0.6,0.2l-0.3,0.1l-0.3,0.1c-0.8,0.3-1.5,0.8-2.1,1.4
							c-1.2,1.2-1.9,3-2,4.9c-0.1,1.9,0.3,4,1.3,5.8c1,1.8,2.5,3.4,4.4,4.6c1.9,1.2,4.1,2,6.4,2.3c2.3,0.4,4.7,0.2,7-0.6
							c4.6-1.6,8.5-5.2,11.8-9.4c0.8-1.1,1.6-2.2,2.3-3.3c0.4-0.6,0.7-1.1,1.1-1.7l1-1.6c0,0.1,0,0.1,0,0.1c0,0,0-0.1,0-0.1
							c0-0.1,0-0.2,0-0.3c0-0.3,0-0.6-0.1-0.9c-0.1-0.6-0.2-1.3-0.4-1.9c-0.3-1.3-0.7-2.6-1.2-3.9c-1.7-5.2-3.9-10.3-6.3-15.1
							c-1.2-2.4-2.5-4.8-3.9-7c-1.4-2.2-2.9-4.4-4.6-6.1c-0.8-0.9-1.8-1.6-2.7-2.1c-0.9-0.5-1.8-0.5-2.4-0.2l-0.4,0.3
							c-0.1,0.1,0,0,0,0l0,0l-0.1,0.1l-0.1,0.1c-0.2,0.2-0.3,0.3-0.4,0.5c-0.2,0.4-0.4,0.8-0.4,1.3c-0.1,1,0.1,2.1,0.4,3.1
							c0.6,2.1,1.7,4.2,2.8,6.1c1.1,1.9,2.3,3.7,3.5,5.4c2.4,3.4,4.7,6.4,6.9,9c2.1,2.6,4.1,4.9,5.7,6.7c1.6,1.8,2.9,3.2,3.8,4.2
							C178.6,85.4,179,85.9,179,85.9z"/>
					</g>
					<g id="XMLID_101_">
						<path id="XMLID_102_" class="st2" d="M179.2,85.9c1.3-2,2.6-3.9,3.8-5.9c1.3-2,2.5-4,3.7-6c2.4-4,4.8-8.1,7-12.2
							c1.1-2.1,2.2-4.1,3.2-6.2c1-2.1,1.9-4.2,2.7-6.4c0.8-2.2,1.5-4.4,1.8-6.5c0.1-1.1,0.2-2.2,0-3.1c-0.2-0.9-0.6-1.6-1.3-1.9
							l-0.1-0.1c0,0,0.2,0.1,0.1,0l0,0l-0.1,0l-0.1,0l-0.2-0.1c-0.1,0-0.1,0-0.1,0c0,0-0.2,0-0.4,0c-0.3,0-0.7,0.2-1,0.5
							c-0.7,0.5-1.4,1.3-2.1,2.2c-1.3,1.8-2.3,3.8-3.2,5.9c-1.9,4.2-3.5,8.6-4.9,13c-1.4,4.4-2.7,8.9-4,13.5
							c-1.2,4.5-2.4,9.1-3.4,13.6l-0.4-1.4c0.9,0.8,2.1,1.6,3.3,2.2c0.6,0.3,1.2,0.6,1.9,0.8c0.7,0.2,1.3,0.5,2,0.6
							c0.7,0.2,1.3,0.3,2,0.4c0.3,0,0.7,0.1,1,0.1l1,0c0.7,0.1,1.4,0,2-0.1c0.3,0,0.7,0,1-0.1l1-0.2l1-0.2c0.3-0.1,0.7-0.2,1-0.3
							c0.7-0.2,1.3-0.4,2-0.7l1.9-0.9l1.8-1.1c0.3-0.2,0.6-0.4,0.9-0.5l0.9-0.6c0.6-0.4,1.1-0.8,1.7-1.3c1.1-0.9,2.2-1.8,3.2-2.8
							c2-2,3.7-4.3,4.8-6.9c0.6-1.3,1-2.6,1.2-4c0.2-1.4,0.3-2.8,0-4.1c-0.3-1.3-1-2.6-2.1-3.4c-0.3-0.2-0.6-0.4-0.9-0.5l-1-0.4
							c-0.6-0.1-1.3-0.3-2-0.1c-1.4,0.2-2.4,1.4-2.8,2.7c-0.4,1.3-0.3,2.9,0.4,4.2c-0.9-1.2-1.1-2.8-0.8-4.3c0.1-0.7,0.5-1.5,1-2
							c0.2-0.3,0.6-0.5,0.9-0.8c0.4-0.2,0.7-0.4,1.1-0.4c0.8-0.2,1.6-0.1,2.4,0l1.1,0.3c0.4,0.1,0.7,0.3,1.1,0.5
							c1.4,0.9,2.2,2.3,2.7,3.8c0.4,1.5,0.5,3.1,0.3,4.6c-0.2,1.5-0.6,3-1.1,4.4c-1.1,2.8-2.9,5.4-4.9,7.6c-1,1.1-2.1,2.2-3.3,3.1
							c-0.6,0.5-1.2,1-1.8,1.4l-0.9,0.7c-0.3,0.2-0.6,0.4-1,0.6l-1.9,1.2l-2.1,1c-0.7,0.4-1.4,0.6-2.1,0.8c-0.4,0.1-0.7,0.3-1.1,0.4
							l-1.1,0.3l-1.1,0.3c-0.4,0.1-0.8,0.1-1.2,0.1c-0.8,0.1-1.6,0.2-2.3,0.1l-1.2,0c-0.4,0-0.8-0.1-1.2-0.1
							c-0.8-0.1-1.5-0.2-2.3-0.4c-0.8-0.1-1.5-0.4-2.3-0.6c-0.7-0.3-1.5-0.5-2.2-0.9c-1.4-0.7-2.7-1.4-4-2.5l-0.6-0.5l0.2-0.9
							c1-4.6,2.1-9.2,3.4-13.8c1.2-4.6,2.5-9.1,4-13.6c1.5-4.5,3.1-9,5.1-13.3c1-2.2,2.2-4.3,3.6-6.3c0.8-1,1.6-2,2.8-2.8
							c0.6-0.4,1.3-0.8,2.2-0.9c0.4,0,0.9-0.1,1.4,0.1c0.1,0,0.3,0.1,0.3,0.1l0.2,0.1l0.3,0.1l0.3,0.1c0.7,0.4,1.3,0.9,1.7,1.6
							c0.4,0.7,0.7,1.4,0.8,2.1c0.3,1.4,0.2,2.7,0,3.9c-0.4,2.5-1.2,4.8-2.1,7c-1.8,4.4-4.1,8.6-6.5,12.7c-2.4,4.1-5,8-7.7,11.9
							C184.9,78.4,182.1,82.2,179.2,85.9z"/>
					</g>
				</g>
				<g id="XMLID_103_">
					<g id="XMLID_104_">
						<polygon id="XMLID_105_" class="st5" points="229.2,58 232.5,45.2 262.8,33.2 269.5,52.2 238.2,62.2 						"/>
					</g>
					<g id="XMLID_106_">
						<path id="XMLID_469_" class="st3" d="M219.2,82l-1-0.2c0-0.1,1.2-6.3,3.9-12.9c3.7-8.8,8.6-14.4,14.2-16l0.3,1
							C223.8,57.8,219.3,81.8,219.2,82z"/>
					</g>
					<g id="XMLID_107_">
						<circle id="XMLID_463_" class="st0" cx="237.8" cy="53.4" r="1.4"/>
						<path id="XMLID_465_" class="st3" d="M237.8,55.3c-1,0-1.9-0.8-1.9-1.9s0.8-1.9,1.9-1.9c1,0,1.9,0.8,1.9,1.9
							S238.9,55.3,237.8,55.3z M237.8,52.5c-0.5,0-0.9,0.4-0.9,0.9s0.4,0.9,0.9,0.9c0.5,0,0.9-0.4,0.9-0.9S238.3,52.5,237.8,52.5z"
							/>
					</g>
				</g>
			</g>
			<g id="XMLID_108_">
				<g id="XMLID_109_">
					<polygon id="XMLID_1436_" class="st6" points="131,223.4 145.7,322.1 59,330.9 59,232.9 					"/>
				</g>
				<g id="XMLID_110_">
					<g id="XMLID_111_">
						<path id="XMLID_112_" class="st5" d="M45.2,260c5.4,1.7,7.8,11.8,0,29c-6,13.4-14.8,10.7-17.8,7.1c-3-3.6-2.9-16.3,1-24.1
							C34.7,259.5,41.6,258.8,45.2,260z"/>
					</g>
					<g id="XMLID_113_">
						<path id="XMLID_464_" class="st3" d="M43,270.2c-3-27.2,20.2-31,20.4-31l0.2,1c-0.9,0.1-22.5,3.8-19.6,30L43,270.2z"/>
					</g>
					<g id="XMLID_115_">
						<circle id="XMLID_189_" class="st0" cx="43.5" cy="271.9" r="1.8"/>
						<path id="XMLID_460_" class="st3" d="M43.5,274.2c-1.2,0-2.2-1-2.2-2.2s1-2.2,2.2-2.2c1.2,0,2.2,1,2.2,2.2
							S44.7,274.2,43.5,274.2z M43.5,270.7c-0.7,0-1.2,0.6-1.2,1.2c0,0.7,0.6,1.2,1.2,1.2c0.7,0,1.2-0.6,1.2-1.2
							C44.7,271.2,44.2,270.7,43.5,270.7z"/>
					</g>
				</g>
				<g id="XMLID_116_">
					<defs>
						<polygon id="XMLID_1384_" points="131,223.4 145.7,322.1 59,330.9 59,232.9 						"/>
					</defs>
					<clipPath id="XMLID_265_">
						<use xlink:href="#XMLID_1384_"  style="overflow:visible;"/>
					</clipPath>
					<g id="XMLID_117_" class="st8">
						<g id="XMLID_118_">
							<g id="XMLID_119_">
								
									<rect id="XMLID_459_" x="15.4" y="313.3" transform="matrix(0.7381 0.6747 -0.6747 0.7381 230.297 34.2686)" class="st0" width="111.2" height="1"/>
							</g>
							<g id="XMLID_120_">
								
									<rect id="XMLID_458_" x="33.1" y="301.2" transform="matrix(0.7274 0.6862 -0.6862 0.7274 230.8991 22.2171)" class="st0" width="108.9" height="1"/>
							</g>
							<g id="XMLID_122_">
								
									<rect id="XMLID_457_" x="44.9" y="286.7" transform="matrix(0.7381 0.6747 -0.6747 0.7381 220.1064 7.4411)" class="st0" width="111.2" height="1"/>
							</g>
							<g id="XMLID_123_">
								
									<rect id="XMLID_456_" x="50.6" y="268.5" transform="matrix(0.7236 0.6902 -0.6902 0.7236 215.8795 -1.13)" class="st0" width="117.4" height="1"/>
							</g>
							<g id="XMLID_124_">
								
									<rect id="XMLID_455_" x="61" y="251.6" transform="matrix(0.7236 0.6902 -0.6902 0.7236 207.0643 -12.9143)" class="st0" width="117.4" height="1"/>
							</g>
							<g id="XMLID_125_">
								
									<rect id="XMLID_454_" x="70.6" y="235.5" transform="matrix(0.7236 0.6902 -0.6902 0.7236 198.6292 -24.0325)" class="st0" width="117.4" height="1"/>
							</g>
						</g>
						<g id="XMLID_127_">
							<g id="XMLID_130_">
								
									<rect id="XMLID_453_" x="8.4" y="319.2" transform="matrix(0.7381 0.6747 -0.6747 0.7381 232.4471 40.5425)" class="st3" width="111.2" height="1"/>
							</g>
							<g id="XMLID_131_">
								
									<rect id="XMLID_452_" x="26" y="307.1" transform="matrix(0.7274 0.6862 -0.6862 0.7274 233.0414 28.6346)" class="st3" width="108.9" height="1"/>
							</g>
							<g id="XMLID_132_">
								
									<rect id="XMLID_451_" x="37.9" y="292.6" transform="matrix(0.7381 0.6747 -0.6747 0.7381 222.2525 13.7138)" class="st3" width="111.2" height="1"/>
							</g>
							<g id="XMLID_133_">
								
									<rect id="XMLID_450_" x="43.6" y="274.4" transform="matrix(0.7236 0.6902 -0.6902 0.7236 218.0212 5.3386)" class="st3" width="117.4" height="1"/>
							</g>
							<g id="XMLID_135_">
								
									<rect id="XMLID_449_" x="53.9" y="257.5" transform="matrix(0.7236 0.6902 -0.6902 0.7236 209.2036 -6.4468)" class="st3" width="117.4" height="1"/>
							</g>
							<g id="XMLID_136_">
								
									<rect id="XMLID_448_" x="63.6" y="241.4" transform="matrix(0.7236 0.6902 -0.6902 0.7236 200.7697 -17.5646)" class="st3" width="117.4" height="1"/>
							</g>
						</g>
						<g id="XMLID_137_">
							<g id="XMLID_138_">
								
									<rect id="XMLID_447_" x="131.7" y="258.5" transform="matrix(0.6741 0.7386 -0.7386 0.6741 275.0676 4.6814)" class="st2" width="1" height="111.2"/>
							</g>
							<g id="XMLID_139_">
								
									<rect id="XMLID_446_" x="115.3" y="247.6" transform="matrix(0.6862 0.7274 -0.7274 0.6862 255.9977 10.5661)" class="st2" width="1" height="108.9"/>
							</g>
							<g id="XMLID_140_">
								
									<rect id="XMLID_445_" x="102.3" y="231.9" transform="matrix(0.6742 0.7386 -0.7386 0.6742 245.8422 17.7796)" class="st2" width="1" height="111.2"/>
							</g>
							<g id="XMLID_141_">
								
									<rect id="XMLID_444_" x="93.4" y="210.6" transform="matrix(0.6903 0.7235 -0.7235 0.6903 223.9191 15.4704)" class="st2" width="1" height="117.4"/>
							</g>
							<g id="XMLID_142_">
								
									<rect id="XMLID_357_" x="83.1" y="193.7" transform="matrix(0.6902 0.7236 -0.7236 0.6902 208.5164 17.7026)" class="st2" width="1" height="117.4"/>
							</g>
							<g id="XMLID_144_">
								
									<rect id="XMLID_191_" x="73.4" y="177.6" transform="matrix(0.6903 0.7235 -0.7235 0.6903 193.867 19.7047)" class="st2" width="1" height="117.4"/>
							</g>
						</g>
					</g>
				</g>
				<g id="XMLID_146_">
					<g id="XMLID_147_">
						<path id="XMLID_190_" class="st3" d="M86.9,244.5c-0.1-0.5-2-11.5,2.9-18.1c1.9-2.6,4.7-4.2,8.2-4.6c3.8-0.5,7,0.4,9.5,2.7
							c5.6,5,5.6,14.7,5.6,15.1l-2,0c0-0.1,0-9.3-4.9-13.6c-2-1.8-4.7-2.5-7.9-2.2c-2.9,0.3-5.2,1.6-6.8,3.8
							c-4.4,5.9-2.5,16.4-2.5,16.5L86.9,244.5z"/>
					</g>
					<g id="XMLID_148_">
						<circle id="XMLID_184_" class="st0" cx="88.4" cy="246.9" r="2.3"/>
						<path id="XMLID_186_" class="st3" d="M88.4,250.2c-1.8,0-3.3-1.5-3.3-3.3c0-1.8,1.5-3.3,3.3-3.3c1.8,0,3.3,1.5,3.3,3.3
							C91.7,248.7,90.2,250.2,88.4,250.2z M88.4,245.5c-0.7,0-1.3,0.6-1.3,1.3c0,0.7,0.6,1.3,1.3,1.3c0.7,0,1.3-0.6,1.3-1.3
							C89.7,246.1,89.1,245.5,88.4,245.5z"/>
					</g>
					<g id="XMLID_149_">
						<circle id="XMLID_180_" class="st0" cx="112" cy="242" r="2.3"/>
						<path id="XMLID_181_" class="st3" d="M112,245.4c-1.8,0-3.3-1.5-3.3-3.3c0-1.8,1.5-3.3,3.3-3.3s3.3,1.5,3.3,3.3
							C115.4,243.9,113.9,245.4,112,245.4z M112,240.7c-0.7,0-1.3,0.6-1.3,1.3c0,0.7,0.6,1.3,1.3,1.3c0.7,0,1.3-0.6,1.3-1.3
							C113.4,241.3,112.8,240.7,112,240.7z"/>
					</g>
				</g>
			</g>
			<g id="XMLID_150_">
				<path id="XMLID_151_" class="st5" d="M69.9,331.9l4.1-18.7c0.5-2.3,2.7-3.8,5-3.5l0,0c2.2,0.3,3.9,2.2,3.9,4.5v10.7l3.6-11.7
					c0.4-1.3,1.6-2.1,2.9-2.1l0,0c1.9,0,3.3,1.7,3,3.5l-1.7,11.1l6.8-11.9c0.5-0.8,1.3-1.3,2.3-1.3l0,0c1.8,0,3.1,1.8,2.4,3.5
					l-3.6,9.7c-0.9,2.4-3.1,4.1-5.7,4.3L69.9,331.9z"/>
			</g>
			<g id="XMLID_152_">
				<path id="XMLID_1365_" class="st5" d="M253.3,125l-19-2.5c-2.3-0.3-4-2.4-3.9-4.7l0,0c0.1-2.3,1.9-4.1,4.1-4.3l10.7-0.9
					l-11.9-2.6c-1.3-0.3-2.3-1.4-2.4-2.7l0,0c-0.2-1.9,1.4-3.4,3.2-3.3l11.2,0.8L233,99.1c-0.8-0.4-1.4-1.2-1.5-2.1l0,0
					c-0.2-1.8,1.5-3.2,3.3-2.7l9.9,2.8c2.5,0.7,4.4,2.8,4.8,5.3L253.3,125z"/>
			</g>
			<g id="XMLID_153_">
				<g id="XMLID_154_" class="st9">
					<path id="XMLID_155_" class="st10" d="M99.4,435.8c-23,1.3-24.2,20.3,25.2,20.8s103,0.5,103-12.4c0-10.1-18.6-10.7-45.4-11.7
						C149.6,431.3,120.7,434.6,99.4,435.8z"/>
				</g>
				<g id="XMLID_156_">
					<g id="XMLID_157_">
						<path id="XMLID_158_" class="st3" d="M106.7,451.7l39-12l-4.1-18.5l-14,3l0,11.1C118.1,435.8,105.8,447.8,106.7,451.7z"/>
					</g>
					<g id="XMLID_159_">
						<path id="XMLID_160_" class="st3" d="M199,438.4l-33.4,0l-13.8-11.2c0,0,2.6-1.5,4.6-3.3s4.7-8,4.7-8l5.8,1.8l3.2,11.2
							c0,0,10.5-2,19.8,3C196.2,435.3,199,438.4,199,438.4z"/>
					</g>
					<g id="XMLID_161_">
						<g id="XMLID_162_">
							<polygon id="XMLID_163_" class="st2" points="124.5,427.4 144,424.2 144.5,332.5 111.3,338.1 							"/>
						</g>
						<g id="XMLID_164_">
							<polygon id="XMLID_165_" class="st7" points="110.2,330.5 111.3,338.1 144.5,332.5 144.5,326.9 							"/>
						</g>
						<g id="XMLID_166_">
							<polygon id="XMLID_167_" class="st7" points="202.2,318.6 167.2,323.9 166.7,328.7 201,322.8 							"/>
						</g>
						<g id="XMLID_168_">
							<polygon id="XMLID_169_" class="st2" points="166.7,328.7 156.5,418.2 171.7,422.4 201,322.8 							"/>
						</g>
					</g>
				</g>
			</g>
			<g id="XMLID_170_">
				<g id="XMLID_171_">
					<g id="XMLID_172_">
						<path id="XMLID_173_" class="st2" d="M238.2,296.1c1.2-0.5,2-1.5,2.5-2.6c0.5-1.1,0.8-2.3,1.1-3.5c0.6-2.4,1-4.8,1.1-7.3
							c0.3-4.9-0.3-9.8-2.2-14.3c-0.5-1.1-1-2.2-1.7-3.2c-0.3-0.5-0.7-1-1-1.5c-0.3-0.5-0.7-0.9-1.1-1.3c-0.4-0.3-0.8-0.5-1.2-0.5
							c-0.4,0-0.7,0.1-1,0.5c-0.6,0.7-1,1.8-1,2.9c0,2.2,0.7,4.5,1.9,6.5c1.2,2,2.9,3.7,4.9,4.9l0.4,0.2l0.2,0.1l0.2,0.1
							c0.3,0.1,0.6,0.3,0.8,0.4c0.5,0.2,1.1,0.5,1.6,0.6c1.1,0.4,2.3,0.6,3.4,0.7c2.3,0.3,4.7,0,7-0.6c0.6-0.2,1.1-0.3,1.5-0.6
							c0.2-0.1,0.4-0.3,0.5-0.3l0.1-0.2c0,0,0-0.1,0.1-0.1c0.1-0.1,0.1-0.2,0.1-0.3c0.3-0.8,0.3-1.9,0.1-3.1c-0.3-2.3-1-4.6-2-6.8
							c-1-2.2-2.2-4.3-3.7-6.2c-1.4-1.9-3.1-3.7-4.8-5.4c-1.7-1.7-3.6-3.3-5.5-4.8c-1.9-1.6-3.9-3.1-5.8-4.6l1-0.2
							c-0.5,0.7-0.4,1.7,0.1,2.5c0.5,0.9,1.2,1.7,2,2.4c0.4,0.3,0.9,0.6,1.3,1c0.5,0.3,0.9,0.6,1.4,0.9c1,0.6,1.9,1.1,2.9,1.6
							c4,2,8.3,3.4,12.8,4l-0.2,0.1c0.7-1.8,1-3.7,1-5.6c0.1,1.9-0.1,3.9-0.7,5.7c0,0.1-0.1,0.1-0.2,0.1l0,0
							c-4.5-0.4-9-1.6-13.2-3.4c-1-0.5-2.1-1-3.1-1.6c-0.5-0.3-1-0.6-1.5-0.9l-0.7-0.5c-0.3-0.2-0.5-0.3-0.7-0.5
							c-0.9-0.7-1.8-1.6-2.4-2.7c-0.3-0.6-0.5-1.2-0.6-1.9c-0.1-0.7,0.1-1.4,0.5-2c0.2-0.3,0.6-0.4,1-0.2l0,0l0,0
							c4,2.9,8.1,5.8,11.7,9.3c3.6,3.4,6.9,7.5,9,12.1c1.1,2.3,1.9,4.8,2.2,7.3c0.2,1.2,0.4,2.6-0.2,4.2c-0.1,0.2-0.2,0.4-0.3,0.6
							l-0.2,0.3l-0.2,0.2c-0.4,0.4-0.7,0.6-1,0.8c-0.7,0.4-1.3,0.6-1.9,0.7c-2.5,0.7-5.1,0.9-7.7,0.6c-1.3-0.2-2.6-0.4-3.8-0.9
							c-0.6-0.2-1.2-0.5-1.8-0.7c-0.3-0.1-0.6-0.3-0.8-0.4l-0.2-0.1c-0.1-0.1-0.2-0.1-0.2-0.1l-0.4-0.3c-2.2-1.4-4.1-3.3-5.4-5.6
							c-1.3-2.2-2.2-4.8-2.1-7.5c0.1-1.4,0.5-2.8,1.6-3.9c0.3-0.3,0.6-0.5,1-0.7c0.2-0.1,0.4-0.1,0.6-0.2c0.2,0,0.5-0.1,0.6,0
							c0.8,0,1.6,0.5,2.1,0.9c0.5,0.5,0.9,1,1.3,1.5c0.3,0.5,0.8,1,1,1.6c0.7,1.1,1.2,2.2,1.7,3.4c1.9,4.7,2.3,9.9,1.8,14.8
							c-0.3,2.5-0.8,4.9-1.5,7.3c-0.4,1.2-0.7,2.4-1.3,3.5C240.2,294.7,239.4,295.7,238.2,296.1z"/>
					</g>
					<g id="XMLID_174_">
						<path id="XMLID_175_" class="st3" d="M36.7,166.9c-3.7-1.1-7.6-1.6-11.4-1.5c-1,0-1.9,0.1-2.8,0.3c-0.9,0.2-1.8,0.6-2.4,1.1
							c-0.7,0.6-1.1,1.3-1,2.1c0,0.8,0.5,1.5,1.2,2.1c0.7,0.6,1.5,1,2.3,1.4l2.6,1.2l5.3,2.4l5.3,2.4c1.7,0.8,3.5,1.3,5.1,1
							l-0.4,1.5c-3.9-3.4-8.6-6-13.6-7.5c-1.2-0.4-2.5-0.7-3.8-0.9c-1.3-0.2-2.6-0.4-3.8-0.4c-1.3,0-2.5,0.1-3.5,0.5
							c-1,0.4-1.9,1.2-2.2,2.2c-0.1,0.2-0.1,0.5-0.2,0.7l0,0.4c0,0.1,0,0.2,0,0.3c0.1,0.5,0.3,1,0.6,1.4c0.6,0.9,1.6,1.7,2.7,2.3
							c1.1,0.6,2.3,1.2,3.5,1.8c1.2,0.6,2.4,1.2,3.6,1.7c4.8,2.2,9.8,4.1,14.9,5.8l-0.7,1.3c-2-1.7-4.4-2.9-7-3.8
							c-1.3-0.5-2.6-0.9-3.9-1.2c-1.3-0.4-2.6-0.7-3.9-1c-1.3-0.3-2.7-0.4-4-0.3c-0.7,0.1-1.3,0.2-1.9,0.4c-0.6,0.2-1.2,0.5-1.7,1
							c-0.9,0.9-1.5,2.2-1.6,3.5c0,0.7,0,1.3,0.3,2c0.3,0.6,0.8,1.1,1.4,1.4c-0.6-0.3-1.2-0.8-1.5-1.4c-0.3-0.6-0.5-1.3-0.5-2
							c0-1.4,0.6-2.8,1.6-3.8c0.5-0.5,1.1-0.9,1.8-1.2c0.7-0.3,1.3-0.5,2-0.6c1.4-0.2,2.8-0.1,4.2,0.1c1.4,0.2,2.7,0.5,4.1,0.8
							c1.3,0.3,2.7,0.7,4,1.1c2.6,0.9,5.2,2.1,7.5,3.8c0.3,0.2,0.4,0.7,0.1,1c-0.2,0.2-0.5,0.3-0.8,0.3l0,0
							c-5.2-1.5-10.2-3.4-15.1-5.5c-1.2-0.5-2.5-1.1-3.7-1.7c-1.2-0.6-2.4-1.1-3.7-1.9c-1.2-0.7-2.4-1.6-3.3-2.9
							c-0.5-0.6-0.8-1.4-1-2.2c0-0.2-0.1-0.5-0.1-0.7l0-0.3l0-0.1l0-0.1l0-0.1l0,0c0-0.4,0.1-0.8,0.3-1.2c0.6-1.6,1.9-2.7,3.3-3.3
							c1.4-0.6,2.9-0.7,4.3-0.7c1.4,0.1,2.8,0.3,4.1,0.5c1.3,0.3,2.7,0.6,4,1c5.3,1.6,10.2,4.3,14.2,8l0,0c0.4,0.3,0.4,0.9,0.1,1.2
							c-0.1,0.2-0.3,0.2-0.5,0.3c-1.1,0.2-2.2,0.1-3.2-0.2c-1-0.3-2-0.6-2.9-1.1l-5.3-2.5l-5.2-2.5l-2.6-1.3c-0.9-0.5-1.8-1-2.6-1.7
							c-0.8-0.7-1.5-1.7-1.5-2.9c0-0.6,0.1-1.2,0.4-1.7c0.3-0.5,0.7-0.9,1.1-1.2c0.9-0.6,1.9-1,2.8-1.2c1-0.2,2-0.2,3-0.2
							c2,0,3.9,0.2,5.8,0.6C33,165.7,34.9,166.2,36.7,166.9z"/>
					</g>
				</g>
				<g id="XMLID_176_">
					<path id="XMLID_177_" class="st6" d="M122,86.7c0.8-0.3,1.4-0.9,1.9-1.5l0.7-1l0.6-1c0.4-0.7,0.7-1.4,1-2.2
						c0.3-0.8,0.5-1.5,0.6-2.3c0.2-0.8,0.3-1.6,0.3-2.4c0.1-0.8,0.1-1.6,0-2.4c-0.1-1.6-0.3-3.2-0.7-4.7c-0.2-0.8-0.4-1.5-0.7-2.3
						c-0.3-0.7-0.6-1.5-0.9-2.2c-0.7-1.5-1.4-2.9-2.3-4.2c-1.7-2.7-3.6-5.3-5.7-7.8l0.3,0.2c-0.1,0-0.3,0-0.5,0.1
						c-0.2,0.1-0.4,0.3-0.4,0.5c-0.2,0.4-0.1,1.1,0.1,1.8c0.2,0.6,0.5,1.5,0.8,2.2c0.3,0.7,0.6,1.4,1,2c0.8,1.3,1.6,2.6,2.6,3.7
						c1,1.1,2.1,2.2,3.4,3.1c1.2,0.9,2.6,1.7,3.9,2.3c1.4,0.6,2.8,1.1,4.3,1.4c1.5,0.3,3.1,0.5,4.1,0c1-0.4,1.4-1.7,1.4-3.3
						c0.1-1.4-0.2-2.9-0.7-4.3c-0.5-1.4-1.2-2.8-1.9-4.2l-4.6-8.3l-4.6-8.3c-0.8-1.4-1.6-2.7-2.5-3.9c-0.9-1.2-2-2.2-3.3-2.9l1-0.4
						c-0.3,0.7-0.6,1.3-0.7,2c-0.2,0.7-0.2,1.4-0.3,2.2c0,0.7,0.1,1.5,0.2,2.2c0.1,0.7,0.3,1.5,0.6,2.2c0.2,0.7,0.6,1.4,0.9,2
						c0.4,0.7,0.8,1.3,1.2,1.9c0.5,0.6,1,1.1,1.5,1.6c0.6,0.5,1.1,1,1.8,1.4c2.5,1.8,5.4,2.9,8.4,3.6c0.8,0.2,1.5,0.3,2.3,0.5
						c0.8,0.1,1.5,0.3,2.3,0.3c0.4,0,0.8-0.1,1-0.3c0.3-0.2,0.5-0.5,0.7-0.9c0.2-0.3,0.4-0.7,0.7-1c0.1-0.1,0.3-0.3,0.5-0.4
						c0.2-0.1,0.4,0,0.5,0.2c-0.1-0.1-0.3-0.2-0.5-0.1c-0.2,0.1-0.3,0.2-0.4,0.4c-0.2,0.3-0.4,0.7-0.6,1c-0.2,0.3-0.4,0.7-0.7,1
						c-0.3,0.3-0.8,0.4-1.2,0.4c-0.8,0-1.6-0.1-2.4-0.2c-0.8-0.1-1.6-0.2-2.3-0.4c-3.1-0.6-6.2-1.6-8.9-3.3
						c-0.7-0.4-1.4-0.9-1.9-1.4c-0.6-0.5-1.2-1.1-1.7-1.7c-0.5-0.6-1-1.3-1.4-2c-0.4-0.7-0.8-1.4-1.1-2.2c-0.3-0.8-0.5-1.5-0.7-2.3
						c-0.2-0.8-0.3-1.6-0.3-2.5c0-0.8,0-1.7,0.2-2.5c0.1-0.8,0.4-1.6,0.8-2.4c0.2-0.4,0.6-0.5,1-0.4l0,0l0,0
						c1.6,0.8,2.9,1.9,3.9,3.2c1.1,1.3,1.9,2.7,2.7,4.1l4.7,8.3l4.7,8.3c0.8,1.4,1.5,2.9,2.1,4.5c0.5,1.6,0.9,3.3,0.9,5.1
						c0,0.8-0.1,1.7-0.5,2.6c-0.3,0.9-1.1,1.8-2,2.3c-0.9,0.4-1.9,0.5-2.8,0.5c-0.9,0-1.7-0.2-2.5-0.3c-1.6-0.4-3.2-0.9-4.7-1.6
						c-1.5-0.7-2.9-1.6-4.3-2.6c-1.3-1-2.5-2.1-3.6-3.4c-1.1-1.3-2-2.6-2.8-4.1c-0.4-0.7-0.7-1.5-1.1-2.3c-0.2-0.4-0.3-0.8-0.4-1.2
						c-0.1-0.4-0.2-0.7-0.4-1.2c-0.2-0.8-0.4-1.8,0.1-2.9c0.2-0.5,0.6-0.9,1.1-1.2c0.5-0.3,1.2-0.4,1.8-0.1l0,0
						c0.1,0.1,0.2,0.1,0.3,0.2c2,2.6,3.9,5.3,5.5,8.1c0.8,1.4,1.6,2.9,2.2,4.4c0.3,0.8,0.6,1.5,0.9,2.3c0.2,0.8,0.5,1.6,0.6,2.4
						c0.3,1.6,0.5,3.3,0.5,4.9c0,0.8,0,1.7-0.2,2.5c-0.1,0.8-0.2,1.6-0.5,2.4c-0.2,0.8-0.5,1.6-0.8,2.3c-0.3,0.8-0.7,1.5-1.1,2.2
						l-0.7,1l-0.8,1C123.4,85.9,122.8,86.5,122,86.7z"/>
				</g>
			</g>
		</g>
	</g>
	<g id="XMLID_224_">
		<g id="XMLID_358_">
			<g id="XMLID_443_">
				<path id="XMLID_227_" class="st11" d="M267.4,73.1c-1,1.6-1.4,3-2.2,3.4c-2.7,1.2-2.9-1.3-3.2-2.8c-0.2-1,0.6-2.2,1-3.3
					C264.2,71.2,265.4,71.9,267.4,73.1z"/>
			</g>
			<g id="XMLID_442_">
				<path id="XMLID_4_" class="st11" d="M121.5-10.1c0.1,0.2-0.6,0.9-0.9,1.3"/>
			</g>
			<g id="XMLID_441_">
				<path id="XMLID_229_" class="st11" d="M139.9,107.6c1.5-1.7,2.8-3.2,4.2-4.6c0.2-0.1,2.1,1.1,2.1,1.4c-0.5,1.8-1.3,3.4-2,5.1
					C143,109,141.7,108.4,139.9,107.6z"/>
			</g>
			<g id="XMLID_437_">
				<path id="XMLID_233_" class="st11" d="M224.5,164.2c-0.5,1.8-0.8,2.9-1.2,3.9c-1.4-1-2.9-1.8-4.1-3c-0.3-0.3,0.5-1.7,0.8-2.5
					C221.4,163.1,222.7,163.6,224.5,164.2z"/>
			</g>
			<g id="XMLID_436_">
				<path id="XMLID_234_" class="st11" d="M219.1,139.7c0.9,0.3,2.2,0.5,3.3,1.1c0.6,0.3,1,1.2,1.5,1.8c-0.6,0.3-1.2,1-1.7,0.9
					c-1.3-0.3-2.6-0.8-3.8-1.3c-0.3-0.1-0.4-0.9-0.5-1.4C217.9,140.6,218.3,140.4,219.1,139.7z"/>
			</g>
			<g id="XMLID_434_">
				<path id="XMLID_236_" class="st11" d="M235.5,155.2c0.1-1.2,0.3-2.2,0.4-3.2c1.3,0.8,3.1,1.3,3.9,2.5c0.4,0.6-1.1,2.4-1.7,3.6
					C237.3,157.2,236.4,156.2,235.5,155.2z"/>
			</g>
			<g id="XMLID_431_">
				<path id="XMLID_239_" class="st11" d="M217.5,66.8c0.1-0.5,0.3-1.5,0.4-1.5c1.2,0.1,2.5,0,3.5,0.6c0.4,0.2,0,1.8-0.1,2.8
					C220.2,68.1,218.9,67.5,217.5,66.8z"/>
			</g>
			<g id="XMLID_429_">
				<path id="XMLID_241_" class="st11" d="M244.3,182.4c-0.3-0.3-0.8-1-1.4-1.7c1.2-0.7,2.3-1.5,3.5-2c0.6-0.2,1.5,0.4,2.3,0.6
					C247.6,180.1,246.5,180.9,244.3,182.4z"/>
			</g>
			<g id="XMLID_427_">
				<path id="XMLID_243_" class="st11" d="M180.6,31.6c-0.9-0.6-2-1-2.8-1.8c-0.3-0.3,0-1.3,0-1.9c1.5,0.5,3,1,4.5,1.5
					C181.8,29.9,181.4,30.5,180.6,31.6z"/>
			</g>
			<g id="XMLID_426_">
				<path id="XMLID_244_" class="st11" d="M288.3,136.5c-1-0.2-1.6-0.4-2.2-0.6c0.7-0.7,1.4-1.5,2.2-1.9c0.5-0.2,1.3,0.3,1.9,0.4
					C289.5,135.2,288.9,135.9,288.3,136.5z"/>
			</g>
			<g id="XMLID_425_">
				<path id="XMLID_245_" class="st11" d="M223.5,126.4c0.2-1,0.4-1.6,0.6-2.2c0.6,0.7,1.5,1.4,1.9,2.2c0.2,0.5-0.3,1.3-0.4,1.9
					C224.8,127.7,224.1,127,223.5,126.4z"/>
			</g>
			<g id="XMLID_423_">
				<path id="XMLID_247_" class="st11" d="M290,49.1c-0.9-0.2-1.9-0.2-1.9-0.5c-0.3-0.9-0.2-2-0.3-2.9c0.5,0.1,1.5,0,1.6,0.3
					C289.7,46.9,289.8,47.9,290,49.1z"/>
			</g>
			<g id="XMLID_422_">
				<path id="XMLID_248_" class="st11" d="M230.2,130.3c-0.1,1.8-0.1,2.5-0.2,3.1c-0.7-0.4-1.5-0.7-1.9-1.3c-0.3-0.4,0-1.3,0-1.9
					C229,130.2,229.8,130.3,230.2,130.3z"/>
			</g>
			<g id="XMLID_420_">
				<path id="XMLID_250_" class="st11" d="M250.6,43.3c0.3-0.3,0.9-0.8,1.5-1.4c0.4,0.5,1.2,1,1.2,1.5c0.1,0.7-0.4,1.5-0.7,2.3
					C252.2,45.1,251.8,44.6,250.6,43.3z"/>
			</g>
			<g id="XMLID_419_">
				<path id="XMLID_251_" class="st11" d="M258.2,86.6c-0.3-0.3-0.8-0.9-1.4-1.5c0.5-0.4,1-1.2,1.5-1.2c0.7-0.1,1.5,0.4,2.3,0.7
					C260,84.9,259.6,85.4,258.2,86.6z"/>
			</g>
			<g id="XMLID_418_">
				<path id="XMLID_252_" class="st11" d="M240.1,31.3c-0.1,1.8-0.1,2.5-0.2,3.1c-0.7-0.4-1.5-0.7-1.9-1.3c-0.3-0.4,0-1.3,0-1.9
					C238.9,31.2,239.7,31.3,240.1,31.3z"/>
			</g>
			<g id="XMLID_417_">
				<path id="XMLID_253_" class="st11" d="M209.7,68.9c0.3-0.3,0.9-0.8,1.5-1.4c0.4,0.5,1.2,1,1.2,1.5c0.1,0.7-0.4,1.5-0.7,2.3
					C211.4,70.7,210.9,70.3,209.7,68.9z"/>
			</g>
			<g id="XMLID_414_">
				<path id="XMLID_256_" class="st11" d="M159.4,69.3c0.8,0.1,1.8,0.2,2.8,0.4c-0.4,0.5-0.7,1.4-1.2,1.5c-0.9,0.2-1.9,0-2.9-0.1
					C158.4,70.6,158.8,70.1,159.4,69.3z"/>
			</g>
			<g id="XMLID_411_">
				<path id="XMLID_259_" class="st11" d="M290.6,60.3c-0.4-0.2-0.7-0.3-1-0.5c0.4-0.4,0.7-0.9,1.2-1.1c0.2-0.1,0.6,0.3,0.9,0.4
					C291.4,59.5,291,59.9,290.6,60.3z"/>
			</g>
			<g id="XMLID_409_">
				<path id="XMLID_261_" class="st11" d="M287.9,78c-0.4-0.4-0.9-0.7-1.1-1.2c-0.1-0.2,0.3-0.6,0.4-0.9c0.4,0.4,0.9,0.7,1.1,1.2
					C288.4,77.3,288,77.7,287.9,78z"/>
			</g>
			<g id="XMLID_406_">
				<path id="XMLID_264_" class="st11" d="M285.6,87.3c0.1-0.5,0.2-1.1,0.3-1.6c0.3,0.2,0.9,0.3,0.9,0.5c0.1,0.5-0.1,1.1-0.2,1.6
					C286.3,87.6,286,87.5,285.6,87.3z"/>
			</g>
			<g id="XMLID_404_">
				<path id="XMLID_266_" class="st11" d="M241.2,146.2c-0.4-0.4-0.9-0.7-1.1-1.2c-0.1-0.2,0.3-0.6,0.4-0.9c0.4,0.4,0.9,0.7,1.1,1.2
					C241.7,145.5,241.3,145.9,241.2,146.2z"/>
			</g>
			<g id="XMLID_403_">
				<path id="XMLID_267_" class="st11" d="M244.8,132.4c0.1-0.5,0.2-1.1,0.3-1.6c0.3,0.2,0.9,0.3,0.9,0.5c0.1,0.5-0.1,1.1-0.2,1.6
					C245.5,132.7,245.2,132.6,244.8,132.4z"/>
			</g>
			<g id="XMLID_401_">
				<path id="XMLID_786_" class="st11" d="M289.1,28.5"/>
			</g>
			<g id="XMLID_399_">
				<path id="XMLID_272_" class="st11" d="M287.5,155.6c0.4,0.2,0.7,0.3,1,0.5c-0.4,0.4-0.7,0.9-1.2,1.1c-0.2,0.1-0.6-0.3-0.9-0.4
					C286.8,156.5,287.1,156,287.5,155.6z"/>
			</g>
			<g id="XMLID_397_">
				<path id="XMLID_274_" class="st11" d="M290.2,174.3c0.3-0.5,0.6-0.9,0.9-1.4c0.3,0.4,0.9,1,0.8,1.1c-0.3,0.5-0.9,0.8-1.4,1.2
					C290.4,175,290.3,174.7,290.2,174.3z"/>
			</g>
			<g id="XMLID_396_">
				<path id="XMLID_275_" class="st11" d="M290,177.6c-0.3-0.2-0.9-0.3-0.9-0.4c0.1-0.5,0.3-1.1,0.5-1.6c0.4,0.2,0.8,0.4,1.3,0.6
					C290.6,176.7,290.3,177.1,290,177.6z"/>
			</g>
			<g id="XMLID_395_">
				<path id="XMLID_276_" class="st11" d="M265.9,127.5c-0.5-0.1-1.1-0.2-1.6-0.3c0.2-0.3,0.3-0.9,0.5-0.9c0.5-0.1,1.1,0.1,1.6,0.2
					C266.2,126.8,266.1,127.1,265.9,127.5z"/>
			</g>
			<g id="XMLID_394_">
				<path id="XMLID_179_" class="st11" d="M225.1,27.9"/>
			</g>
			<g id="XMLID_389_">
				<path id="XMLID_282_" class="st11" d="M224.1,73.9c-0.2,0.4-0.3,0.7-0.5,1c-0.4-0.4-0.9-0.7-1.1-1.2c-0.1-0.2,0.3-0.6,0.4-0.9
					C223.3,73.2,223.7,73.6,224.1,73.9z"/>
			</g>
			<g id="XMLID_385_">
				<path id="XMLID_286_" class="st11" d="M220.4,108c0.1-0.5,0.2-1.1,0.3-1.6c0.3,0.1,0.9,0.3,0.9,0.5c0.1,0.5-0.1,1.1-0.2,1.6
					C221.1,108.3,220.8,108.1,220.4,108z"/>
			</g>
			<g id="XMLID_382_">
				<path id="XMLID_289_" class="st11" d="M214,104.9c-0.1,0.5-0.2,1.1-0.3,1.6c-0.3-0.2-0.9-0.3-0.9-0.5c-0.1-0.5,0.1-1.1,0.2-1.6
					C213.3,104.5,213.6,104.7,214,104.9z"/>
			</g>
			<g id="XMLID_381_">
				<path id="XMLID_290_" class="st11" d="M234.5,171.3c-0.5-0.1-1.1-0.2-1.6-0.3c0.1-0.3,0.3-0.9,0.5-0.9c0.5-0.1,1.1,0.1,1.6,0.2
					C234.9,170.6,234.7,170.9,234.5,171.3z"/>
			</g>
			<g id="XMLID_376_">
				<path id="XMLID_295_" class="st11" d="M227.4,190.9c0.4,0.2,0.7,0.3,1,0.5c-0.4,0.4-0.7,0.9-1.2,1.1c-0.2,0.1-0.6-0.3-0.9-0.4
					C226.7,191.7,227,191.2,227.4,190.9z"/>
			</g>
			<g id="XMLID_374_">
				<path id="XMLID_297_" class="st11" d="M221.8,152.6c0.5,0.1,1.1,0.2,1.6,0.3c-0.1,0.3-0.3,0.9-0.5,0.9c-0.5,0.1-1.1-0.1-1.6-0.2
					C221.5,153.3,221.6,153,221.8,152.6z"/>
			</g>
			<g id="XMLID_373_">
				<path id="XMLID_298_" class="st11" d="M200.7,143.5c-0.4-0.2-0.7-0.3-1-0.5c0.4-0.4,0.7-0.9,1.2-1.1c0.2-0.1,0.6,0.3,0.9,0.4
					C201.4,142.7,201,143.1,200.7,143.5z"/>
			</g>
			<g id="XMLID_371_">
				<path id="XMLID_300_" class="st11" d="M209.1,173.9c0.5,0.1,1.1,0.2,1.6,0.3c-0.1,0.3-0.3,0.9-0.5,0.9c-0.5,0.1-1.1-0.1-1.6-0.2
					C208.7,174.6,208.9,174.3,209.1,173.9z"/>
			</g>
			<g id="XMLID_370_">
				<path id="XMLID_301_" class="st11" d="M213.1,194.5c0.3-0.5,0.6-0.9,0.9-1.4c0.3,0.4,0.9,1,0.8,1.1c-0.3,0.5-0.9,0.8-1.4,1.2
					C213.4,195.1,213.2,194.8,213.1,194.5z"/>
			</g>
			<g id="XMLID_369_">
				<path id="XMLID_302_" class="st11" d="M212.9,197.8c-0.3-0.2-0.9-0.3-0.9-0.4c0.1-0.5,0.3-1.1,0.5-1.6c0.4,0.2,0.8,0.4,1.3,0.6
					C213.5,196.8,213.2,197.3,212.9,197.8z"/>
			</g>
			<g id="XMLID_368_">
				<path id="XMLID_303_" class="st11" d="M219.4,185.5c-0.4-0.2-0.7-0.3-1-0.5c0.4-0.4,0.7-0.9,1.2-1.1c0.2-0.1,0.6,0.3,0.9,0.4
					C220.1,184.7,219.7,185.1,219.4,185.5z"/>
			</g>
			<g id="XMLID_367_">
				<path id="XMLID_304_" class="st11" d="M160.3,99.9c0.4,0.2,0.7,0.3,1,0.5c-0.4,0.4-0.7,0.9-1.2,1.1c-0.2,0.1-0.6-0.3-0.9-0.4
					C159.6,100.7,159.9,100.3,160.3,99.9z"/>
			</g>
			<g id="XMLID_364_">
				<path id="XMLID_307_" class="st11" d="M160.6,70.9c-0.4-0.4-0.9-0.7-1.1-1.2c-0.1-0.2,0.3-0.6,0.4-0.9c0.4,0.4,0.9,0.7,1.1,1.2
					C161.1,70.2,160.8,70.6,160.6,70.9z"/>
			</g>
			<g id="XMLID_363_">
				<path id="XMLID_308_" class="st11" d="M142.8,92c0.5,0.1,1.1,0.2,1.6,0.3c-0.2,0.3-0.3,0.9-0.5,0.9c-0.5,0.1-1.1-0.1-1.6-0.2
					C142.5,92.7,142.6,92.4,142.8,92z"/>
			</g>
			<g id="XMLID_362_">
				<path id="XMLID_309_" class="st11" d="M151.3,117.6c0.2-0.4,0.3-0.7,0.5-1c0.4,0.4,0.9,0.7,1.1,1.2c0.1,0.2-0.3,0.6-0.4,0.9
					C152.1,118.3,151.7,117.9,151.3,117.6z"/>
			</g>
			<g id="XMLID_359_">
				<path id="XMLID_312_" class="st11" d="M158.5,142.3c-0.4-0.4-0.9-0.7-1.1-1.2c-0.1-0.2,0.3-0.6,0.4-0.9c0.4,0.4,0.9,0.7,1.1,1.2
					C159,141.5,158.6,142,158.5,142.3z"/>
			</g>
		</g>
		<g id="XMLID_225_">
			<g id="XMLID_356_">
				<path id="XMLID_313_" class="st11" d="M181.4,211.8c-1,1.4-1.4,2.7-2.2,3.1c-2.5,1-2.7-1.3-2.9-2.7c-0.1-0.9,0.7-2,1.1-3
					C178.5,209.8,179.7,210.6,181.4,211.8z"/>
			</g>
			<g id="XMLID_355_">
				<path id="XMLID_314_" class="st11" d="M44.6,125.3c0.1-1.8,0.1-2.4,0.1-3c0.8,0.2,1.9,0.1,2.3,0.7c1.1,1.4,2,3.1,2.9,4.7
					c0.1,0.2-0.6,0.8-0.9,1.2C47.3,127.6,45.7,126.2,44.6,125.3z"/>
			</g>
			<g id="XMLID_354_">
				<path id="XMLID_315_" class="st11" d="M61.6,237.8c1.5-1.5,2.7-2.9,4.1-4.1c0.2-0.1,1.9,1.1,1.8,1.4c-0.5,1.6-1.4,3.1-2.1,4.6
					C64.3,239.2,63.2,238.6,61.6,237.8z"/>
			</g>
			<g id="XMLID_353_">
				<path id="XMLID_316_" class="st11" d="M119.6,136.1c1.4-1.2,1.8-2,2.5-2.1c1.4-0.3,3.1-1.9,4.2,0.3c0.4,0.7-0.1,1.8-0.2,2.7
					C124.3,136.8,122.5,136.5,119.6,136.1z"/>
			</g>
			<g id="XMLID_352_">
				<path id="XMLID_317_" class="st11" d="M125.4,127.8c-0.5-0.8-1.6-1.6-1.5-2.3c0.2-1.8,1-3.6,1.6-5.3c0.5,0.4,1.3,0.8,1.3,1.2
					c0.3,1.6,0.3,3.2,0.4,4.9C126.5,126.8,125.9,127.3,125.4,127.8z"/>
			</g>
			<g id="XMLID_351_">
				<path id="XMLID_318_" class="st11" d="M126.8,78.3c0,0-0.4-0.1-0.5-0.3c-0.3-0.8-1-1.9-0.8-2.5c0.6-1.2,1.6-2.3,2.7-3
					c0.4-0.3,1.7,0.8,2.5,1.3c0.1,0.1,0.2,0.6,0.2,0.6C129.6,75.8,128.2,77,126.8,78.3z"/>
			</g>
			<g id="XMLID_350_">
				<path id="XMLID_319_" class="st11" d="M137.4,294.3c-0.6,1.7-0.9,2.6-1.3,3.6c-1.2-1-2.6-1.8-3.7-3c-0.3-0.3,0.5-1.5,0.8-2.3
					C134.5,293.2,135.7,293.6,137.4,294.3z"/>
			</g>
			<g id="XMLID_349_">
				<path id="XMLID_320_" class="st11" d="M133.5,271.3c0.8,0.3,2,0.6,3,1.1c0.6,0.3,0.9,1.1,1.3,1.7c-0.6,0.3-1.2,0.9-1.6,0.8
					c-1.2-0.3-2.4-0.8-3.5-1.4c-0.3-0.2-0.4-0.8-0.4-1.3C132.3,272.1,132.8,271.9,133.5,271.3z"/>
			</g>
			<g id="XMLID_348_">
				<path id="XMLID_321_" class="st11" d="M246.8,174.6c-1.7-1-3-1.5-3-1.8c0.1-1,0.6-2.1,1.2-2.9c0.2-0.2,2,0.4,2.2,0.9
					C247.4,171.7,247,172.8,246.8,174.6z"/>
			</g>
			<g id="XMLID_347_">
				<path id="XMLID_322_" class="st11" d="M148,286.4c0.2-1.1,0.3-2,0.5-2.9c1.2,0.8,2.8,1.4,3.5,2.5c0.3,0.6-1.1,2.2-1.7,3.3
					C149.5,288.4,148.8,287.4,148,286.4z"/>
			</g>
			<g id="XMLID_346_">
				<path id="XMLID_323_" class="st11" d="M136.1,127.2c-0.3-0.1-1.2-0.2-1.2-0.3c0.1-1.1,0.1-2.4,0.6-3.3c0.2-0.3,1.7,0.1,2.6,0.2
					C137.5,124.9,136.8,126,136.1,127.2z"/>
			</g>
			<g id="XMLID_345_">
				<path id="XMLID_324_" class="st11" d="M206.6,299.7c-0.6,0.6-1.1,1.5-1.4,1.5c-1-0.2-2.1-0.7-2.9-1.3c-0.2-0.2,0.1-1.1,0.1-1.7
					C203.8,298.7,205.2,299.2,206.6,299.7z"/>
			</g>
			<g id="XMLID_344_">
				<path id="XMLID_325_" class="st11" d="M135.5,203.6c0.2-0.5,0.4-1.4,0.5-1.4c1.1,0.1,2.3,0.1,3.2,0.7c0.3,0.2-0.1,1.7-0.2,2.6
					C137.8,204.9,136.7,204.3,135.5,203.6z"/>
			</g>
			<g id="XMLID_343_">
				<path id="XMLID_326_" class="st11" d="M165.9,91.1c-1.2-0.7-2.3-1.3-3.4-1.9c0.4-0.6,1.1-1.8,1.3-1.7c1,0.4,1.9,1.1,2.6,1.8
					C166.6,89.5,166.1,90.4,165.9,91.1z"/>
			</g>
			<g id="XMLID_342_">
				<path id="XMLID_327_" class="st11" d="M154.9,312.1c-0.2-0.3-0.7-1-1.2-1.6c1.1-0.6,2.2-1.3,3.4-1.7c0.6-0.2,1.4,0.4,2.1,0.7
					C158.1,310.1,157,310.8,154.9,312.1z"/>
			</g>
			<g id="XMLID_341_">
				<path id="XMLID_328_" class="st11" d="M268.3,276.2c-0.6,0.8-1,1.8-1.8,2.5c-0.3,0.3-1.2,0-1.8-0.1c0.5-1.4,1-2.7,1.6-4.1
					C266.8,275,267.3,275.3,268.3,276.2z"/>
			</g>
			<g id="XMLID_340_">
				<path id="XMLID_329_" class="st11" d="M102.8,169.2c-0.8-0.6-1.8-1-2.5-1.8c-0.3-0.3,0-1.2,0.1-1.8c1.4,0.5,2.7,1,4.1,1.6
					C104.1,167.7,103.7,168.2,102.8,169.2z"/>
			</g>
			<g id="XMLID_339_">
				<path id="XMLID_330_" class="st11" d="M197.9,271.5c-0.9-0.3-1.5-0.4-2.1-0.6c0.7-0.6,1.4-1.3,2.2-1.6c0.4-0.2,1.2,0.3,1.8,0.5
					C199.1,270.4,198.4,271,197.9,271.5z"/>
			</g>
			<g id="XMLID_338_">
				<path id="XMLID_331_" class="st11" d="M138.2,259.2c0.3-0.9,0.4-1.5,0.6-2.1c0.6,0.7,1.3,1.4,1.6,2.2c0.2,0.4-0.3,1.2-0.5,1.8
					C139.4,260.4,138.7,259.8,138.2,259.2z"/>
			</g>
			<g id="XMLID_337_">
				<path id="XMLID_332_" class="st11" d="M204.3,143.9c-0.8-0.1-1.6-0.3-2.5-0.5c0.4-0.5,0.7-1.3,1.2-1.4c0.9-0.2,1.8,0.1,2.7,0.2
					C205.3,142.7,204.9,143.2,204.3,143.9z"/>
			</g>
			<g id="XMLID_336_">
				<path id="XMLID_333_" class="st11" d="M203.6,190.5c-0.9-0.2-1.7-0.3-1.8-0.5c-0.2-0.9-0.1-1.8-0.2-2.8c0.5,0.1,1.4,0.1,1.4,0.4
					C203.4,188.5,203.4,189.4,203.6,190.5z"/>
			</g>
			<g id="XMLID_335_">
				<path id="XMLID_334_" class="st11" d="M144.2,263.1c-0.2,1.7-0.2,2.3-0.3,2.9c-0.6-0.4-1.4-0.8-1.7-1.3
					c-0.3-0.4,0.1-1.2,0.1-1.8C143.1,262.9,143.9,263,144.2,263.1z"/>
			</g>
			<g id="XMLID_226_">
				<path id="XMLID_490_" class="st11" d="M239.5,178.9c-0.2,1.7-0.2,2.3-0.3,2.9c-0.6-0.4-1.4-0.8-1.7-1.3
					c-0.3-0.4,0.1-1.2,0.1-1.8C238.3,178.8,239.1,178.9,239.5,178.9z"/>
			</g>
			<g id="XMLID_491_">
				<path id="XMLID_492_" class="st11" d="M167.2,183.3c0.3-0.2,0.9-0.7,1.5-1.2c0.4,0.5,1.1,0.9,1.1,1.4c0,0.7-0.5,1.4-0.7,2.1
					C168.7,185.1,168.3,184.6,167.2,183.3z"/>
			</g>
			<g id="XMLID_493_">
				<path id="XMLID_494_" class="st11" d="M172.3,223.8c-0.2-0.3-0.7-0.9-1.2-1.5c0.5-0.4,0.9-1.1,1.4-1.1c0.7,0,1.4,0.5,2.1,0.7
					C174.1,222.4,173.6,222.8,172.3,223.8z"/>
			</g>
			<g id="XMLID_495_">
				<path id="XMLID_496_" class="st11" d="M158,171.7c-0.2,1.7-0.2,2.3-0.3,2.9c-0.6-0.4-1.4-0.8-1.7-1.3c-0.3-0.4,0.1-1.2,0.1-1.8
					C156.9,171.6,157.7,171.7,158,171.7z"/>
			</g>
			<g id="XMLID_497_">
				<path id="XMLID_498_" class="st11" d="M128.1,205.2c0.3-0.2,0.9-0.7,1.5-1.2c0.4,0.5,1.1,0.9,1.1,1.4c0,0.7-0.5,1.4-0.7,2.1
					C129.6,207,129.2,206.5,128.1,205.2z"/>
			</g>
			<g id="XMLID_499_">
				<path id="XMLID_500_" class="st11" d="M109,150.3c-1.7-0.2-2.3-0.2-2.9-0.3c0.4-0.6,0.8-1.4,1.3-1.7c0.4-0.3,1.7,0,1.7,0.1
					C109.2,149.2,109.1,150,109,150.3z"/>
			</g>
			<g id="XMLID_501_">
				<path id="XMLID_502_" class="st11" d="M273.5,255.8c-1.7-0.2-2.3-0.2-2.9-0.3c0.4-0.6,0.8-1.4,1.3-1.7c0.4-0.3,1.2,0.1,1.8,0.1
					C273.7,254.6,273.6,255.4,273.5,255.8z"/>
			</g>
			<g id="XMLID_503_">
				<path id="XMLID_504_" class="st11" d="M81.4,203.2c0.8,0.1,1.6,0.3,2.5,0.5c-0.4,0.5-0.7,1.3-1.2,1.4c-0.9,0.2-1.8-0.1-2.7-0.2
					C80.4,204.4,80.8,203.9,81.4,203.2z"/>
			</g>
			<g id="XMLID_505_">
				<path id="XMLID_506_" class="st11" d="M170.4,131.4c-0.4,0.3-0.7,0.8-1.1,1c-0.1,0.1-0.5-0.3-0.8-0.4c0.4-0.3,0.7-0.8,1.1-1
					C169.7,130.9,170.1,131.2,170.4,131.4z"/>
			</g>
			<g id="XMLID_507_">
				<path id="XMLID_508_" class="st11" d="M161.9,110.5c-0.2,0.3-0.4,0.8-0.4,0.8c-0.5-0.1-1-0.3-1.4-0.5c0.2-0.4,0.4-0.8,0.6-1.1
					C161,110,161.5,110.3,161.9,110.5z"/>
			</g>
			<g id="XMLID_509_">
				<path id="XMLID_510_" class="st11" d="M203.6,201c-0.3-0.2-0.6-0.3-0.9-0.5c0.4-0.3,0.7-0.8,1.1-1c0.2-0.1,0.5,0.3,0.8,0.4
					C204.3,200.3,203.9,200.6,203.6,201z"/>
			</g>
			<g id="XMLID_511_">
				<path id="XMLID_512_" class="st11" d="M118.7,113.3c-0.3-0.2-0.6-0.3-0.9-0.5c0.4-0.3,0.7-0.8,1.1-1c0.2-0.1,0.5,0.3,0.8,0.4
					C119.4,112.5,119.1,112.9,118.7,113.3z"/>
			</g>
			<g id="XMLID_513_">
				<path id="XMLID_514_" class="st11" d="M200.2,217.3c-0.3-0.4-0.8-0.7-1-1.1c-0.1-0.1,0.3-0.5,0.4-0.8c0.3,0.4,0.8,0.7,1,1.1
					C200.7,216.6,200.3,217,200.2,217.3z"/>
			</g>
			<g id="XMLID_515_">
				<path id="XMLID_516_" class="st11" d="M202.3,156.6c0.1-0.5,0.2-1,0.3-1.5c0.3,0.2,0.8,0.3,0.8,0.5c0,0.5-0.1,1-0.2,1.5
					C202.9,157,202.7,156.8,202.3,156.6z"/>
			</g>
			<g id="XMLID_517_">
				<path id="XMLID_518_" class="st11" d="M282.2,209.1c-0.8-0.2-1.6-0.4-2.5-0.5c0.3-0.5,0.5-1.3,0.8-1.3c0.8-0.1,1.7,0.2,2.5,0.4
					C282.8,208,282.5,208.5,282.2,209.1z"/>
			</g>
			<g id="XMLID_519_">
				<path id="XMLID_520_" class="st11" d="M197.7,225.8c0.1-0.5,0.2-1,0.3-1.5c0.3,0.2,0.8,0.3,0.8,0.5c0,0.5-0.1,1-0.2,1.5
					C198.3,226.1,198,226,197.7,225.8z"/>
			</g>
			<g id="XMLID_521_">
				<path id="XMLID_522_" class="st11" d="M242.9,187.2c-0.5-0.1-1-0.2-1.5-0.3c0.2-0.3,0.3-0.8,0.5-0.8c0.5,0,1,0.1,1.5,0.2
					C243.2,186.6,243,186.8,242.9,187.2z"/>
			</g>
			<g id="XMLID_523_">
				<path id="XMLID_524_" class="st11" d="M153.7,278.4c-0.3-0.4-0.8-0.7-1-1.1c-0.1-0.1,0.3-0.5,0.4-0.8c0.3,0.4,0.8,0.7,1,1.1
					C154.2,277.7,153.8,278.1,153.7,278.4z"/>
			</g>
			<g id="XMLID_525_">
				<path id="XMLID_526_" class="st11" d="M157.7,265.7c0.1-0.5,0.2-1,0.3-1.5c0.3,0.2,0.8,0.3,0.8,0.5c0,0.5-0.1,1-0.2,1.5
					C158.3,266.1,158.1,265.9,157.7,265.7z"/>
			</g>
			<g id="XMLID_527_">
				<path id="XMLID_528_" class="st11" d="M237.6,169.5c-0.5-0.1-1-0.2-1.5-0.3c0.2-0.3,0.3-0.8,0.5-0.8c0.5,0,1,0.1,1.5,0.2
					C237.9,168.9,237.8,169.2,237.6,169.5z"/>
			</g>
			<g id="XMLID_529_">
				<path id="XMLID_530_" class="st11" d="M202.6,170.3c0.2-0.3,0.3-0.6,0.5-0.9c0.3,0.4,0.8,0.7,1,1.1c0.1,0.2-0.3,0.5-0.4,0.8
					C203.3,171,202.9,170.6,202.6,170.3z"/>
			</g>
			<g id="XMLID_531_">
				<path id="XMLID_532_" class="st11" d="M209.1,325.4c-0.5-0.1-1-0.2-1.5-0.3c0.2-0.3,0.3-0.8,0.5-0.8c0.5,0,1,0.1,1.5,0.2
					C209.4,324.8,209.3,325.1,209.1,325.4z"/>
			</g>
			<g id="XMLID_533_">
				<path id="XMLID_534_" class="st11" d="M196.2,289.3c0.3,0.2,0.6,0.3,0.9,0.5c-0.4,0.3-0.7,0.8-1.1,1c-0.2,0.1-0.5-0.3-0.8-0.4
					C195.5,290,195.9,289.6,196.2,289.3z"/>
			</g>
			<g id="XMLID_535_">
				<path id="XMLID_536_" class="st11" d="M214.9,105.3c0.2-0.3,0.3-0.6,0.5-0.9c0.3,0.4,0.8,0.7,1,1.1c0.1,0.2-0.3,0.5-0.4,0.8
					C215.6,106,215.2,105.6,214.9,105.3z"/>
			</g>
			<g id="XMLID_537_">
				<path id="XMLID_538_" class="st11" d="M197.9,306.8c0.3-0.4,0.6-0.8,0.9-1.3c0.2,0.4,0.8,1,0.7,1.1c-0.3,0.4-0.9,0.7-1.3,1
					C198.1,307.3,198,307,197.9,306.8z"/>
			</g>
			<g id="XMLID_539_">
				<path id="XMLID_540_" class="st11" d="M197.5,309.8c-0.3-0.2-0.8-0.4-0.8-0.4c0.1-0.5,0.3-1,0.5-1.4c0.4,0.2,0.8,0.4,1.1,0.6
					C198.1,308.9,197.8,309.4,197.5,309.8z"/>
			</g>
			<g id="XMLID_541_">
				<path id="XMLID_542_" class="st11" d="M177.5,262.2c-0.5-0.1-1-0.2-1.5-0.3c0.2-0.3,0.3-0.8,0.5-0.8c0.5,0,1,0.1,1.5,0.2
					C177.8,261.5,177.7,261.8,177.5,262.2z"/>
			</g>
			<g id="XMLID_543_">
				<path id="XMLID_544_" class="st11" d="M145.4,166.8c-0.4,0.3-0.7,0.8-1.1,1c-0.1,0.1-0.5-0.3-0.8-0.4c0.4-0.3,0.7-0.8,1.1-1
					C144.8,166.3,145.2,166.7,145.4,166.8z"/>
			</g>
			<g id="XMLID_545_">
				<path id="XMLID_546_" class="st11" d="M239.8,137.4c-0.3-0.2-0.6-0.3-0.9-0.5c0.4-0.3,0.7-0.8,1.1-1c0.1-0.1,0.5,0.3,0.8,0.4
					C240.5,136.7,240.2,137,239.8,137.4z"/>
			</g>
			<g id="XMLID_547_">
				<path id="XMLID_548_" class="st11" d="M189.7,141.4c-0.5-0.1-1-0.2-1.5-0.3c0.2-0.3,0.3-0.8,0.5-0.8c0.5,0,1,0.1,1.5,0.2
					C190,140.7,189.9,141,189.7,141.4z"/>
			</g>
			<g id="XMLID_549_">
				<path id="XMLID_550_" class="st11" d="M274,288.6c0.1-0.5,0.2-1,0.3-1.5c0.3,0.2,0.8,0.3,0.8,0.5c0,0.5-0.1,1-0.2,1.5
					C274.7,288.9,274.4,288.8,274,288.6z"/>
			</g>
			<g id="XMLID_551_">
				<path id="XMLID_552_" class="st11" d="M170.7,161.2c-0.4,0.3-0.7,0.8-1.1,1c-0.2,0.1-0.5-0.3-0.8-0.4c0.4-0.3,0.7-0.8,1.1-1
					C170,160.7,170.4,161,170.7,161.2z"/>
			</g>
			<g id="XMLID_553_">
				<path id="XMLID_554_" class="st11" d="M141.2,210.5c-0.2,0.3-0.3,0.6-0.5,0.9c-0.3-0.4-0.8-0.7-1-1.1c-0.1-0.1,0.3-0.5,0.4-0.8
					C140.5,209.8,140.9,210.1,141.2,210.5z"/>
			</g>
			<g id="XMLID_555_">
				<path id="XMLID_556_" class="st11" d="M272.2,272.8c-0.3-0.4-0.8-0.7-1-1.1c-0.1-0.2,0.3-0.5,0.4-0.8c0.3,0.4,0.8,0.7,1,1.1
					C272.8,272.1,272.4,272.5,272.2,272.8z"/>
			</g>
			<g id="XMLID_557_">
				<path id="XMLID_558_" class="st11" d="M249.1,251.6c-0.5-0.1-1-0.2-1.5-0.3c0.2-0.3,0.3-0.8,0.5-0.8c0.5,0,1,0.1,1.5,0.2
					C249.5,250.9,249.3,251.2,249.1,251.6z"/>
			</g>
			<g id="XMLID_559_">
				<path id="XMLID_560_" class="st11" d="M248.7,194.1c-0.3-0.2-0.8-0.4-0.8-0.4c0.1-0.5,0.3-1,0.5-1.4c0.4,0.2,0.8,0.4,1.1,0.6
					C249.3,193.3,249,193.7,248.7,194.1z"/>
			</g>
			<g id="XMLID_561_">
				<path id="XMLID_562_" class="st11" d="M136.2,241.9c0.1-0.5,0.2-1,0.3-1.5c0.3,0.2,0.8,0.3,0.8,0.5c0,0.5-0.1,1-0.2,1.5
					C136.8,242.2,136.5,242.1,136.2,241.9z"/>
			</g>
			<g id="XMLID_563_">
				<path id="XMLID_564_" class="st11" d="M249.1,191.1c0.3-0.4,0.6-0.8,0.9-1.3c0.2,0.4,0.8,1,0.7,1.1c-0.3,0.4-0.9,0.7-1.3,1
					C249.2,191.7,249.1,191.4,249.1,191.1z"/>
			</g>
			<g id="XMLID_565_">
				<path id="XMLID_566_" class="st11" d="M248.2,187.3c0.1-0.5,0.2-1,0.3-1.5c0.3,0.2,0.8,0.3,0.8,0.5c0,0.5-0.1,1-0.2,1.5
					C248.8,187.6,248.6,187.5,248.2,187.3z"/>
			</g>
			<g id="XMLID_567_">
				<path id="XMLID_568_" class="st11" d="M130.4,238.7c-0.1,0.5-0.2,1-0.3,1.5c-0.3-0.2-0.8-0.3-0.8-0.5c0-0.5,0.1-1,0.2-1.5
					C129.7,238.4,130,238.6,130.4,238.7z"/>
			</g>
			<g id="XMLID_569_">
				<path id="XMLID_570_" class="st11" d="M146.4,301.3c-0.5-0.1-1-0.2-1.5-0.3c0.2-0.3,0.3-0.8,0.5-0.8c0.5,0,1,0.1,1.5,0.2
					C146.7,300.7,146.5,301,146.4,301.3z"/>
			</g>
			<g id="XMLID_571_">
				<path id="XMLID_572_" class="st11" d="M158.9,110.2c-0.4-0.3-0.8-0.6-1.3-0.9c0.4-0.2,1-0.8,1.1-0.7c0.4,0.3,0.7,0.9,1,1.3
					C159.4,110,159.1,110.1,158.9,110.2z"/>
			</g>
			<g id="XMLID_573_">
				<path id="XMLID_574_" class="st11" d="M237.4,227.6c-0.3-0.4-0.8-0.7-1-1.1c-0.1-0.2,0.3-0.5,0.4-0.8c0.3,0.4,0.8,0.7,1,1.1
					C237.9,226.9,237.6,227.3,237.4,227.6z"/>
			</g>
			<g id="XMLID_575_">
				<path id="XMLID_576_" class="st11" d="M193.2,138.8c0.3,0.2,0.6,0.3,0.9,0.5c-0.4,0.3-0.7,0.8-1.1,1c-0.1,0.1-0.5-0.3-0.8-0.4
					C192.5,139.5,192.8,139.1,193.2,138.8z"/>
			</g>
			<g id="XMLID_577_">
				<path id="XMLID_578_" class="st11" d="M221,142.5c-0.2,0.3-0.3,0.6-0.5,0.9c-0.3-0.4-0.8-0.7-1-1.1c-0.1-0.2,0.3-0.5,0.4-0.8
					C220.3,141.8,220.7,142.2,221,142.5z"/>
			</g>
			<g id="XMLID_579_">
				<path id="XMLID_580_" class="st11" d="M138.8,319.1c0.3,0.2,0.6,0.3,0.9,0.5c-0.4,0.3-0.7,0.8-1.1,1c-0.1,0.1-0.5-0.3-0.8-0.4
					C138.1,319.9,138.5,319.5,138.8,319.1z"/>
			</g>
			<g id="XMLID_581_">
				<path id="XMLID_582_" class="st11" d="M81.9,99.4c-0.2,0.3-0.3,0.6-0.5,0.9c-0.3-0.4-0.8-0.7-1-1.1c-0.1-0.1,0.3-0.5,0.4-0.8
					C81.2,98.7,81.5,99.1,81.9,99.4z"/>
			</g>
			<g id="XMLID_583_">
				<path id="XMLID_584_" class="st11" d="M135.4,283.4c0.5,0.1,1,0.2,1.5,0.3c-0.2,0.3-0.3,0.8-0.5,0.8c-0.5,0-1-0.1-1.5-0.2
					C135.1,284,135.2,283.7,135.4,283.4z"/>
			</g>
			<g id="XMLID_585_">
				<path id="XMLID_586_" class="st11" d="M116.2,273.9c-0.3-0.2-0.6-0.3-0.9-0.5c0.4-0.3,0.7-0.8,1.1-1c0.1-0.1,0.5,0.3,0.8,0.4
					C116.9,273.2,116.6,273.6,116.2,273.9z"/>
			</g>
			<g id="XMLID_587_">
				<path id="XMLID_588_" class="st11" d="M79.9,106.1c-0.4,0.3-0.7,0.8-1.1,1c-0.2,0.1-0.5-0.3-0.8-0.4c0.4-0.3,0.7-0.8,1.1-1
					C79.2,105.6,79.6,106,79.9,106.1z"/>
			</g>
			<g id="XMLID_589_">
				<path id="XMLID_590_" class="st11" d="M122.6,302.6c0.5,0.1,1,0.2,1.5,0.3c-0.2,0.3-0.3,0.8-0.5,0.8c-0.5,0-1-0.1-1.5-0.2
					C122.3,303.2,122.4,302.9,122.6,302.6z"/>
			</g>
			<g id="XMLID_591_">
				<path id="XMLID_592_" class="st11" d="M125.4,321.9c0.3-0.4,0.6-0.8,0.9-1.3c0.2,0.4,0.8,1,0.7,1.1c-0.3,0.4-0.9,0.7-1.3,1
					C125.6,322.4,125.5,322.1,125.4,321.9z"/>
			</g>
			<g id="XMLID_593_">
				<path id="XMLID_594_" class="st11" d="M125.1,324.9c-0.3-0.2-0.8-0.4-0.8-0.4c0.1-0.5,0.3-1,0.5-1.4c0.4,0.2,0.8,0.4,1.1,0.6
					C125.7,324,125.4,324.5,125.1,324.9z"/>
			</g>
			<g id="XMLID_595_">
				<path id="XMLID_596_" class="st11" d="M131.6,313.8c-0.3-0.2-0.6-0.3-0.9-0.5c0.4-0.3,0.7-0.8,1.1-1c0.1-0.1,0.5,0.3,0.8,0.4
					C132.3,313.1,132,313.5,131.6,313.8z"/>
			</g>
			<g id="XMLID_597_">
				<path id="XMLID_598_" class="st11" d="M80.8,231.6c0.3,0.2,0.6,0.3,0.9,0.5c-0.4,0.3-0.7,0.8-1.1,1c-0.2,0.1-0.5-0.3-0.8-0.4
					C80.1,232.4,80.4,232,80.8,231.6z"/>
			</g>
			<g id="XMLID_599_">
				<path id="XMLID_600_" class="st11" d="M72.1,160.1c-0.2,0.3-0.3,0.6-0.5,0.9c-0.3-0.4-0.8-0.7-1-1.1c-0.1-0.1,0.3-0.5,0.4-0.8
					C71.4,159.4,71.7,159.7,72.1,160.1z"/>
			</g>
			<g id="XMLID_601_">
				<path id="XMLID_602_" class="st11" d="M58.2,124c-0.3-0.2-0.6-0.3-0.9-0.5c0.4-0.3,0.7-0.8,1.1-1c0.2-0.1,0.5,0.3,0.8,0.4
					C58.9,123.3,58.5,123.7,58.2,124z"/>
			</g>
			<g id="XMLID_603_">
				<path id="XMLID_604_" class="st11" d="M82.5,204.8c-0.3-0.4-0.8-0.7-1-1.1c-0.1-0.1,0.3-0.5,0.4-0.8c0.3,0.4,0.8,0.7,1,1.1
					C83,204.1,82.6,204.5,82.5,204.8z"/>
			</g>
			<g id="XMLID_605_">
				<path id="XMLID_606_" class="st11" d="M64.9,223.5c0.5,0.1,1,0.2,1.5,0.3c-0.2,0.3-0.3,0.8-0.5,0.8c-0.5,0-1-0.1-1.5-0.2
					C64.6,224.1,64.7,223.9,64.9,223.5z"/>
			</g>
			<g id="XMLID_607_">
				<path id="XMLID_608_" class="st11" d="M71.6,247.6c0.2-0.3,0.3-0.6,0.5-0.9c0.3,0.4,0.8,0.7,1,1.1c0.1,0.1-0.3,0.5-0.4,0.8
					C72.4,248.3,72,248,71.6,247.6z"/>
			</g>
			<g id="XMLID_609_">
				<path id="XMLID_610_" class="st11" d="M244.6,160.6c0.1-0.5,0.2-1,0.3-1.5c0.3,0.2,0.8,0.3,0.8,0.5c0,0.5-0.1,1-0.2,1.5
					C245.2,160.9,244.9,160.8,244.6,160.6z"/>
			</g>
			<g id="XMLID_611_">
				<path id="XMLID_612_" class="st11" d="M245.9,81.4c-0.4,0.3-0.7,0.8-1.1,1c-0.2,0.1-0.5-0.3-0.8-0.4c0.4-0.3,0.7-0.8,1.1-1
					C245.3,80.9,245.6,81.2,245.9,81.4z"/>
			</g>
			<g id="XMLID_613_">
				<path id="XMLID_614_" class="st11" d="M77.2,270.9c-0.3-0.4-0.8-0.7-1-1.1c-0.1-0.2,0.3-0.5,0.4-0.8c0.3,0.4,0.8,0.7,1,1.1
					C77.7,270.2,77.3,270.6,77.2,270.9z"/>
			</g>
		</g>
		<g id="XMLID_615_">
			<g id="XMLID_616_">
				<path id="XMLID_617_" class="st11" d="M97.2,349c-0.7,1.7-0.9,3.2-1.7,3.7c-2.4,1.6-3.1-0.8-3.6-2.3c-0.3-1,0.3-2.3,0.5-3.4
					C93.8,347.6,95.1,348.1,97.2,349z"/>
			</g>
			<g id="XMLID_622_">
				<path id="XMLID_623_" class="st11" d="M16.6,283.5c1.2-1.6,1.5-2.5,2.1-2.7c1.4-0.7,2.8-2.7,4.5-0.6c0.5,0.7,0.3,1.9,0.4,2.9
					C21.6,283.1,19.7,283.3,16.6,283.5z"/>
			</g>
			<g id="XMLID_624_">
				<path id="XMLID_625_" class="st11" d="M20.8,273.5c-0.7-0.7-2-1.3-2.1-2.1c-0.1-1.9,0.3-3.9,0.5-5.9c0.6,0.3,1.5,0.5,1.7,1
					c0.6,1.6,1,3.3,1.4,5C21.8,272.2,21.3,272.9,20.8,273.5z"/>
			</g>
			<g id="XMLID_626_">
				<path id="XMLID_627_" class="st11" d="M11.7,221.7c0.1,0-0.4,0-0.6-0.2c-0.5-0.8-1.5-1.8-1.3-2.4c0.4-1.3,1.1-2.7,2.2-3.7
					c0.4-0.4,1.9,0.5,2.9,0.8c0.2,0.1,0.4,0.5,0.3,0.6C14,218.4,12.9,220,11.7,221.7z"/>
			</g>
			<g id="XMLID_628_">
				<path id="XMLID_629_" class="st11" d="M69.1,444.4c-0.2,1.9-0.4,2.9-0.5,4c-1.5-0.7-3.1-1.3-4.4-2.3c-0.3-0.2,0.2-1.7,0.4-2.6
					C65.9,443.8,67.2,444.1,69.1,444.4z"/>
			</g>
			<g id="XMLID_630_">
				<path id="XMLID_631_" class="st11" d="M60.1,421.3c0.9,0.1,2.2,0.1,3.4,0.5c0.7,0.2,1.1,1,1.7,1.5c-0.5,0.4-1,1.2-1.5,1.2
					c-1.3,0-2.7-0.4-3.9-0.7c-0.3-0.1-0.6-0.8-0.7-1.3C59,422.3,59.4,422,60.1,421.3z"/>
			</g>
			<g id="XMLID_632_">
				<path id="XMLID_633_" class="st11" d="M157.3,296.3c-2-0.7-3.5-0.9-3.5-1.3c-0.1-1.1,0.2-2.3,0.7-3.3c0.1-0.2,2.2,0,2.5,0.5
					C157.4,293.1,157.2,294.3,157.3,296.3z"/>
			</g>
			<g id="XMLID_634_">
				<path id="XMLID_635_" class="st11" d="M78.5,433.9c0-1.2-0.1-2.2-0.1-3.1c1.4,0.6,3.3,0.8,4.2,1.9c0.5,0.6-0.7,2.5-1.1,3.8
					C80.5,435.6,79.5,434.8,78.5,433.9z"/>
			</g>
			<g id="XMLID_636_">
				<path id="XMLID_637_" class="st11" d="M31.9,270.6c-0.3,0-1.3,0-1.3-0.1c-0.1-1.2-0.4-2.5,0-3.5c0.1-0.4,1.8-0.3,2.7-0.4
					C32.8,267.9,32.4,269.2,31.9,270.6z"/>
			</g>
			<g id="XMLID_638_">
				<path id="XMLID_639_" class="st11" d="M142.4,435.2c-0.5,0.8-0.8,1.8-1.1,1.8c-1.1,0-2.3-0.3-3.3-0.7c-0.3-0.1-0.2-1.2-0.2-1.8
					C139.2,434.7,140.7,434.9,142.4,435.2z"/>
			</g>
			<g id="XMLID_640_">
				<path id="XMLID_641_" class="st11" d="M47.6,350.3c0.1-0.5,0.1-1.6,0.2-1.6c1.2-0.1,2.5-0.3,3.5,0c0.4,0.2,0.3,1.8,0.4,2.8
					C50.3,351.2,49,350.8,47.6,350.3z"/>
			</g>
			<g id="XMLID_642_">
				<path id="XMLID_643_" class="st11" d="M55.1,226.6c-1.3-0.4-2.7-0.9-4-1.3c0.3-0.7,0.8-2.1,1-2c1.1,0.3,2.2,0.7,3.1,1.3
					C55.5,224.8,55.2,225.9,55.1,226.6z"/>
			</g>
			<g id="XMLID_644_">
				<path id="XMLID_645_" class="st11" d="M91.2,459.1c-0.3-0.3-1-0.8-1.6-1.4c1-0.8,2-1.9,3.2-2.5c0.6-0.3,1.5,0.2,2.3,0.3
					C94.1,456.5,93.1,457.4,91.2,459.1z"/>
			</g>
			<g id="XMLID_646_">
				<path id="XMLID_647_" class="st11" d="M201.6,397.5c-0.4,1-0.7,2.1-1.3,3c-0.3,0.4-1.2,0.2-1.9,0.3c0.3-1.5,0.5-3.1,0.8-4.6
					C199.7,396.5,200.3,396.8,201.6,397.5z"/>
			</g>
			<g id="XMLID_648_">
				<path id="XMLID_649_" class="st11" d="M6.2,321.5c-1-0.4-2.1-0.7-3-1.3C2.9,320,3,319,2.9,318.4c1.5,0.3,3.1,0.5,4.6,0.8
					C7.2,319.7,6.9,320.3,6.2,321.5z"/>
			</g>
			<g id="XMLID_650_">
				<path id="XMLID_651_" class="st11" d="M127.2,407.7c-1-0.1-1.6-0.1-2.3-0.2c0.6-0.7,1.1-1.6,1.9-2.2c0.4-0.3,1.3,0.1,1.9,0.1
					C128.2,406.2,127.7,407,127.2,407.7z"/>
			</g>
			<g id="XMLID_652_">
				<path id="XMLID_653_" class="st11" d="M62.4,407.7c0.1-1,0.2-1.6,0.2-2.3c0.7,0.6,1.6,1.1,2.2,1.9c0.3,0.4-0.1,1.3-0.1,1.9
					C63.9,408.7,63.1,408.1,62.4,407.7z"/>
			</g>
			<g id="XMLID_654_">
				<path id="XMLID_655_" class="st11" d="M106.5,273.4c-0.8,0-1.8,0-2.8,0c0.3-0.6,0.5-1.5,1-1.7c0.9-0.3,1.9-0.3,2.9-0.4
					C107.3,272,106.9,272.5,106.5,273.4z"/>
			</g>
			<g id="XMLID_656_">
				<path id="XMLID_657_" class="st11" d="M115.7,322.1c-0.9-0.1-1.9,0.1-2-0.2c-0.4-0.9-0.5-1.9-0.8-2.8c0.6,0,1.4-0.2,1.6,0.1
					C115.1,320,115.3,321,115.7,322.1z"/>
			</g>
			<g id="XMLID_658_">
				<path id="XMLID_659_" class="st11" d="M69.5,410.4c0.2,1.8,0.2,2.4,0.3,3.1c-0.7-0.3-1.6-0.5-2.1-1c-0.4-0.4-0.2-1.2-0.2-1.9
					C68.3,410.5,69.1,410.4,69.5,410.4z"/>
			</g>
			<g id="XMLID_660_">
				<path id="XMLID_661_" class="st11" d="M150.7,302.3c0.2,1.8,0.2,2.4,0.3,3.1c-0.7-0.3-1.6-0.5-2.1-1c-0.4-0.4-0.2-1.2-0.2-1.9
					C149.4,302.4,150.3,302.4,150.7,302.3z"/>
			</g>
			<g id="XMLID_662_">
				<path id="XMLID_663_" class="st11" d="M76.3,322.4c0.2-0.3,0.8-0.9,1.3-1.6c0.5,0.4,1.3,0.7,1.4,1.2c0.2,0.7-0.2,1.5-0.3,2.3
					C78.2,323.9,77.7,323.5,76.3,322.4z"/>
			</g>
			<g id="XMLID_664_">
				<path id="XMLID_665_" class="st11" d="M90.3,363.5c-0.3-0.2-0.9-0.8-1.6-1.3c0.4-0.5,0.7-1.3,1.2-1.4c0.7-0.2,1.5,0.2,2.3,0.3
					C91.8,361.6,91.4,362.1,90.3,363.5z"/>
			</g>
			<g id="XMLID_666_">
				<path id="XMLID_667_" class="st11" d="M64.3,312.3c0.2,1.8,0.2,2.4,0.3,3.1c-0.7-0.3-1.6-0.5-2.1-1c-0.4-0.4-0.2-1.2-0.2-1.9
					C63.1,312.4,63.9,312.3,64.3,312.3z"/>
			</g>
			<g id="XMLID_668_">
				<path id="XMLID_669_" class="st11" d="M40.3,353.5c0.2-0.3,0.8-0.9,1.3-1.6c0.5,0.4,1.3,0.7,1.4,1.2c0.2,0.7-0.2,1.5-0.3,2.3
					C42.2,355.1,41.7,354.7,40.3,353.5z"/>
			</g>
			<g id="XMLID_670_">
				<path id="XMLID_671_" class="st11" d="M8.6,300.5c-1.8,0.2-2.5,0.2-3.1,0.3c0.3-0.7,0.5-1.6,1-2.1c0.4-0.4,1.7-0.4,1.8-0.2
					C8.6,299.3,8.6,300.1,8.6,300.5z"/>
			</g>
			<g id="XMLID_672_">
				<path id="XMLID_673_" class="st11" d="M202.6,375c-1.8,0.2-2.4,0.2-3.1,0.3c0.3-0.7,0.5-1.6,1-2.1c0.4-0.4,1.2-0.2,1.9-0.2
					C202.5,373.8,202.6,374.7,202.6,375z"/>
			</g>
			<g id="XMLID_676_">
				<path id="XMLID_677_" class="st11" d="M68.5,267.6c-0.3,0.4-0.6,0.9-1,1.3c-0.1,0.1-0.6-0.2-1-0.3c0.3-0.4,0.6-0.9,1-1.3
					C67.7,267.2,68.1,267.5,68.5,267.6z"/>
			</g>
			<g id="XMLID_678_">
				<path id="XMLID_679_" class="st11" d="M55.2,247.7c-0.1,0.3-0.2,0.9-0.3,0.9c-0.5,0-1.1-0.1-1.6-0.2c0.1-0.4,0.3-0.9,0.4-1.3
					C54.2,247.3,54.7,247.5,55.2,247.7z"/>
			</g>
			<g id="XMLID_680_">
				<path id="XMLID_681_" class="st11" d="M118,333c-0.4-0.1-0.7-0.2-1-0.3c0.3-0.4,0.6-0.9,1-1.3c0.1-0.1,0.6,0.2,1,0.3
					C118.6,332.1,118.3,332.5,118,333z"/>
			</g>
			<g id="XMLID_682_">
				<path id="XMLID_683_" class="st11" d="M10.8,259.8c-0.4-0.1-0.7-0.2-1.1-0.3c0.3-0.4,0.6-0.9,1-1.3c0.1-0.1,0.6,0.2,1,0.3
					C11.4,258.9,11.1,259.4,10.8,259.8z"/>
			</g>
			<g id="XMLID_684_">
				<path id="XMLID_685_" class="st11" d="M118,350.7c-0.4-0.3-0.9-0.6-1.3-1c-0.1-0.1,0.2-0.6,0.3-1c0.4,0.3,0.9,0.6,1.3,1
					C118.3,349.9,118,350.3,118,350.7z"/>
			</g>
			<g id="XMLID_686_">
				<path id="XMLID_687_" class="st11" d="M107.2,287.1c0-0.5,0-1.1,0-1.6c0.3,0.1,0.9,0.1,0.9,0.3c0.1,0.5,0.1,1.1,0.1,1.6
					C107.9,287.3,107.6,287.2,107.2,287.1z"/>
			</g>
			<g id="XMLID_688_">
				<path id="XMLID_689_" class="st11" d="M201.6,324.5c-0.9,0-1.8,0-2.7,0c0.2-0.5,0.2-1.5,0.5-1.6c0.8-0.2,1.8-0.1,2.7-0.2
					C202,323.3,201.8,323.9,201.6,324.5z"/>
			</g>
			<g id="XMLID_690_">
				<path id="XMLID_691_" class="st11" d="M117.2,360.1c0-0.5,0-1.1,0-1.6c0.3,0.1,0.9,0.1,0.9,0.3c0.1,0.5,0.1,1.1,0.1,1.6
					C117.9,360.3,117.6,360.2,117.2,360.1z"/>
			</g>
			<g id="XMLID_692_">
				<path id="XMLID_693_" class="st11" d="M156,310.2c-0.5,0-1.1,0-1.6,0c0.1-0.3,0.1-0.9,0.3-0.9c0.5-0.1,1.1-0.1,1.6-0.1
					C156.2,309.5,156.1,309.8,156,310.2z"/>
			</g>
			<g id="XMLID_694_">
				<path id="XMLID_695_" class="st11" d="M82.6,424.3c-0.4-0.3-0.9-0.6-1.3-1c-0.1-0.1,0.2-0.6,0.3-1c0.4,0.3,0.9,0.6,1.3,1
					C83,423.5,82.7,424,82.6,424.3z"/>
			</g>
			<g id="XMLID_696_">
				<path id="XMLID_697_" class="st11" d="M84.1,410.3c0-0.5,0-1.1,0-1.6c0.3,0.1,0.9,0.1,0.9,0.3c0.1,0.5,0.1,1.1,0.1,1.6
					C84.9,410.5,84.5,410.4,84.1,410.3z"/>
			</g>
			<g id="XMLID_698_">
				<path id="XMLID_699_" class="st11" d="M146.7,292.9c-0.5,0-1.1,0-1.6,0c0.1-0.3,0.1-0.9,0.3-0.9c0.5-0.1,1.1-0.1,1.6-0.1
					C146.9,292.2,146.8,292.5,146.7,292.9z"/>
			</g>
			<g id="XMLID_700_">
				<path id="XMLID_701_" class="st11" d="M110.4,301.2c0.1-0.4,0.2-0.7,0.3-1c0.4,0.3,0.9,0.6,1.3,1c0.1,0.1-0.2,0.6-0.3,1
					C111.3,301.8,110.8,301.5,110.4,301.2z"/>
			</g>
			<g id="XMLID_702_">
				<path id="XMLID_703_" class="st11" d="M150.5,461.5c-0.5,0-1.1,0-1.6,0c0.1-0.3,0.1-0.9,0.3-0.9c0.5-0.1,1.1-0.1,1.6-0.1
					C150.7,460.7,150.6,461.1,150.5,461.5z"/>
			</g>
			<g id="XMLID_704_">
				<path id="XMLID_705_" class="st11" d="M129.3,426.5c0.4,0.1,0.7,0.2,1,0.3c-0.3,0.4-0.6,0.9-1,1.3c-0.1,0.1-0.6-0.2-1-0.3
					C128.7,427.4,129,427,129.3,426.5z"/>
			</g>
			<g id="XMLID_706_">
				<path id="XMLID_707_" class="st11" d="M109.2,230.9c0.1-0.4,0.2-0.7,0.3-1.1c0.4,0.3,0.9,0.6,1.3,1c0.1,0.1-0.2,0.6-0.3,1
					C110.1,231.5,109.7,231.2,109.2,230.9z"/>
			</g>
			<g id="XMLID_708_">
				<path id="XMLID_709_" class="st11" d="M134.8,444.4c0.2-0.5,0.4-1,0.7-1.5c0.3,0.3,1,0.8,0.9,1c-0.2,0.5-0.7,0.9-1.1,1.4
					C135.1,445,134.9,444.7,134.8,444.4z"/>
			</g>
			<g id="XMLID_710_">
				<path id="XMLID_711_" class="st11" d="M135.1,447.6c-0.3-0.1-0.9-0.2-0.9-0.3c0-0.5,0.1-1.1,0.2-1.6c0.4,0.1,0.9,0.3,1.3,0.4
					C135.5,446.6,135.3,447.1,135.1,447.6z"/>
			</g>
			<g id="XMLID_712_">
				<path id="XMLID_713_" class="st11" d="M103.9,402.3c-0.5,0-1.1,0-1.6,0c0.1-0.3,0.1-0.9,0.3-0.9c0.5-0.1,1.1-0.1,1.6-0.1
					C104.2,401.6,104.1,401.9,103.9,402.3z"/>
			</g>
			<g id="XMLID_714_">
				<path id="XMLID_715_" class="st11" d="M50.1,309.9c-0.3,0.4-0.6,0.9-1,1.3c-0.1,0.1-0.6-0.2-1-0.3c0.3-0.4,0.6-0.9,1-1.3
					C49.3,309.5,49.8,309.8,50.1,309.9z"/>
			</g>
			<g id="XMLID_716_">
				<path id="XMLID_717_" class="st11" d="M142.1,259c-0.4-0.1-0.7-0.2-1.1-0.3c0.3-0.4,0.6-0.9,1-1.3c0.1-0.1,0.6,0.2,1,0.3
					C142.7,258.1,142.4,258.6,142.1,259z"/>
			</g>
			<g id="XMLID_718_">
				<path id="XMLID_719_" class="st11" d="M90.7,273.9c-0.5,0-1.1,0-1.6,0c0.1-0.3,0.1-0.9,0.3-0.9c0.5-0.1,1.1-0.1,1.6-0.1
					C90.9,273.1,90.8,273.5,90.7,273.9z"/>
			</g>
			<g id="XMLID_720_">
				<path id="XMLID_721_" class="st11" d="M210.2,409.2c0-0.5,0-1.1,0-1.6c0.3,0.1,0.9,0.1,0.9,0.3c0.1,0.5,0.1,1.1,0.1,1.6
					C210.9,409.4,210.6,409.3,210.2,409.2z"/>
			</g>
			<g id="XMLID_722_">
				<path id="XMLID_723_" class="st11" d="M75.2,298.6c-0.3,0.4-0.6,0.9-1,1.3c-0.1,0.1-0.6-0.2-1-0.3c0.3-0.4,0.6-0.9,1-1.3
					C74.4,298.2,74.9,298.5,75.2,298.6z"/>
			</g>
			<g id="XMLID_724_">
				<path id="XMLID_725_" class="st11" d="M55.1,356.3c-0.1,0.4-0.2,0.7-0.3,1c-0.4-0.3-0.9-0.6-1.3-1c-0.1-0.1,0.2-0.6,0.3-1
					C54.2,355.7,54.6,356,55.1,356.3z"/>
			</g>
			<g id="XMLID_726_">
				<path id="XMLID_727_" class="st11" d="M204.9,393.1c-0.4-0.3-0.9-0.6-1.3-1c-0.1-0.1,0.2-0.6,0.3-1c0.4,0.3,0.9,0.6,1.3,1
					C205.3,392.3,205,392.7,204.9,393.1z"/>
			</g>
			<g id="XMLID_728_">
				<path id="XMLID_729_" class="st11" d="M176.3,375.9c-0.5,0-1.1,0-1.6,0c0.1-0.3,0.1-0.9,0.3-0.9c0.5-0.1,1.1-0.1,1.6-0.1
					C176.5,375.2,176.4,375.5,176.3,375.9z"/>
			</g>
			<g id="XMLID_730_">
				<path id="XMLID_731_" class="st11" d="M163.5,316.2c-0.3-0.1-0.9-0.2-0.9-0.3c0-0.5,0.1-1.1,0.2-1.6c0.4,0.1,0.9,0.3,1.3,0.4
					C164,315.2,163.7,315.7,163.5,316.2z"/>
			</g>
			<g id="XMLID_732_">
				<path id="XMLID_733_" class="st11" d="M56.6,390.1c0-0.5,0-1.1,0-1.6c0.3,0.1,0.9,0.1,0.9,0.3c0.1,0.5,0.1,1.1,0.1,1.6
					C57.3,390.3,57,390.2,56.6,390.1z"/>
			</g>
			<g id="XMLID_734_">
				<path id="XMLID_735_" class="st11" d="M163.3,312.9c0.2-0.5,0.4-1,0.7-1.5c0.3,0.3,1,0.8,0.9,1c-0.2,0.5-0.7,0.9-1.1,1.4
					C163.6,313.5,163.4,313.2,163.3,312.9z"/>
			</g>
			<g id="XMLID_736_">
				<path id="XMLID_737_" class="st11" d="M161.6,309.1c0-0.5,0-1.1,0-1.6c0.3,0.1,0.9,0.1,0.9,0.3c0.1,0.5,0.1,1.1,0.1,1.6
					C162.3,309.4,162,309.3,161.6,309.1z"/>
			</g>
			<g id="XMLID_738_">
				<path id="XMLID_739_" class="st11" d="M49.8,388c0,0.5,0,1.1,0,1.6c-0.3-0.1-0.9-0.1-0.9-0.3c-0.1-0.5-0.1-1.1-0.1-1.6
					C49.1,387.8,49.5,387.9,49.8,388z"/>
			</g>
			<g id="XMLID_740_">
				<path id="XMLID_741_" class="st11" d="M79.9,449.8c-0.5,0-1.1,0-1.6,0c0.1-0.3,0.1-0.9,0.3-0.9c0.5-0.1,1.1-0.1,1.6-0.1
					C80.1,449.1,80,449.4,79.9,449.8z"/>
			</g>
			<g id="XMLID_742_">
				<path id="XMLID_743_" class="st11" d="M51.9,248c-0.5-0.2-1-0.4-1.5-0.7c0.3-0.3,0.8-1,1-0.9c0.5,0.2,0.9,0.7,1.4,1.1
					C52.5,247.7,52.2,247.9,51.9,248z"/>
			</g>
			<g id="XMLID_744_">
				<path id="XMLID_745_" class="st11" d="M159,353.4c-0.4-0.3-0.9-0.6-1.3-1c-0.1-0.1,0.2-0.6,0.3-1c0.4,0.3,0.9,0.6,1.3,1
					C159.4,352.6,159.1,353.1,159,353.4z"/>
			</g>
			<g id="XMLID_746_">
				<path id="XMLID_747_" class="st11" d="M93.8,270.4c0.4,0.1,0.7,0.2,1,0.3c-0.3,0.4-0.6,0.9-1,1.3c-0.1,0.1-0.6-0.2-1-0.3
					C93.3,271.3,93.5,270.9,93.8,270.4z"/>
			</g>
			<g id="XMLID_748_">
				<path id="XMLID_749_" class="st11" d="M123.6,268.4c-0.1,0.4-0.2,0.7-0.3,1c-0.4-0.3-0.9-0.6-1.3-1c-0.1-0.1,0.2-0.6,0.3-1
					C122.7,267.8,123.2,268.1,123.6,268.4z"/>
			</g>
			<g id="XMLID_750_">
				<path id="XMLID_751_" class="st11" d="M75.9,470c0.4,0.1,0.7,0.2,1.1,0.3c-0.3,0.4-0.6,0.9-1,1.3c-0.1,0.1-0.6-0.2-1-0.3
					C75.3,470.9,75.6,470.4,75.9,470z"/>
			</g>
			<g id="XMLID_754_">
				<path id="XMLID_755_" class="st11" d="M64.7,433.5c0.5,0,1.1,0,1.6,0c-0.1,0.3-0.1,0.9-0.3,0.9c-0.5,0.1-1.1,0.1-1.6,0.1
					C64.5,434.2,64.6,433.9,64.7,433.5z"/>
			</g>
			<g id="XMLID_756_">
				<path id="XMLID_757_" class="st11" d="M42.7,427.7c-0.4-0.1-0.7-0.2-1-0.3c0.3-0.4,0.6-0.9,1-1.3c0.1-0.1,0.6,0.2,1,0.3
					C43.3,426.8,43,427.3,42.7,427.7z"/>
			</g>
			<g id="XMLID_760_">
				<path id="XMLID_761_" class="st11" d="M55.5,456.2c0.5,0,1.1,0,1.6,0c-0.1,0.3-0.1,0.9-0.3,0.9c-0.5,0.1-1.1,0.1-1.6,0.1
					C55.2,456.9,55.3,456.6,55.5,456.2z"/>
			</g>
			<g id="XMLID_766_">
				<path id="XMLID_767_" class="st11" d="M67.3,466c-0.4-0.1-0.7-0.2-1.1-0.3c0.3-0.4,0.6-0.9,1-1.3c0.1-0.1,0.6,0.2,1,0.3
					C67.8,465.1,67.6,465.5,67.3,466z"/>
			</g>
			<g id="XMLID_780_">
				<path id="XMLID_781_" class="st11" d="M152,282.1c0-0.5,0-1.1,0-1.6c0.3,0.1,0.9,0.1,0.9,0.3c0.1,0.5,0.1,1.1,0.1,1.6
					C152.8,282.3,152.4,282.2,152,282.1z"/>
			</g>
			<g id="XMLID_782_">
				<path id="XMLID_783_" class="st11" d="M136.5,199.3c-0.3,0.4-0.6,0.9-1,1.3c-0.1,0.1-0.6-0.2-1-0.3c0.3-0.4,0.6-0.9,1-1.3
					C135.6,198.9,136.1,199.2,136.5,199.3z"/>
			</g>
			<g id="XMLID_784_">
				<path id="XMLID_785_" class="st11" d="M1.3,432.9c-0.4-0.3-0.9-0.6-1.3-1c-0.1-0.1,0.2-0.6,0.3-1c0.4,0.3,0.9,0.6,1.3,1
					C1.7,432.1,1.4,432.6,1.3,432.9z"/>
			</g>
		</g>
	</g>
</g>
</svg>
