<?xml version="1.0" encoding="utf-8"?>
<!-- Generator: Adobe Illustrator 19.0.0, SVG Export Plug-In . SVG Version: 6.00 Build 0)  -->
<svg version="1.1" id="Layer_1" xmlns="http://www.w3.org/2000/svg" xmlns:xlink="http://www.w3.org/1999/xlink" x="0px" y="0px"
	 viewBox="0 0 617.9 367.4" style="enable-background:new 0 0 617.9 367.4;" xml:space="preserve">
<style type="text/css">
	.st0{fill:#066641;}
	.st1{fill:#9D2B45;}
	.st2{fill:#FFFFFF;}
</style>
<g id="XMLID_7_">
	<g id="XMLID_12_">
		<g id="XMLID_85_">
			<path id="XMLID_86_" class="st0" d="M162.4,356.5c55.8-57,111.6-114,167.4-171c2.3-2.3-1.3-5.8-3.5-3.5
				c-55.8,57-111.6,114-167.4,171C156.6,355.2,160.1,358.8,162.4,356.5L162.4,356.5z"/>
		</g>
	</g>
</g>
<g id="XMLID_9_">
	<g id="XMLID_11_">
		<g id="XMLID_81_">
			<path id="XMLID_82_" class="st0" d="M607.7,353.6c-56.8-57.2-113.5-114.5-170.3-171.7c-2.3-2.3-5.8,1.2-3.5,3.5
				c56.8,57.2,113.5,114.5,170.3,171.7C606.4,359.4,610,355.9,607.7,353.6L607.7,353.6z"/>
		</g>
	</g>
</g>
<g id="XMLID_1_">
	<g id="XMLID_67_">
		<path id="XMLID_29_" class="st1" d="M613.9,18v331.5c0,7.7-6.3,14-14,14H163.4c-7.7,0-14-6.3-14-14V18c0-7.7,6.3-14,14-14H600
			C607.7,4,613.9,10.3,613.9,18z M157.4,349.4c0,3.3,2.7,6,6,6H600c3.3,0,6-2.7,6-6V18c0-3.3-2.7-6-6-6H163.4c-3.3,0-6,2.7-6,6
			V349.4z"/>
		<path id="XMLID_32_" class="st0" d="M600,367.4H163.4c-9.9,0-18-8.1-18-18V18c0-9.9,8.1-18,18-18H600c9.9,0,18,8.1,18,18v331.5
			C617.9,359.3,609.9,367.4,600,367.4z M153.4,349.4c0,5.5,4.5,10,10,10H600c5.5,0,10-4.5,10-10V18v331.5c0,5.5-4.5,10-10,10H163.4
			C157.9,359.4,153.4,354.9,153.4,349.4z M163.4,16c-1.1,0-2,0.9-2,2v331.5c0,1.1,0.9,2,2,2H600c1.1,0,2-0.9,2-2V18c0-1.1-0.9-2-2-2
			H163.4z"/>
	</g>
</g>
<g id="XMLID_2_">
	<g id="XMLID_3_">
		<g id="XMLID_25_">
			<path id="XMLID_69_" class="st0" d="M127.3,73.2H6.7c-1.6,0-3-1.3-3-3l0,0c0-1.7,1.3-3,3-3h120.7c1.7,0,3,1.3,3,3l0,0
				C130.3,71.8,129,73.2,127.3,73.2z"/>
		</g>
		<g id="XMLID_26_">
			<path id="XMLID_64_" class="st2" d="M127.3,73.7H6.7c-1.9,0-3.5-1.6-3.5-3.5s1.6-3.5,3.5-3.5h120.7c1.9,0,3.5,1.6,3.5,3.5
				S129.3,73.7,127.3,73.7z M6.7,67.7c-1.4,0-2.5,1.1-2.5,2.5s1.1,2.5,2.5,2.5h120.7c1.4,0,2.5-1.1,2.5-2.5s-1.1-2.5-2.5-2.5H6.7z"
				/>
		</g>
	</g>
	<g id="XMLID_4_">
		<g id="XMLID_21_">
			<path id="XMLID_61_" class="st0" d="M127.3,139.2H23c-1.6,0-3-1.4-3-3l0,0c0-1.6,1.3-3,3-3h104.3c1.7,0,3,1.4,3,3l0,0
				C130.3,137.8,129,139.2,127.3,139.2z"/>
		</g>
		<g id="XMLID_22_">
			<path id="XMLID_57_" class="st2" d="M127.3,139.7H23c-1.9,0-3.5-1.6-3.5-3.5s1.6-3.5,3.5-3.5h104.3c1.9,0,3.5,1.6,3.5,3.5
				S129.3,139.7,127.3,139.7z M23,133.7c-1.4,0-2.5,1.1-2.5,2.5s1.1,2.5,2.5,2.5h104.3c1.4,0,2.5-1.1,2.5-2.5s-1.1-2.5-2.5-2.5H23z"
				/>
		</g>
	</g>
	<g id="XMLID_5_">
		<g id="XMLID_17_">
			<path id="XMLID_54_" class="st0" d="M127.3,205.2H45.2c-1.6,0-3-1.4-3-3l0,0c0-1.7,1.3-3,3-3h82.1c1.7,0,3,1.3,3,3l0,0
				C130.3,203.8,129,205.2,127.3,205.2z"/>
		</g>
		<g id="XMLID_18_">
			<path id="XMLID_50_" class="st2" d="M127.3,205.7H45.2c-1.9,0-3.5-1.6-3.5-3.5s1.6-3.5,3.5-3.5h82.1c1.9,0,3.5,1.6,3.5,3.5
				S129.3,205.7,127.3,205.7z M45.2,199.7c-1.4,0-2.5,1.1-2.5,2.5s1.1,2.5,2.5,2.5h82.1c1.4,0,2.5-1.1,2.5-2.5s-1.1-2.5-2.5-2.5
				H45.2z"/>
		</g>
	</g>
	<g id="XMLID_6_">
		<g id="XMLID_10_">
			<path id="XMLID_47_" class="st0" d="M127.3,271.2H71.1c-1.7,0-3-1.4-3-3l0,0c0-1.6,1.3-3,3-3h56.2c1.7,0,3,1.4,3,3l0,0
				C130.3,269.8,129,271.2,127.3,271.2z"/>
		</g>
		<g id="XMLID_14_">
			<path id="XMLID_43_" class="st2" d="M127.3,271.7H71.1c-1.9,0-3.5-1.6-3.5-3.5s1.6-3.5,3.5-3.5h56.2c1.9,0,3.5,1.6,3.5,3.5
				S129.3,271.7,127.3,271.7z M71.1,265.7c-1.4,0-2.5,1.1-2.5,2.5s1.1,2.5,2.5,2.5h56.2c1.4,0,2.5-1.1,2.5-2.5s-1.1-2.5-2.5-2.5
				H71.1z"/>
		</g>
	</g>
</g>
<g id="XMLID_8_">
	<g id="XMLID_13_">
		<path id="XMLID_39_" class="st0" d="M381.7,235.7c-3.8,0-7.7-1.5-10.6-4.4L155.3,14.1l4.3-4.2l215.8,217.2c3.5,3.5,9.2,3.5,12.7,0
			L603.8,11.3l4.2,4.2L392.3,231.3C389.4,234.2,385.5,235.7,381.7,235.7z"/>
	</g>
</g>
</svg>
